<svg width="275" height="61" viewBox="0 0 275 61" fill="none" xmlns="http://www.w3.org/2000/svg">
<mask id="path-1-outside-1_916_672" maskUnits="userSpaceOnUse" x="-2" y="-2" width="279" height="65" fill="black">
<rect fill="white" x="-2" y="-2" width="279" height="65"/>
<path d="M0.728 47.536L4.328 39.184C6.488 40.48 8.792 41.488 11.24 42.208C13.736 42.88 16.16 43.264 18.512 43.36C20.912 43.408 23.072 43.168 24.992 42.64C26.96 42.112 28.52 41.32 29.672 40.264C30.872 39.208 31.472 37.864 31.472 36.232C31.472 34.312 30.68 32.896 29.096 31.984C27.512 31.024 25.4 30.544 22.76 30.544H10.448V21.76H21.896C24.248 21.76 26.072 21.28 27.368 20.32C28.712 19.36 29.384 18.04 29.384 16.36C29.384 14.92 28.904 13.768 27.944 12.904C26.984 11.992 25.664 11.32 23.984 10.888C22.352 10.456 20.504 10.264 18.44 10.312C16.376 10.36 14.24 10.696 12.032 11.32C9.824 11.944 7.712 12.808 5.696 13.912L2.168 4.912C5.432 3.232 8.864 2.08 12.464 1.456C16.112 0.783998 19.616 0.615998 22.976 0.951996C26.384 1.24 29.456 2.008 32.192 3.256C34.928 4.456 37.112 6.04 38.744 8.008C40.376 9.976 41.192 12.304 41.192 14.992C41.192 17.392 40.568 19.528 39.32 21.4C38.072 23.272 36.32 24.712 34.064 25.72C31.856 26.728 29.312 27.232 26.432 27.232L26.72 24.64C30.08 24.64 32.984 25.216 35.432 26.368C37.928 27.472 39.848 29.032 41.192 31.048C42.584 33.016 43.28 35.296 43.28 37.888C43.28 40.288 42.632 42.448 41.336 44.368C40.088 46.24 38.36 47.824 36.152 49.12C33.944 50.416 31.424 51.376 28.592 52C25.76 52.624 22.736 52.888 19.52 52.792C16.352 52.696 13.16 52.24 9.944 51.424C6.728 50.56 3.656 49.264 0.728 47.536ZM74.834 52V44.44L74.114 42.784V29.248C74.114 26.848 73.37 24.976 71.882 23.632C70.442 22.288 68.21 21.616 65.186 21.616C63.122 21.616 61.082 21.952 59.066 22.624C57.098 23.248 55.418 24.112 54.026 25.216L49.994 17.368C52.106 15.88 54.65 14.728 57.626 13.912C60.602 13.096 63.626 12.688 66.698 12.688C72.602 12.688 77.186 14.08 80.45 16.864C83.714 19.648 85.346 23.992 85.346 29.896V52H74.834ZM63.026 52.576C60.002 52.576 57.41 52.072 55.25 51.064C53.09 50.008 51.434 48.592 50.282 46.816C49.13 45.04 48.554 43.048 48.554 40.84C48.554 38.536 49.106 36.52 50.21 34.792C51.362 33.064 53.162 31.72 55.61 30.76C58.058 29.752 61.25 29.248 65.186 29.248H75.482V35.8H66.41C63.77 35.8 61.946 36.232 60.938 37.096C59.978 37.96 59.498 39.04 59.498 40.336C59.498 41.776 60.05 42.928 61.154 43.792C62.306 44.608 63.866 45.016 65.834 45.016C67.706 45.016 69.386 44.584 70.874 43.72C72.362 42.808 73.442 41.488 74.114 39.76L75.842 44.944C75.026 47.44 73.538 49.336 71.378 50.632C69.218 51.928 66.434 52.576 63.026 52.576ZM121.743 46.96V22.48H109.071L108.855 27.448C108.759 29.512 108.639 31.48 108.495 33.352C108.351 35.224 108.063 36.928 107.631 38.464C107.247 39.952 106.671 41.224 105.903 42.28C105.135 43.288 104.103 43.984 102.807 44.368L91.7191 42.784C93.1111 42.784 94.2391 42.376 95.1031 41.56C95.9671 40.696 96.6391 39.52 97.1191 38.032C97.5991 36.496 97.9591 34.768 98.1991 32.848C98.4391 30.88 98.6071 28.816 98.7031 26.656L99.2071 13.264H132.975V46.96H121.743ZM90.4231 60.352V42.784H138.519V60.352H128.079V52H100.863V60.352H90.4231ZM168.772 52V44.44L168.052 42.784V29.248C168.052 26.848 167.308 24.976 165.82 23.632C164.38 22.288 162.148 21.616 159.124 21.616C157.06 21.616 155.02 21.952 153.004 22.624C151.036 23.248 149.356 24.112 147.964 25.216L143.932 17.368C146.044 15.88 148.588 14.728 151.564 13.912C154.54 13.096 157.564 12.688 160.636 12.688C166.54 12.688 171.124 14.08 174.388 16.864C177.652 19.648 179.284 23.992 179.284 29.896V52H168.772ZM156.964 52.576C153.94 52.576 151.348 52.072 149.188 51.064C147.028 50.008 145.372 48.592 144.22 46.816C143.068 45.04 142.492 43.048 142.492 40.84C142.492 38.536 143.044 36.52 144.148 34.792C145.3 33.064 147.1 31.72 149.548 30.76C151.996 29.752 155.188 29.248 159.124 29.248H169.42V35.8H160.348C157.708 35.8 155.884 36.232 154.876 37.096C153.916 37.96 153.436 39.04 153.436 40.336C153.436 41.776 153.988 42.928 155.092 43.792C156.244 44.608 157.804 45.016 159.772 45.016C161.644 45.016 163.324 44.584 164.812 43.72C166.3 42.808 167.38 41.488 168.052 39.76L169.78 44.944C168.964 47.44 167.476 49.336 165.316 50.632C163.156 51.928 160.372 52.576 156.964 52.576ZM213.449 37.168C211.865 38.032 210.113 38.728 208.193 39.256C206.273 39.784 204.161 40.048 201.857 40.048C196.769 40.048 192.857 38.896 190.121 36.592C187.385 34.24 186.017 30.52 186.017 25.432V13.264H197.249V24.712C197.249 27.112 197.873 28.84 199.121 29.896C200.369 30.904 202.121 31.408 204.377 31.408C206.009 31.408 207.569 31.216 209.057 30.832C210.593 30.448 212.057 29.896 213.449 29.176V37.168ZM212.657 52V13.264H223.889V52H212.657ZM234.673 52V13.264H245.833V36.304L264.697 13.264H274.993V52H263.833V28.96L245.041 52H234.673Z"/>
</mask>
<path d="M0.728 47.536L-1.10865 46.7443L-1.80622 48.3627L-0.288507 49.2584L0.728 47.536ZM4.328 39.184L5.35699 37.469L3.39639 36.2927L2.49135 38.3923L4.328 39.184ZM11.24 42.208L10.6757 44.1267L10.6978 44.1332L10.7201 44.1392L11.24 42.208ZM18.512 43.36L18.4304 45.3583L18.4512 45.3592L18.472 45.3596L18.512 43.36ZM24.992 42.64L24.4737 40.7083L24.4617 40.7116L24.992 42.64ZM29.672 40.264L28.3507 38.7626L28.3355 38.776L28.3206 38.7897L29.672 40.264ZM29.096 31.984L28.0594 33.6944L28.0786 33.706L28.0981 33.7172L29.096 31.984ZM10.448 30.544H8.448V32.544H10.448V30.544ZM10.448 21.76V19.76H8.448V21.76H10.448ZM27.368 20.32L26.2055 18.6925L26.1914 18.7026L26.1775 18.7129L27.368 20.32ZM27.944 12.904L26.5665 14.354L26.586 14.3726L26.6061 14.3906L27.944 12.904ZM23.984 10.888L23.4722 12.8214L23.4791 12.8232L23.4859 12.825L23.984 10.888ZM18.44 10.312L18.3935 8.31254H18.3935L18.44 10.312ZM12.032 11.32L12.5759 13.2446H12.5759L12.032 11.32ZM5.696 13.912L3.83395 14.6419L4.66336 16.7577L6.65663 15.6662L5.696 13.912ZM2.168 4.912L1.25271 3.13372L-0.353234 3.96032L0.305955 5.64192L2.168 4.912ZM12.464 1.456L12.8056 3.42661L12.816 3.42481L12.8263 3.4229L12.464 1.456ZM22.976 0.951996L22.777 2.94207L22.7923 2.9436L22.8076 2.94489L22.976 0.951996ZM32.192 3.256L31.362 5.07564L31.3753 5.0817L31.3887 5.08757L32.192 3.256ZM38.744 8.008L40.2835 6.73133L38.744 8.008ZM39.32 21.4L37.6559 20.2906L39.32 21.4ZM34.064 25.72L33.2481 23.894L33.2408 23.8973L33.2334 23.9006L34.064 25.72ZM26.432 27.232L24.4442 27.0111L24.1975 29.232H26.432V27.232ZM26.72 24.64V22.64H24.9299L24.7322 24.4191L26.72 24.64ZM35.432 26.368L34.5804 28.1776L34.6016 28.1876L34.623 28.1971L35.432 26.368ZM41.192 31.048L39.5279 32.1574L39.5432 32.1804L39.5592 32.2029L41.192 31.048ZM41.336 44.368L39.6783 43.249L39.6719 43.2586L41.336 44.368ZM36.152 49.12L35.1396 47.3952L36.152 49.12ZM28.592 52L28.1616 50.0469L28.592 52ZM19.52 52.792L19.4594 54.7911L19.4603 54.7911L19.52 52.792ZM9.944 51.424L9.42509 53.3555L9.43858 53.3591L9.45212 53.3626L9.944 51.424ZM2.56465 48.3277L6.16465 39.9757L2.49135 38.3923L-1.10865 46.7443L2.56465 48.3277ZM3.29901 40.899C5.60651 42.2835 8.06689 43.3594 10.6757 44.1267L11.8043 40.2893C9.51711 39.6166 7.36949 38.6765 5.35699 37.469L3.29901 40.899ZM10.7201 44.1392C13.3454 44.8461 15.9166 45.2557 18.4304 45.3583L18.5936 41.3617C16.4034 41.2723 14.1266 40.9139 11.7599 40.2768L10.7201 44.1392ZM18.472 45.3596C21.0264 45.4107 23.3831 45.1567 25.5223 44.5684L24.4617 40.7116C22.7609 41.1793 20.7976 41.4053 18.552 41.3604L18.472 45.3596ZM25.5103 44.5717C27.6976 43.9848 29.5736 43.0674 31.0234 41.7383L28.3206 38.7897C27.4664 39.5726 26.2224 40.2392 24.4737 40.7083L25.5103 44.5717ZM30.9933 41.7654C32.635 40.3207 33.472 38.425 33.472 36.232H29.472C29.472 37.303 29.109 38.0953 28.3507 38.7626L30.9933 41.7654ZM33.472 36.232C33.472 33.641 32.3354 31.5413 30.0939 30.2508L28.0981 33.7172C29.0246 34.2507 29.472 34.983 29.472 36.232H33.472ZM30.1326 30.2736C28.1303 29.0601 25.6181 28.544 22.76 28.544V32.544C25.1819 32.544 26.8937 32.9879 28.0594 33.6944L30.1326 30.2736ZM22.76 28.544H10.448V32.544H22.76V28.544ZM12.448 30.544V21.76H8.448V30.544H12.448ZM10.448 23.76H21.896V19.76H10.448V23.76ZM21.896 23.76C24.4882 23.76 26.7923 23.2354 28.5585 21.9271L26.1775 18.7129C25.3517 19.3246 24.0078 19.76 21.896 19.76V23.76ZM28.5305 21.9475C30.4107 20.6044 31.384 18.6727 31.384 16.36H27.384C27.384 17.4073 27.0133 18.1156 26.2055 18.6925L28.5305 21.9475ZM31.384 16.36C31.384 14.4256 30.7144 12.7067 29.2819 11.4174L26.6061 14.3906C27.0936 14.8293 27.384 15.4144 27.384 16.36H31.384ZM29.3215 11.454C28.0497 10.2458 26.3927 9.44232 24.4821 8.95101L23.4859 12.825C24.9353 13.1977 25.9183 13.7382 26.5665 14.354L29.3215 11.454ZM24.4958 8.95459C22.6465 8.46508 20.6055 8.2611 18.3935 8.31254L18.4865 12.3115C20.4025 12.2669 22.0575 12.4469 23.4722 12.8214L24.4958 8.95459ZM18.3935 8.31254C16.1437 8.36486 13.8403 8.73062 11.4881 9.39538L12.5759 13.2446C14.6397 12.6614 16.6083 12.3551 18.4865 12.3115L18.3935 8.31254ZM11.4881 9.39538C9.13496 10.0604 6.88319 10.9816 4.73537 12.1578L6.65663 15.6662C8.54081 14.6344 10.513 13.8276 12.5759 13.2446L11.4881 9.39538ZM7.55805 13.1821L4.03005 4.18208L0.305955 5.64192L3.83395 14.6419L7.55805 13.1821ZM3.08329 6.69027C6.16778 5.10266 9.40642 4.0158 12.8056 3.42661L12.1224 -0.514618C8.32158 0.144196 4.69622 1.36133 1.25271 3.13372L3.08329 6.69027ZM12.8263 3.4229C16.3073 2.78168 19.6217 2.62654 22.777 2.94207L23.175 -1.03808C19.6103 -1.39455 15.9167 -1.21368 12.1017 -0.510908L12.8263 3.4229ZM22.8076 2.94489C26.0178 3.21618 28.8615 3.93507 31.362 5.07564L33.022 1.43636C30.0505 0.0809307 26.7502 -0.736181 23.1444 -1.0409L22.8076 2.94489ZM31.3887 5.08757C33.8874 6.18351 35.8023 7.59377 37.2045 9.28467L40.2835 6.73133C38.4217 4.48623 35.9686 2.72849 32.9953 1.42442L31.3887 5.08757ZM37.2045 9.28467C38.5227 10.8743 39.192 12.7443 39.192 14.992H43.192C43.192 11.8637 42.2293 9.07767 40.2835 6.73133L37.2045 9.28467ZM39.192 14.992C39.192 17.0248 38.67 18.7694 37.6559 20.2906L40.9841 22.5094C42.466 20.2866 43.192 17.7592 43.192 14.992H39.192ZM37.6559 20.2906C36.6377 21.8179 35.1945 23.0243 33.2481 23.894L34.8799 27.546C37.4455 26.3997 39.5063 24.7261 40.9841 22.5094L37.6559 20.2906ZM33.2334 23.9006C31.3302 24.7695 29.0782 25.232 26.432 25.232V29.232C29.5458 29.232 32.3818 28.6865 34.8946 27.5394L33.2334 23.9006ZM28.4198 27.4529L28.7078 24.8609L24.7322 24.4191L24.4442 27.0111L28.4198 27.4529ZM26.72 26.64C29.855 26.64 32.4552 27.1775 34.5804 28.1776L36.2836 24.5584C33.5128 23.2545 30.305 22.64 26.72 22.64V26.64ZM34.623 28.1971C36.8166 29.1673 38.4206 30.4965 39.5279 32.1574L42.8561 29.9386C41.2754 27.5675 39.0394 25.7767 36.241 24.5389L34.623 28.1971ZM39.5592 32.2029C40.694 33.8073 41.28 35.6768 41.28 37.888H45.28C45.28 34.9152 44.474 32.2247 42.8248 29.8931L39.5592 32.2029ZM41.28 37.888C41.28 39.9045 40.7428 41.672 39.6783 43.2491L42.9937 45.4869C44.5212 43.224 45.28 40.6715 45.28 37.888H41.28ZM39.6719 43.2586C38.6136 44.8461 37.1227 46.2311 35.1396 47.3952L37.1644 50.8448C39.5973 49.4168 41.5624 47.6339 43.0001 45.4774L39.6719 43.2586ZM35.1396 47.3952C33.1347 48.572 30.8156 49.4621 28.1616 50.0469L29.0224 53.9531C32.0324 53.2899 34.7533 52.26 37.1644 50.8448L35.1396 47.3952ZM28.1616 50.0469C25.5069 50.6318 22.6488 50.8845 19.5797 50.7929L19.4603 54.7911C22.8232 54.8915 26.0131 54.6162 29.0224 53.9531L28.1616 50.0469ZM19.5806 50.7929C16.5648 50.7015 13.5173 50.2673 10.4359 49.4854L9.45212 53.3626C12.8027 54.2127 16.1392 54.6905 19.4594 54.7911L19.5806 50.7929ZM10.4629 49.4925C7.42512 48.6764 4.52014 47.4517 1.74451 45.8136L-0.288507 49.2584C2.79186 51.0763 6.03088 52.4436 9.42509 53.3555L10.4629 49.4925ZM74.834 52H72.834V54H74.834V52ZM74.834 44.44H76.834V44.024L76.6681 43.6425L74.834 44.44ZM74.114 42.784H72.114V43.2L72.2799 43.5815L74.114 42.784ZM71.882 23.632L70.5174 25.0941L70.5293 25.1053L70.5414 25.1162L71.882 23.632ZM59.066 22.624L59.6705 24.5305L59.6845 24.526L59.6985 24.5214L59.066 22.624ZM54.026 25.216L52.247 26.13L53.3602 28.2967L55.2688 26.783L54.026 25.216ZM49.994 17.368L48.8421 15.733L47.4202 16.7348L48.215 18.282L49.994 17.368ZM57.626 13.912L57.0971 11.9832L57.626 13.912ZM80.45 16.864L81.7479 15.3423L80.45 16.864ZM85.346 52V54H87.346V52H85.346ZM55.25 51.064L54.3716 52.8608L54.3878 52.8687L54.4042 52.8764L55.25 51.064ZM50.282 46.816L48.6041 47.9044L50.282 46.816ZM50.21 34.792L48.5459 33.6826L48.5351 33.6988L48.5246 33.7152L50.21 34.792ZM55.61 30.76L56.3402 32.6219L56.3559 32.6158L56.3715 32.6094L55.61 30.76ZM75.482 29.248H77.482V27.248H75.482V29.248ZM75.482 35.8V37.8H77.482V35.8H75.482ZM60.938 37.096L59.6364 35.5775L59.6181 35.5932L59.6001 35.6094L60.938 37.096ZM61.154 43.792L59.9214 45.367L59.959 45.3964L59.998 45.424L61.154 43.792ZM70.874 43.72L71.8783 45.4496L71.8988 45.4376L71.9191 45.4252L70.874 43.72ZM74.114 39.76L76.0114 39.1275L74.2588 33.8697L72.25 39.0351L74.114 39.76ZM75.842 44.944L77.743 45.5655L77.9482 44.9379L77.7394 44.3115L75.842 44.944ZM71.378 50.632L70.349 48.917L71.378 50.632ZM76.834 52V44.44H72.834V52H76.834ZM76.6681 43.6425L75.9481 41.9865L72.2799 43.5815L72.9999 45.2374L76.6681 43.6425ZM76.114 42.784V29.248H72.114V42.784H76.114ZM76.114 29.248C76.114 26.4036 75.2127 23.9453 73.2226 22.1478L70.5414 25.1162C71.5273 26.0066 72.114 27.2924 72.114 29.248H76.114ZM73.2466 22.1699C71.2808 20.3351 68.4538 19.616 65.186 19.616V23.616C67.9662 23.616 69.6032 24.2409 70.5174 25.0941L73.2466 22.1699ZM65.186 19.616C62.9007 19.616 60.6474 19.9887 58.4335 20.7266L59.6985 24.5214C61.5166 23.9153 63.3433 23.616 65.186 23.616V19.616ZM58.4615 20.7175C56.2988 21.4033 54.3937 22.3717 52.7832 23.649L55.2688 26.783C56.4422 25.8523 57.8972 25.0927 59.6705 24.5305L58.4615 20.7175ZM55.805 24.302L51.773 16.454L48.215 18.282L52.247 26.13L55.805 24.302ZM51.1459 19.003C53.036 17.6713 55.3598 16.6072 58.1549 15.8408L57.0971 11.9832C53.9402 12.8488 51.176 14.0887 48.8421 15.733L51.1459 19.003ZM58.1549 15.8408C60.9593 15.0718 63.8055 14.688 66.698 14.688V10.688C63.4465 10.688 60.2447 11.1202 57.0971 11.9832L58.1549 15.8408ZM66.698 14.688C72.3049 14.688 76.3661 16.0093 79.1521 18.3857L81.7479 15.3423C78.0059 12.1507 72.8991 10.688 66.698 10.688V14.688ZM79.1521 18.3857C81.8207 20.6618 83.346 24.3467 83.346 29.896H87.346C87.346 23.6373 85.6073 18.6342 81.7479 15.3423L79.1521 18.3857ZM83.346 29.896V52H87.346V29.896H83.346ZM85.346 50H74.834V54H85.346V50ZM63.026 50.576C60.2183 50.576 57.9298 50.1075 56.0958 49.2516L54.4042 52.8764C56.8902 54.0365 59.7857 54.576 63.026 54.576V50.576ZM56.1284 49.2672C54.249 48.3484 52.8889 47.1598 51.9599 45.7276L48.6041 47.9044C49.9791 50.0242 51.931 51.6676 54.3716 52.8608L56.1284 49.2672ZM51.9599 45.7276C51.0275 44.2901 50.554 42.6792 50.554 40.84H46.554C46.554 43.4168 47.2325 45.7899 48.6041 47.9044L51.9599 45.7276ZM50.554 40.84C50.554 38.869 51.0215 37.2366 51.8954 35.8688L48.5246 33.7152C47.1905 35.8034 46.554 38.203 46.554 40.84H50.554ZM51.8741 35.9014C52.7453 34.5946 54.1715 33.4724 56.3402 32.6219L54.8798 28.8981C52.1525 29.9676 49.9787 31.5334 48.5459 33.6826L51.8741 35.9014ZM56.3715 32.6094C58.4902 31.7369 61.3958 31.248 65.186 31.248V27.248C61.1042 27.248 57.6258 27.767 54.8485 28.9106L56.3715 32.6094ZM65.186 31.248H75.482V27.248H65.186V31.248ZM73.482 29.248V35.8H77.482V29.248H73.482ZM75.482 33.8H66.41V37.8H75.482V33.8ZM66.41 33.8C63.6948 33.8 61.2259 34.2151 59.6364 35.5775L62.2396 38.6145C62.6661 38.2489 63.8452 37.8 66.41 37.8V33.8ZM59.6001 35.6094C58.217 36.8542 57.498 38.4753 57.498 40.336H61.498C61.498 39.6047 61.739 39.0658 62.2759 38.5826L59.6001 35.6094ZM57.498 40.336C57.498 42.3716 58.3179 44.1121 59.9214 45.367L62.3866 42.217C61.7821 41.7439 61.498 41.1804 61.498 40.336H57.498ZM59.998 45.424C61.5976 46.5571 63.6103 47.016 65.834 47.016V43.016C64.1217 43.016 63.0144 42.6589 62.31 42.16L59.998 45.424ZM65.834 47.016C68.0268 47.016 70.0587 46.5061 71.8783 45.4496L69.8697 41.9904C68.7133 42.6619 67.3852 43.016 65.834 43.016V47.016ZM71.9191 45.4252C73.804 44.27 75.1581 42.5933 75.978 40.4849L72.25 39.0351C71.7259 40.3827 70.92 41.346 69.8289 42.0148L71.9191 45.4252ZM72.2166 40.3925L73.9446 45.5765L77.7394 44.3115L76.0114 39.1275L72.2166 40.3925ZM73.941 44.3225C73.2677 46.3822 72.0775 47.8799 70.349 48.917L72.407 52.347C74.9985 50.7921 76.7843 48.4978 77.743 45.5655L73.941 44.3225ZM70.349 48.917C68.591 49.9718 66.195 50.576 63.026 50.576V54.576C66.673 54.576 69.845 53.8841 72.407 52.347L70.349 48.917ZM121.743 46.96H119.743V48.96H121.743V46.96ZM121.743 22.48H123.743V20.48H121.743V22.48ZM109.071 22.48V20.48H107.156L107.073 22.3931L109.071 22.48ZM108.855 27.448L110.853 27.5409L110.853 27.5349L108.855 27.448ZM108.495 33.352L110.489 33.5054L108.495 33.352ZM107.631 38.464L105.706 37.9225L105.7 37.9433L105.695 37.9642L107.631 38.464ZM105.903 42.28L107.494 43.4921L107.507 43.4744L107.521 43.4563L105.903 42.28ZM102.807 44.368L102.524 46.3479L102.957 46.4097L103.375 46.2856L102.807 44.368ZM91.7191 42.784V40.784L91.4363 44.7639L91.7191 42.784ZM95.1031 41.56L96.4764 43.014L96.4971 42.9944L96.5173 42.9742L95.1031 41.56ZM97.1191 38.032L99.0225 38.646L99.0254 38.6373L99.0281 38.6285L97.1191 38.032ZM98.1991 32.848L100.184 33.0961L100.184 33.0901L98.1991 32.848ZM98.7031 26.656L100.701 26.7448L100.702 26.7312L98.7031 26.656ZM99.2071 13.264V11.264H97.281L97.2085 13.1888L99.2071 13.264ZM132.975 13.264H134.975V11.264H132.975V13.264ZM132.975 46.96V48.96H134.975V46.96H132.975ZM90.4231 60.352H88.4231V62.352H90.4231V60.352ZM90.4231 42.784V40.784H88.4231V42.784H90.4231ZM138.519 42.784H140.519V40.784H138.519V42.784ZM138.519 60.352V62.352H140.519V60.352H138.519ZM128.079 60.352H126.079V62.352H128.079V60.352ZM128.079 52H130.079V50H128.079V52ZM100.863 52V50H98.8631V52H100.863ZM100.863 60.352V62.352H102.863V60.352H100.863ZM123.743 46.96V22.48H119.743V46.96H123.743ZM121.743 20.48H109.071V24.48H121.743V20.48ZM107.073 22.3931L106.857 27.3611L110.853 27.5349L111.069 22.5669L107.073 22.3931ZM106.857 27.3551C106.762 29.4009 106.643 31.3486 106.501 33.1986L110.489 33.5054C110.635 31.6114 110.756 29.6231 110.853 27.5409L106.857 27.3551ZM106.501 33.1986C106.365 34.9616 106.097 36.5332 105.706 37.9225L109.556 39.0055C110.03 37.3228 110.337 35.4864 110.489 33.5054L106.501 33.1986ZM105.695 37.9642C105.363 39.251 104.882 40.2837 104.286 41.1037L107.521 43.4563C108.46 42.1643 109.132 40.653 109.568 38.9638L105.695 37.9642ZM104.312 41.0679C103.819 41.715 103.157 42.1785 102.239 42.4504L103.375 46.2856C105.05 45.7895 106.451 44.861 107.494 43.4921L104.312 41.0679ZM103.09 42.3881L92.002 40.8041L91.4363 44.7639L102.524 46.3479L103.09 42.3881ZM91.7191 44.784C93.5283 44.784 95.1783 44.24 96.4764 43.014L93.7299 40.106C93.3 40.512 92.694 40.784 91.7191 40.784V44.784ZM96.5173 42.9742C97.6594 41.8322 98.4716 40.3538 99.0225 38.646L95.2157 37.418C94.8066 38.6862 94.2749 39.5598 93.6889 40.1458L96.5173 42.9742ZM99.0281 38.6285C99.5499 36.9588 99.9318 35.1114 100.184 33.0961L96.2146 32.5999C95.9865 34.4246 95.6484 36.0332 95.2102 37.4355L99.0281 38.6285ZM100.184 33.0901C100.431 31.0669 100.603 28.9515 100.701 26.7448L96.7051 26.5672C96.6112 28.6805 96.4471 30.6931 96.2138 32.6059L100.184 33.0901ZM100.702 26.7312L101.206 13.3392L97.2085 13.1888L96.7045 26.5808L100.702 26.7312ZM99.2071 15.264H132.975V11.264H99.2071V15.264ZM130.975 13.264V46.96H134.975V13.264H130.975ZM132.975 44.96H121.743V48.96H132.975V44.96ZM92.4231 60.352V42.784H88.4231V60.352H92.4231ZM90.4231 44.784H138.519V40.784H90.4231V44.784ZM136.519 42.784V60.352H140.519V42.784H136.519ZM138.519 58.352H128.079V62.352H138.519V58.352ZM130.079 60.352V52H126.079V60.352H130.079ZM128.079 50H100.863V54H128.079V50ZM98.8631 52V60.352H102.863V52H98.8631ZM100.863 58.352H90.4231V62.352H100.863V58.352ZM168.771 52H166.771V54H168.771V52ZM168.771 44.44H170.771V44.024L170.606 43.6425L168.771 44.44ZM168.051 42.784H166.051V43.2L166.217 43.5815L168.051 42.784ZM165.82 23.632L164.455 25.0941L164.467 25.1053L164.479 25.1162L165.82 23.632ZM153.003 22.624L153.608 24.5305L153.622 24.526L153.636 24.5214L153.003 22.624ZM147.964 25.216L146.185 26.13L147.298 28.2967L149.206 26.783L147.964 25.216ZM143.932 17.368L142.78 15.733L141.358 16.7348L142.153 18.282L143.932 17.368ZM151.564 13.912L151.035 11.9832L151.564 13.912ZM174.387 16.864L175.685 15.3423L174.387 16.864ZM179.284 52V54H181.284V52H179.284ZM149.188 51.064L148.309 52.8608L148.325 52.8687L148.342 52.8764L149.188 51.064ZM144.219 46.816L142.542 47.9044L144.219 46.816ZM144.148 34.792L142.483 33.6826L142.473 33.6988L142.462 33.7152L144.148 34.792ZM149.548 30.76L150.278 32.6219L150.293 32.6158L150.309 32.6094L149.548 30.76ZM169.419 29.248H171.419V27.248H169.419V29.248ZM169.419 35.8V37.8H171.419V35.8H169.419ZM154.876 37.096L153.574 35.5775L153.556 35.5932L153.538 35.6094L154.876 37.096ZM155.092 43.792L153.859 45.367L153.896 45.3964L153.935 45.424L155.092 43.792ZM164.811 43.72L165.816 45.4496L165.836 45.4376L165.857 45.4252L164.811 43.72ZM168.051 39.76L169.949 39.1275L168.196 33.8697L166.188 39.0351L168.051 39.76ZM169.779 44.944L171.68 45.5655L171.886 44.9379L171.677 44.3115L169.779 44.944ZM165.316 50.632L164.287 48.917L165.316 50.632ZM170.771 52V44.44H166.771V52H170.771ZM170.606 43.6425L169.886 41.9865L166.217 43.5815L166.937 45.2374L170.606 43.6425ZM170.051 42.784V29.248H166.051V42.784H170.051ZM170.051 29.248C170.051 26.4036 169.15 23.9453 167.16 22.1478L164.479 25.1162C165.465 26.0066 166.051 27.2924 166.051 29.248H170.051ZM167.184 22.1699C165.218 20.3351 162.391 19.616 159.124 19.616V23.616C161.904 23.616 163.541 24.2409 164.455 25.0941L167.184 22.1699ZM159.124 19.616C156.838 19.616 154.585 19.9887 152.371 20.7266L153.636 24.5214C155.454 23.9153 157.281 23.616 159.124 23.616V19.616ZM152.399 20.7175C150.236 21.4033 148.331 22.3717 146.721 23.649L149.206 26.783C150.38 25.8523 151.835 25.0927 153.608 24.5305L152.399 20.7175ZM149.742 24.302L145.71 16.454L142.153 18.282L146.185 26.13L149.742 24.302ZM145.083 19.003C146.974 17.6713 149.297 16.6072 152.092 15.8408L151.035 11.9832C147.878 12.8488 145.113 14.0887 142.78 15.733L145.083 19.003ZM152.092 15.8408C154.897 15.0718 157.743 14.688 160.635 14.688V10.688C157.384 10.688 154.182 11.1202 151.035 11.9832L152.092 15.8408ZM160.635 14.688C166.242 14.688 170.304 16.0093 173.09 18.3857L175.685 15.3423C171.943 12.1507 166.837 10.688 160.635 10.688V14.688ZM173.09 18.3857C175.758 20.6618 177.284 24.3467 177.284 29.896H181.284C181.284 23.6373 179.545 18.6342 175.685 15.3423L173.09 18.3857ZM177.284 29.896V52H181.284V29.896H177.284ZM179.284 50H168.771V54H179.284V50ZM156.964 50.576C154.156 50.576 151.867 50.1075 150.033 49.2516L148.342 52.8764C150.828 54.0365 153.723 54.576 156.964 54.576V50.576ZM150.066 49.2672C148.187 48.3484 146.826 47.1598 145.897 45.7276L142.542 47.9044C143.917 50.0242 145.868 51.6676 148.309 52.8608L150.066 49.2672ZM145.897 45.7276C144.965 44.2901 144.492 42.6792 144.492 40.84H140.492C140.492 43.4168 141.17 45.7899 142.542 47.9044L145.897 45.7276ZM144.492 40.84C144.492 38.869 144.959 37.2366 145.833 35.8688L142.462 33.7152C141.128 35.8034 140.492 38.203 140.492 40.84H144.492ZM145.812 35.9014C146.683 34.5946 148.109 33.4724 150.278 32.6219L148.817 28.8981C146.09 29.9676 143.916 31.5334 142.483 33.6826L145.812 35.9014ZM150.309 32.6094C152.428 31.7369 155.333 31.248 159.124 31.248V27.248C155.042 27.248 151.563 27.767 148.786 28.9106L150.309 32.6094ZM159.124 31.248H169.419V27.248H159.124V31.248ZM167.419 29.248V35.8H171.419V29.248H167.419ZM169.419 33.8H160.348V37.8H169.419V33.8ZM160.348 33.8C157.632 33.8 155.163 34.2151 153.574 35.5775L156.177 38.6145C156.604 38.2489 157.783 37.8 160.348 37.8V33.8ZM153.538 35.6094C152.154 36.8542 151.436 38.4753 151.436 40.336H155.436C155.436 39.6047 155.677 39.0658 156.213 38.5826L153.538 35.6094ZM151.436 40.336C151.436 42.3716 152.255 44.1121 153.859 45.367L156.324 42.217C155.72 41.7439 155.436 41.1804 155.436 40.336H151.436ZM153.935 45.424C155.535 46.5571 157.548 47.016 159.771 47.016V43.016C158.059 43.016 156.952 42.6589 156.248 42.16L153.935 45.424ZM159.771 47.016C161.964 47.016 163.996 46.5061 165.816 45.4496L163.807 41.9904C162.651 42.6619 161.323 43.016 159.771 43.016V47.016ZM165.857 45.4252C167.741 44.27 169.096 42.5933 169.916 40.4849L166.188 39.0351C165.663 40.3827 164.858 41.346 163.766 42.0148L165.857 45.4252ZM166.154 40.3925L167.882 45.5765L171.677 44.3115L169.949 39.1275L166.154 40.3925ZM167.879 44.3225C167.205 46.3822 166.015 47.8799 164.287 48.917L166.344 52.347C168.936 50.7921 170.722 48.4978 171.68 45.5655L167.879 44.3225ZM164.287 48.917C162.528 49.9718 160.132 50.576 156.964 50.576V54.576C160.611 54.576 163.783 53.8841 166.344 52.347L164.287 48.917ZM213.449 37.168L214.406 38.9238L215.449 38.3553V37.168H213.449ZM208.193 39.256L208.723 41.1844L208.193 39.256ZM190.121 36.592L188.817 38.1086L188.825 38.1153L188.832 38.1218L190.121 36.592ZM186.017 13.264V11.264H184.017V13.264H186.017ZM197.249 13.264H199.249V11.264H197.249V13.264ZM199.121 29.896L197.829 31.4228L197.846 31.4375L197.864 31.4519L199.121 29.896ZM209.057 30.832L208.572 28.8917L208.564 28.8936L208.557 28.8954L209.057 30.832ZM213.449 29.176H215.449V25.8898L212.53 27.3996L213.449 29.176ZM212.657 52H210.657V54H212.657V52ZM212.657 13.264V11.264H210.657V13.264H212.657ZM223.889 13.264H225.889V11.264H223.889V13.264ZM223.889 52V54H225.889V52H223.889ZM212.491 35.4122C211.055 36.1952 209.449 36.8363 207.662 37.3276L208.723 41.1844C210.776 40.6197 212.674 39.8688 214.406 38.9238L212.491 35.4122ZM207.662 37.3276C205.94 37.8013 204.009 38.048 201.857 38.048V42.048C204.312 42.048 206.606 41.7667 208.723 41.1844L207.662 37.3276ZM201.857 38.048C197.044 38.048 193.658 36.9565 191.409 35.0622L188.832 38.1218C192.055 40.8355 196.493 42.048 201.857 42.048V38.048ZM191.424 35.0754C189.289 33.2396 188.017 30.1851 188.017 25.432H184.017C184.017 30.8549 185.48 35.2404 188.817 38.1086L191.424 35.0754ZM188.017 25.432V13.264H184.017V25.432H188.017ZM186.017 15.264H197.249V11.264H186.017V15.264ZM195.249 13.264V24.712H199.249V13.264H195.249ZM195.249 24.712C195.249 27.4184 195.954 29.8361 197.829 31.4228L200.413 28.3692C199.792 27.8439 199.249 26.8056 199.249 24.712H195.249ZM197.864 31.4519C199.588 32.8442 201.846 33.408 204.377 33.408V29.408C202.395 29.408 201.15 28.9638 200.377 28.3401L197.864 31.4519ZM204.377 33.408C206.167 33.408 207.895 33.1972 209.556 32.7686L208.557 28.8954C207.242 29.2348 205.85 29.408 204.377 29.408V33.408ZM209.542 32.7723C211.227 32.3511 212.836 31.7444 214.367 30.9524L212.53 27.3996C211.277 28.0476 209.959 28.5449 208.572 28.8917L209.542 32.7723ZM211.449 29.176V37.168H215.449V29.176H211.449ZM214.657 52V13.264H210.657V52H214.657ZM212.657 15.264H223.889V11.264H212.657V15.264ZM221.889 13.264V52H225.889V13.264H221.889ZM223.889 50H212.657V54H223.889V50ZM234.673 52H232.673V54H234.673V52ZM234.673 13.264V11.264H232.673V13.264H234.673ZM245.833 13.264H247.833V11.264H245.833V13.264ZM245.833 36.304H243.833V41.9038L247.381 37.571L245.833 36.304ZM264.697 13.264V11.264H263.75L263.15 11.997L264.697 13.264ZM274.993 13.264H276.993V11.264H274.993V13.264ZM274.993 52V54H276.993V52H274.993ZM263.833 52H261.833V54H263.833V52ZM263.833 28.96H265.833V23.3436L262.284 27.6959L263.833 28.96ZM245.041 52V54H245.991L246.591 53.2641L245.041 52ZM236.673 52V13.264H232.673V52H236.673ZM234.673 15.264H245.833V11.264H234.673V15.264ZM243.833 13.264V36.304H247.833V13.264H243.833ZM247.381 37.571L266.245 14.531L263.15 11.997L244.286 35.037L247.381 37.571ZM264.697 15.264H274.993V11.264H264.697V15.264ZM272.993 13.264V52H276.993V13.264H272.993ZM274.993 50H263.833V54H274.993V50ZM265.833 52V28.96H261.833V52H265.833ZM262.284 27.6959L243.492 50.7359L246.591 53.2641L265.383 30.2241L262.284 27.6959ZM245.041 50H234.673V54H245.041V50Z" fill="white" mask="url(#path-1-outside-1_916_672)"/>
</svg>
