<svg width="504" height="504" viewBox="0 0 504 504" fill="none" xmlns="http://www.w3.org/2000/svg">
<path fill-rule="evenodd" clip-rule="evenodd" d="M39.8684 39.8684C91.9384 -12.2016 176.36 -12.2016 228.43 39.8684L322.71 134.149C374.78 186.22 374.78 270.64 322.71 322.71C309.693 335.73 288.587 335.73 275.57 322.71C262.553 309.693 262.553 288.587 275.57 275.57C301.607 249.537 301.607 207.323 275.57 181.29L181.29 87.0087C155.255 60.9741 113.044 60.9741 87.0087 87.0087C60.9741 113.044 60.9741 155.255 87.0087 181.29L110.579 204.86C123.597 217.877 123.596 238.983 110.579 252C97.5617 265.017 76.4561 265.017 63.4387 252L39.8684 228.43C-12.2016 176.36 -12.2016 91.9384 39.8684 39.8684ZM228.43 181.29C241.447 194.307 241.447 215.413 228.43 228.43C202.397 254.467 202.397 296.677 228.43 322.71L322.71 416.993C348.747 443.027 390.957 443.027 416.993 416.993C443.027 390.957 443.027 348.747 416.993 322.71L393.423 299.14C380.403 286.123 380.403 265.017 393.423 252C406.44 238.983 427.543 238.983 440.563 252L464.133 275.57C516.203 327.64 516.203 412.063 464.133 464.133C412.063 516.203 327.64 516.203 275.57 464.133L181.29 369.853C129.22 317.783 129.22 233.36 181.29 181.29C194.307 168.272 215.413 168.272 228.43 181.29Z" fill="white"/>
</svg>
