<svg width="650" height="654" viewBox="0 0 650 654" fill="none" xmlns="http://www.w3.org/2000/svg">
<path d="M206.202 266.467V261.39C206.202 248.517 216.512 237.842 229.8 236.955L326.582 230.492L460.425 427.587V254.602L425.975 250.01V247.6C425.975 234.575 436.52 223.83 449.977 223.14L538.04 218.63V231.302C538.04 237.25 533.615 242.34 527.552 243.365L506.36 246.95V527.092L479.765 536.237C457.545 543.88 432.81 535.7 420.09 516.507L290.152 320.43V507.575L330.145 515.227L329.59 518.937C327.842 530.557 317.81 539.347 305.675 539.887L206.202 544.315C204.887 531.817 214.252 520.64 227.172 519.282L240.257 517.907V268.38L206.202 266.467Z" fill="white"/>
<path fill-rule="evenodd" clip-rule="evenodd" d="M441.872 1.16954L43.0867 28.3963C19.1997 30.0273 0.683472 49.2313 0.683472 72.3748V460.248C0.683472 481.993 8.16897 503.12 21.9607 520.302L107.945 627.418C121.847 644.735 143.725 654.273 166.359 652.88L608.965 625.635C631.65 624.238 649.31 606.047 649.31 584.08V143.107C649.31 129.515 642.447 116.779 630.922 108.988L490.812 14.2573C476.532 4.60329 459.255 -0.0172094 441.872 1.16954ZM62.8617 78.425C57.3152 74.3185 59.955 65.7638 66.9225 65.264L444.555 38.1778C456.587 37.3148 468.542 40.628 478.272 47.522L554.042 101.203C556.917 103.241 555.57 107.641 552.007 107.835L152.097 129.584C139.994 130.242 128.048 126.687 118.425 119.563L62.8617 78.425ZM133.339 197.768C133.339 184.775 143.835 174.044 157.257 173.313L580.075 150.286C593.157 149.574 604.167 159.634 604.167 172.296V554.133C604.167 567.1 593.71 577.82 580.315 578.582L160.172 602.488C145.615 603.318 133.339 592.13 133.339 578.038V197.768Z" fill="white"/>
</svg>
