<svg width="680" height="800" viewBox="0 0 680 800" fill="none" xmlns="http://www.w3.org/2000/svg">
<path fill-rule="evenodd" clip-rule="evenodd" d="M462.836 127.715C491.998 93.9152 511.656 46.8392 506.277 0C464.251 1.6 413.408 26.8459 383.274 60.6055C356.215 90.5651 332.593 138.436 338.944 184.355C385.823 187.835 433.673 161.554 462.836 127.715ZM567.959 425C569.132 546.078 678.786 586.355 680 586.875C679.11 589.715 662.486 644.265 622.24 700.664C587.415 749.384 551.295 797.905 494.385 798.945C438.486 799.945 420.487 767.188 356.539 767.188C292.631 767.188 272.65 797.901 219.744 799.941C164.816 801.901 122.952 747.231 87.8839 698.672C16.1294 599.353 -38.6774 418.003 34.9377 295.605C71.5026 234.846 136.826 196.312 207.771 195.352C261.688 194.352 312.612 230.117 345.577 230.117C378.542 230.117 440.427 187.117 505.467 193.438C532.689 194.518 609.135 203.954 658.198 272.793C654.235 275.153 566.989 323.802 567.959 425Z" fill="white"/>
</svg>
