<svg width="800" height="800" viewBox="0 0 800 800" fill="none" xmlns="http://www.w3.org/2000/svg">
<path d="M774.091 650.36L623.032 501.105C607.809 525.561 589.695 548.492 568.761 569.356C547.651 590.483 524.493 608.789 499.757 624.118L651.692 774.23C685.747 807.918 740.526 807.62 774.389 773.81C774.529 773.67 774.651 773.547 774.774 773.442C808.759 739.44 808.304 684.17 774.091 650.36Z" fill="white"/>
<path d="M602.361 301.819C602.361 135.748 467.261 0.647956 301.172 0.647956C218.153 0.630438 142.86 34.4229 88.3264 88.9568C33.7925 143.491 0 218.784 0 301.819C0.0175181 467.874 135.117 602.991 301.172 602.991C384.207 602.991 459.518 569.216 514.034 514.665C568.586 460.131 602.361 384.855 602.361 301.819ZM431.979 432.61C398.467 466.104 352.184 486.881 301.189 486.881C199.146 486.881 116.128 403.88 116.128 301.819C116.128 250.807 136.887 204.541 170.399 171.029C203.893 137.517 250.176 116.776 301.207 116.758C403.215 116.758 486.25 199.776 486.25 301.802C486.25 352.832 465.491 399.098 431.979 432.61Z" fill="white"/>
</svg>
