<svg width="321" height="64" viewBox="0 0 321 64" fill="none" xmlns="http://www.w3.org/2000/svg">
<mask id="path-1-outside-1_916_610" maskUnits="userSpaceOnUse" x="-2" y="-2" width="325" height="68" fill="black">
<rect fill="white" x="-2" y="-2" width="325" height="68"/>
<path d="M28.384 52.864C24.448 52.864 20.776 52.216 17.368 50.92C14.008 49.624 11.08 47.8 8.584 45.448C6.136 43.096 4.216 40.336 2.824 37.168C1.48 34 0.808 30.544 0.808 26.8C0.808 23.056 1.48 19.6 2.824 16.432C4.216 13.264 6.16 10.504 8.656 8.152C11.152 5.8 14.08 3.976 17.44 2.68C20.8 1.384 24.448 0.735999 28.384 0.735999C32.368 0.735999 36.016 1.384 39.328 2.68C42.688 3.976 45.592 5.8 48.04 8.152C50.536 10.456 52.48 13.192 53.872 16.36C55.264 19.528 55.96 23.008 55.96 26.8C55.96 30.544 55.264 34.024 53.872 37.24C52.48 40.408 50.536 43.168 48.04 45.52C45.592 47.824 42.688 49.624 39.328 50.92C36.016 52.216 32.368 52.864 28.384 52.864ZM44.872 63.592C42.904 63.592 41.032 63.376 39.256 62.944C37.528 62.512 35.8 61.816 34.072 60.856C32.392 59.896 30.616 58.6 28.744 56.968C26.92 55.336 24.928 53.32 22.768 50.92L35.008 47.824C36.304 49.6 37.504 51.016 38.608 52.072C39.712 53.128 40.768 53.872 41.776 54.304C42.832 54.736 43.936 54.952 45.088 54.952C48.16 54.952 50.896 53.704 53.296 51.208L58.48 57.4C55.072 61.528 50.536 63.592 44.872 63.592ZM28.384 42.928C30.64 42.928 32.704 42.544 34.576 41.776C36.496 41.008 38.176 39.904 39.616 38.464C41.056 37.024 42.16 35.32 42.928 33.352C43.744 31.336 44.152 29.152 44.152 26.8C44.152 24.4 43.744 22.216 42.928 20.248C42.16 18.28 41.056 16.576 39.616 15.136C38.176 13.696 36.496 12.592 34.576 11.824C32.704 11.056 30.64 10.672 28.384 10.672C26.128 10.672 24.04 11.056 22.12 11.824C20.2 12.592 18.52 13.696 17.08 15.136C15.688 16.576 14.584 18.28 13.768 20.248C13 22.216 12.616 24.4 12.616 26.8C12.616 29.152 13 31.336 13.768 33.352C14.584 35.32 15.688 37.024 17.08 38.464C18.52 39.904 20.2 41.008 22.12 41.776C24.04 42.544 26.128 42.928 28.384 42.928ZM80.278 52.576C77.062 52.576 74.182 51.952 71.638 50.704C69.142 49.456 67.198 47.56 65.806 45.016C64.414 42.424 63.718 39.136 63.718 35.152V13.264H74.95V33.496C74.95 36.712 75.622 39.088 76.966 40.624C78.358 42.112 80.302 42.856 82.798 42.856C84.526 42.856 86.062 42.496 87.406 41.776C88.75 41.008 89.806 39.856 90.574 38.32C91.342 36.736 91.726 34.768 91.726 32.416V13.264H102.958V52H92.302V41.344L94.246 44.44C92.95 47.128 91.03 49.168 88.486 50.56C85.99 51.904 83.254 52.576 80.278 52.576ZM132.588 52.576C128.172 52.576 124.284 51.712 120.924 49.984C117.612 48.256 115.044 45.904 113.22 42.928C111.396 39.904 110.484 36.472 110.484 32.632C110.484 28.744 111.372 25.312 113.148 22.336C114.972 19.312 117.444 16.96 120.564 15.28C123.684 13.552 127.212 12.688 131.148 12.688C134.94 12.688 138.348 13.504 141.372 15.136C144.444 16.72 146.868 19.024 148.644 22.048C150.42 25.024 151.308 28.6 151.308 32.776C151.308 33.208 151.284 33.712 151.236 34.288C151.188 34.816 151.14 35.32 151.092 35.8H119.628V29.248H145.188L140.868 31.192C140.868 29.176 140.46 27.424 139.644 25.936C138.828 24.448 137.7 23.296 136.26 22.48C134.82 21.616 133.14 21.184 131.22 21.184C129.3 21.184 127.596 21.616 126.108 22.48C124.668 23.296 123.54 24.472 122.724 26.008C121.908 27.496 121.5 29.272 121.5 31.336V33.064C121.5 35.176 121.956 37.048 122.868 38.68C123.828 40.264 125.148 41.488 126.828 42.352C128.556 43.168 130.572 43.576 132.876 43.576C134.94 43.576 136.74 43.264 138.276 42.64C139.86 42.016 141.3 41.08 142.596 39.832L148.572 46.312C146.796 48.328 144.564 49.888 141.876 50.992C139.188 52.048 136.092 52.576 132.588 52.576ZM168.594 52L152.322 13.264H163.914L177.45 46.6H171.69L185.73 13.264H196.53L180.186 52H168.594ZM219.283 52.576C214.867 52.576 210.979 51.712 207.619 49.984C204.307 48.256 201.739 45.904 199.915 42.928C198.091 39.904 197.179 36.472 197.179 32.632C197.179 28.744 198.067 25.312 199.843 22.336C201.667 19.312 204.139 16.96 207.259 15.28C210.379 13.552 213.907 12.688 217.843 12.688C221.635 12.688 225.043 13.504 228.067 15.136C231.139 16.72 233.563 19.024 235.339 22.048C237.115 25.024 238.003 28.6 238.003 32.776C238.003 33.208 237.979 33.712 237.931 34.288C237.883 34.816 237.835 35.32 237.787 35.8H206.323V29.248H231.883L227.563 31.192C227.563 29.176 227.155 27.424 226.339 25.936C225.523 24.448 224.395 23.296 222.955 22.48C221.515 21.616 219.835 21.184 217.915 21.184C215.995 21.184 214.291 21.616 212.803 22.48C211.363 23.296 210.235 24.472 209.419 26.008C208.603 27.496 208.195 29.272 208.195 31.336V33.064C208.195 35.176 208.651 37.048 209.563 38.68C210.523 40.264 211.843 41.488 213.523 42.352C215.251 43.168 217.267 43.576 219.571 43.576C221.635 43.576 223.435 43.264 224.971 42.64C226.555 42.016 227.995 41.08 229.291 39.832L235.267 46.312C233.491 48.328 231.259 49.888 228.571 50.992C225.883 52.048 222.787 52.576 219.283 52.576ZM269.025 12.688C272.097 12.688 274.833 13.312 277.233 14.56C279.681 15.76 281.601 17.632 282.993 20.176C284.385 22.672 285.081 25.888 285.081 29.824V52H273.849V31.552C273.849 28.432 273.153 26.128 271.761 24.64C270.417 23.152 268.497 22.408 266.001 22.408C264.225 22.408 262.617 22.792 261.177 23.56C259.785 24.28 258.681 25.408 257.865 26.944C257.097 28.48 256.713 30.448 256.713 32.848V52H245.481V13.264H256.209V23.992L254.193 20.752C255.585 18.16 257.577 16.168 260.169 14.776C262.761 13.384 265.713 12.688 269.025 12.688ZM311.102 52.576C306.542 52.576 302.99 51.424 300.446 49.12C297.902 46.768 296.63 43.288 296.63 38.68V4.696H307.862V38.536C307.862 40.168 308.294 41.44 309.158 42.352C310.022 43.216 311.198 43.648 312.686 43.648C314.462 43.648 315.974 43.168 317.222 42.208L320.246 50.128C319.094 50.944 317.702 51.568 316.07 52C314.486 52.384 312.83 52.576 311.102 52.576ZM290.654 22.768V14.128H317.51V22.768H290.654Z"/>
</mask>
<path d="M17.368 50.92L16.6482 52.786L16.6571 52.7894L17.368 50.92ZM8.584 45.448L7.19835 46.8902L7.20534 46.8969L7.2124 46.9036L8.584 45.448ZM2.824 37.168L0.982836 37.9491L0.987824 37.9609L0.992961 37.9725L2.824 37.168ZM2.824 16.432L0.992961 15.6275L0.987824 15.6391L0.982837 15.6509L2.824 16.432ZM17.44 2.68L16.7203 0.813992L17.44 2.68ZM39.328 2.68L38.5992 4.5425L38.6083 4.546L39.328 2.68ZM48.04 8.152L46.6544 9.59421L46.6688 9.60805L46.6834 9.6216L48.04 8.152ZM53.872 16.36L52.041 17.1645V17.1645L53.872 16.36ZM53.872 37.24L55.7031 38.0446L55.7074 38.0344L53.872 37.24ZM48.04 45.52L49.4107 46.9764L49.4116 46.9756L48.04 45.52ZM39.328 50.92L38.6082 49.054L38.5992 49.0575L39.328 50.92ZM39.256 62.944L38.7709 64.8843L38.7833 64.8873L39.256 62.944ZM34.072 60.856L33.0797 62.5925L33.0902 62.5985L33.1007 62.6043L34.072 60.856ZM28.744 56.968L27.4104 58.4585L27.42 58.4671L27.4297 58.4755L28.744 56.968ZM22.768 50.92L22.2776 48.9811L19.0638 49.794L21.2814 52.2579L22.768 50.92ZM35.008 47.824L36.6236 46.6451L35.8272 45.5538L34.5176 45.8851L35.008 47.824ZM38.608 52.072L39.9904 50.6267L38.608 52.072ZM41.776 54.304L40.9882 56.1423L41.0034 56.1488L41.0187 56.1551L41.776 54.304ZM53.296 51.208L54.8295 49.9241L53.3989 48.2154L51.8543 49.8218L53.296 51.208ZM58.48 57.4L60.0223 58.6733L61.0809 57.3911L60.0135 56.1161L58.48 57.4ZM34.576 41.776L33.8332 39.919L33.825 39.9223L33.8169 39.9257L34.576 41.776ZM39.616 38.464L38.2018 37.0498L39.616 38.464ZM42.928 33.352L41.0741 32.6016L41.0694 32.6132L41.0648 32.6249L42.928 33.352ZM42.928 20.248L41.0648 20.9751L41.0725 20.9946L41.0805 21.014L42.928 20.248ZM39.616 15.136L38.2018 16.5502V16.5502L39.616 15.136ZM34.576 11.824L33.8169 13.6743L33.825 13.6777L33.8332 13.681L34.576 11.824ZM22.12 11.824L21.3772 9.96704L22.12 11.824ZM17.08 15.136L15.6658 13.7218L15.6538 13.7338L15.642 13.746L17.08 15.136ZM13.768 20.248L11.9205 19.482L11.9125 19.5014L11.9048 19.5209L13.768 20.248ZM13.768 33.352L11.899 34.064L11.9094 34.0912L11.9205 34.118L13.768 33.352ZM17.08 38.464L15.642 39.854L15.6538 39.8662L15.6658 39.8782L17.08 38.464ZM22.12 41.776L21.3772 43.633H21.3772L22.12 41.776ZM28.384 50.864C24.6715 50.864 21.2424 50.2536 18.0789 49.0506L16.6571 52.7894C20.3096 54.1784 24.2245 54.864 28.384 54.864V50.864ZM18.0877 49.054C14.9573 47.8465 12.2536 46.1578 9.9556 43.9924L7.2124 46.9036C9.9064 49.4422 13.0587 51.4015 16.6483 52.786L18.0877 49.054ZM9.96965 44.0058C7.71411 41.8387 5.94382 39.2965 4.65504 36.3635L0.992961 37.9725C2.48818 41.3755 4.55789 44.3533 7.19835 46.8902L9.96965 44.0058ZM4.66516 36.3869C3.43489 33.487 2.808 30.2994 2.808 26.8H-1.192C-1.192 30.7886 -0.474894 34.513 0.982836 37.9491L4.66516 36.3869ZM2.808 26.8C2.808 23.3006 3.43489 20.113 4.66516 17.2131L0.982837 15.6509C-0.474894 19.087 -1.192 22.8114 -1.192 26.8H2.808ZM4.65504 17.2365C5.94011 14.3119 7.72866 11.7739 10.0276 9.60758L7.2844 6.69642C4.59134 9.23411 2.49189 12.2161 0.992961 15.6275L4.65504 17.2365ZM10.0276 9.60758C12.3256 7.44215 15.0293 5.75347 18.1597 4.546L16.7203 0.813992C13.1307 2.19852 9.9784 4.15784 7.2844 6.69642L10.0276 9.60758ZM18.1597 4.546C21.2697 3.34646 24.6712 2.736 28.384 2.736V-1.264C24.2248 -1.264 20.3303 -0.578466 16.7203 0.813992L18.1597 4.546ZM28.384 2.736C32.1485 2.736 35.5457 3.34764 38.5992 4.54248L40.0568 0.817509C36.4863 -0.579639 32.5875 -1.264 28.384 -1.264V2.736ZM38.6083 4.546C41.7356 5.75228 44.4094 7.43734 46.6544 9.59421L49.4257 6.70979C46.7746 4.16266 43.6404 2.19972 40.0477 0.813992L38.6083 4.546ZM46.6834 9.6216C48.9734 11.7354 50.7575 14.2437 52.041 17.1645L55.703 15.5555C54.2025 12.1403 52.0986 9.17662 49.3966 6.68239L46.6834 9.6216ZM52.041 17.1645C53.3113 20.0555 53.96 23.2582 53.96 26.8H57.96C57.96 22.7578 57.2168 19.0005 55.703 15.5555L52.041 17.1645ZM53.96 26.8C53.96 30.2897 53.3127 33.4972 52.0366 36.4456L55.7074 38.0344C57.2153 34.5508 57.96 30.7983 57.96 26.8H53.96ZM52.041 36.4355C50.7559 39.3601 48.9673 41.8981 46.6684 44.0644L49.4116 46.9756C52.1047 44.4379 54.2041 41.4559 55.703 38.0445L52.041 36.4355ZM46.6693 44.0636C44.4228 46.1779 41.7442 47.8444 38.6083 49.054L40.0477 52.786C43.6318 51.4036 46.7612 49.4701 49.4107 46.9764L46.6693 44.0636ZM38.5992 49.0575C35.5457 50.2524 32.1485 50.864 28.384 50.864V54.864C32.5875 54.864 36.4863 54.1796 40.0568 52.7825L38.5992 49.0575ZM44.872 61.592C43.0512 61.592 41.3386 61.3923 39.7287 61.0007L38.7833 64.8873C40.7254 65.3597 42.7569 65.592 44.872 65.592V61.592ZM39.7411 61.0037C38.2003 60.6185 36.6349 59.9919 35.0433 59.1077L33.1007 62.6043C34.9651 63.6401 36.8557 64.4055 38.7709 64.8843L39.7411 61.0037ZM35.0643 59.1195C33.5258 58.2404 31.8572 57.0287 30.0583 55.4605L27.4297 58.4755C29.3748 60.1713 31.2582 61.5516 33.0797 62.5925L35.0643 59.1195ZM30.0776 55.4775C28.3211 53.9059 26.3806 51.9443 24.2546 49.5821L21.2814 52.2579C23.4754 54.6957 25.5189 56.7661 27.4104 58.4585L30.0776 55.4775ZM23.2584 52.8589L35.4984 49.7629L34.5176 45.8851L22.2776 48.9811L23.2584 52.8589ZM33.3924 49.0029C34.7306 50.8367 36.008 52.3526 37.2256 53.5173L39.9904 50.6267C39 49.6794 37.8774 48.3633 36.6236 46.6451L33.3924 49.0029ZM37.2256 53.5173C38.4396 54.6786 39.6921 55.5868 40.9882 56.1423L42.5638 52.4657C41.8439 52.1572 40.9844 51.5774 39.9904 50.6267L37.2256 53.5173ZM41.0187 56.1551C42.3175 56.6864 43.6789 56.952 45.088 56.952V52.952C44.1931 52.952 43.3465 52.7856 42.5333 52.4529L41.0187 56.1551ZM45.088 56.952C48.7756 56.952 52.0132 55.4276 54.7377 52.5942L51.8543 49.8218C49.7788 51.9804 47.5444 52.952 45.088 52.952V56.952ZM51.7625 52.4919L56.9465 58.6839L60.0135 56.1161L54.8295 49.9241L51.7625 52.4919ZM56.9377 56.1267C53.9342 59.7647 49.979 61.592 44.872 61.592V65.592C51.093 65.592 56.2098 63.2913 60.0223 58.6733L56.9377 56.1267ZM28.384 44.928C30.8705 44.928 33.196 44.5039 35.3351 43.6263L33.8169 39.9257C32.212 40.5841 30.4095 40.928 28.384 40.928V44.928ZM35.3188 43.633C37.4863 42.766 39.3957 41.5127 41.0302 39.8782L38.2018 37.0498C36.9563 38.2952 35.5057 39.25 33.8332 39.919L35.3188 43.633ZM41.0302 39.8782C42.6731 38.2353 43.9265 36.2949 44.7912 34.0791L41.0648 32.6249C40.3935 34.3451 39.4389 35.8127 38.2018 37.0498L41.0302 39.8782ZM44.7819 34.1024C45.702 31.8292 46.152 29.3881 46.152 26.8H42.152C42.152 28.9159 41.786 30.8428 41.0741 32.6016L44.7819 34.1024ZM46.152 26.8C46.152 24.1703 45.7041 21.7217 44.7755 19.482L41.0805 21.014C41.7839 22.7103 42.152 24.6297 42.152 26.8H46.152ZM44.7912 19.5209C43.9265 17.3051 42.6731 15.3647 41.0302 13.7218L38.2018 16.5502C39.4389 17.7873 40.3935 19.2549 41.0648 20.9751L44.7912 19.5209ZM41.0302 13.7218C39.3957 12.0872 37.4863 10.834 35.3188 9.96704L33.8332 13.681C35.5057 14.35 36.9563 15.3047 38.2018 16.5502L41.0302 13.7218ZM35.3351 9.97366C33.196 9.09608 30.8705 8.672 28.384 8.672V12.672C30.4095 12.672 32.212 13.0159 33.8169 13.6743L35.3351 9.97366ZM28.384 8.672C25.8968 8.672 23.5541 9.09628 21.3772 9.96704L22.8628 13.681C24.5259 13.0157 26.3592 12.672 28.384 12.672V8.672ZM21.3772 9.96704C19.2097 10.834 17.3003 12.0872 15.6658 13.7218L18.4942 16.5502C19.7397 15.3047 21.1903 14.35 22.8628 13.681L21.3772 9.96704ZM15.642 13.746C14.0647 15.3777 12.8265 17.297 11.9205 19.482L15.6155 21.014C16.3415 19.263 17.3113 17.7743 18.518 16.526L15.642 13.746ZM11.9048 19.5209C11.035 21.75 10.616 24.1848 10.616 26.8H14.616C14.616 24.6152 14.965 22.682 15.6312 20.9751L11.9048 19.5209ZM10.616 26.8C10.616 29.3733 11.0369 31.8009 11.899 34.064L15.637 32.64C14.9631 30.8711 14.616 28.9307 14.616 26.8H10.616ZM11.9205 34.118C12.8265 36.303 14.0647 38.2223 15.642 39.854L18.518 37.074C17.3113 35.8257 16.3415 34.337 15.6155 32.586L11.9205 34.118ZM15.6658 39.8782C17.3003 41.5127 19.2097 42.766 21.3772 43.633L22.8628 39.919C21.1903 39.25 19.7397 38.2952 18.4942 37.0498L15.6658 39.8782ZM21.3772 43.633C23.5541 44.5037 25.8968 44.928 28.384 44.928V40.928C26.3592 40.928 24.5259 40.5843 22.8628 39.919L21.3772 43.633ZM71.638 50.704L70.7436 52.4929L70.7504 52.4962L70.7571 52.4996L71.638 50.704ZM65.806 45.016L64.044 45.9623L64.0477 45.9692L64.0515 45.976L65.806 45.016ZM63.718 13.264V11.264H61.718V13.264H63.718ZM74.95 13.264H76.95V11.264H74.95V13.264ZM76.966 40.624L75.4608 41.941L75.4827 41.966L75.5055 41.9903L76.966 40.624ZM87.406 41.776L88.3504 43.539L88.3745 43.5261L88.3983 43.5125L87.406 41.776ZM90.574 38.32L92.3629 39.2144L92.3683 39.2035L92.3736 39.1925L90.574 38.32ZM91.726 13.264V11.264H89.726V13.264H91.726ZM102.958 13.264H104.958V11.264H102.958V13.264ZM102.958 52V54H104.958V52H102.958ZM92.302 52H90.302V54H92.302V52ZM92.302 41.344L93.9958 40.2805L90.302 34.3978V41.344H92.302ZM94.246 44.44L96.0475 45.3086L96.5277 44.3127L95.9398 43.3765L94.246 44.44ZM88.486 50.56L89.4342 52.321L89.446 52.3145L88.486 50.56ZM80.278 50.576C77.326 50.576 74.7538 50.0048 72.5189 48.9084L70.7571 52.4996C73.6102 53.8992 76.798 54.576 80.278 54.576V50.576ZM72.5324 48.9151C70.4157 47.8568 68.7651 46.2574 67.5605 44.056L64.0515 45.976C65.6309 48.8626 67.8683 51.0552 70.7436 52.4929L72.5324 48.9151ZM67.568 44.0697C66.3777 41.8534 65.718 38.9176 65.718 35.152H61.718C61.718 39.3544 62.4503 42.9946 64.044 45.9623L67.568 44.0697ZM65.718 35.152V13.264H61.718V35.152H65.718ZM63.718 15.264H74.95V11.264H63.718V15.264ZM72.95 13.264V33.496H76.95V13.264H72.95ZM72.95 33.496C72.95 36.9314 73.6584 39.881 75.4608 41.941L78.4712 39.307C77.5856 38.295 76.95 36.4925 76.95 33.496H72.95ZM75.5055 41.9903C77.3583 43.9709 79.8823 44.856 82.798 44.856V40.856C80.7217 40.856 79.3577 40.2531 78.4265 39.2577L75.5055 41.9903ZM82.798 44.856C84.8111 44.856 86.6791 44.4343 88.3504 43.539L86.4616 40.013C85.4449 40.5577 84.2409 40.856 82.798 40.856V44.856ZM88.3983 43.5125C90.1221 42.5274 91.4383 41.0634 92.3629 39.2144L88.7851 37.4256C88.1737 38.6486 87.3779 39.4886 86.4137 40.0395L88.3983 43.5125ZM92.3736 39.1925C93.3101 37.2611 93.726 34.9734 93.726 32.416H89.726C89.726 34.5626 89.3739 36.2109 88.7744 37.4475L92.3736 39.1925ZM93.726 32.416V13.264H89.726V32.416H93.726ZM91.726 15.264H102.958V11.264H91.726V15.264ZM100.958 13.264V52H104.958V13.264H100.958ZM102.958 50H92.302V54H102.958V50ZM94.302 52V41.344H90.302V52H94.302ZM90.6082 42.4075L92.5522 45.5035L95.9398 43.3765L93.9958 40.2805L90.6082 42.4075ZM92.4445 43.5714C91.3241 45.8952 89.6927 47.6199 87.526 48.8055L89.446 52.3145C92.3673 50.7161 94.5759 48.3608 96.0475 45.3086L92.4445 43.5714ZM87.5378 48.7991C85.3479 49.9783 82.9401 50.576 80.278 50.576V54.576C83.5679 54.576 86.6321 53.8298 89.4342 52.3209L87.5378 48.7991ZM120.924 49.984L119.999 51.7572L120.009 51.7626L120.924 49.984ZM113.22 42.928L111.507 43.961L111.511 43.9671L111.514 43.9731L113.22 42.928ZM113.148 22.336L111.435 21.303L111.43 21.3111L113.148 22.336ZM120.564 15.28L121.512 17.0409L121.522 17.0353L121.533 17.0296L120.564 15.28ZM141.372 15.136L140.422 16.896L140.438 16.905L140.455 16.9136L141.372 15.136ZM148.644 22.048L146.919 23.0609L146.926 23.0729L148.644 22.048ZM151.236 34.288L153.227 34.4691L153.228 34.4616L153.229 34.4541L151.236 34.288ZM151.092 35.8V37.8H152.902L153.082 35.999L151.092 35.8ZM119.628 35.8H117.628V37.8H119.628V35.8ZM119.628 29.248V27.248H117.628V29.248H119.628ZM145.188 29.248L146.008 31.0718L145.188 27.248V29.248ZM140.868 31.192H138.868V34.2852L141.688 33.0158L140.868 31.192ZM139.644 25.936L137.89 26.8977V26.8977L139.644 25.936ZM136.26 22.48L135.231 24.195L135.252 24.2078L135.274 24.22L136.26 22.48ZM126.108 22.48L127.094 24.22L127.103 24.2149L127.112 24.2096L126.108 22.48ZM122.724 26.008L124.477 26.9697L124.484 26.958L124.49 26.9463L122.724 26.008ZM122.868 38.68L121.122 39.6556L121.139 39.6864L121.157 39.7166L122.868 38.68ZM126.828 42.352L125.913 44.1306L125.943 44.146L125.974 44.1605L126.828 42.352ZM138.276 42.64L137.543 40.7792L137.533 40.7831L137.523 40.7871L138.276 42.64ZM142.596 39.832L144.066 38.4761L142.68 36.9738L141.208 38.3914L142.596 39.832ZM148.572 46.312L150.072 47.6341L151.264 46.2813L150.042 44.9561L148.572 46.312ZM141.876 50.992L142.607 52.8535L142.621 52.8479L142.636 52.842L141.876 50.992ZM132.588 50.576C128.436 50.576 124.871 49.7652 121.838 48.2054L120.009 51.7626C123.696 53.6588 127.907 54.576 132.588 54.576V50.576ZM121.849 48.2108C118.835 46.6382 116.546 44.5283 114.925 41.8829L111.514 43.9731C113.541 47.2797 116.389 49.8738 119.999 51.7572L121.849 48.2108ZM114.932 41.895C113.313 39.2098 112.484 36.1408 112.484 32.632H108.484C108.484 36.8032 109.479 40.5982 111.507 43.961L114.932 41.895ZM112.484 32.632C112.484 29.0598 113.296 25.9905 114.865 23.3609L111.43 21.3111C109.448 24.6335 108.484 28.4282 108.484 32.632H112.484ZM114.86 23.369C116.499 20.6528 118.706 18.5517 121.512 17.0409L119.615 13.5191C116.181 15.3683 113.445 17.9712 111.435 21.303L114.86 23.369ZM121.533 17.0296C124.326 15.4824 127.515 14.688 131.148 14.688V10.688C126.909 10.688 123.041 11.6216 119.595 13.5304L121.533 17.0296ZM131.148 14.688C134.643 14.688 137.719 15.4374 140.422 16.896L142.322 13.376C138.976 11.5706 135.236 10.688 131.148 10.688V14.688ZM140.455 16.9136C143.186 18.3216 145.332 20.358 146.919 23.0608L150.368 21.0352C148.404 17.69 145.702 15.1184 142.288 13.3584L140.455 16.9136ZM146.926 23.0729C148.483 25.681 149.308 28.8867 149.308 32.776H153.308C153.308 28.3133 152.357 24.367 150.361 21.0231L146.926 23.0729ZM149.308 32.776C149.308 33.1377 149.287 33.584 149.243 34.1219L153.229 34.4541C153.28 33.84 153.308 33.2783 153.308 32.776H149.308ZM149.244 34.1069C149.196 34.6295 149.149 35.1275 149.102 35.601L153.082 35.999C153.13 35.5125 153.179 35.0025 153.227 34.4691L149.244 34.1069ZM151.092 33.8H119.628V37.8H151.092V33.8ZM121.628 35.8V29.248H117.628V35.8H121.628ZM119.628 31.248H145.188V27.248H119.628V31.248ZM144.367 27.4242L140.047 29.3682L141.688 33.0158L146.008 31.0718L144.367 27.4242ZM142.868 31.192C142.868 28.903 142.403 26.8079 141.397 24.9743L137.89 26.8977C138.517 28.0401 138.868 29.449 138.868 31.192H142.868ZM141.397 24.9743C140.407 23.1693 139.017 21.7439 137.246 20.74L135.274 24.22C136.382 24.8481 137.248 25.7267 137.89 26.8977L141.397 24.9743ZM137.289 20.765C135.495 19.689 133.449 19.184 131.22 19.184V23.184C132.83 23.184 134.144 23.543 135.231 24.195L137.289 20.765ZM131.22 19.184C128.989 19.184 126.931 19.6894 125.103 20.7504L127.112 24.2096C128.261 23.5426 129.611 23.184 131.22 23.184V19.184ZM125.122 20.74C123.333 21.7533 121.942 23.2156 120.957 25.0697L124.49 26.9463C125.137 25.7284 126.002 24.8387 127.094 24.22L125.122 20.74ZM120.97 25.0463C119.961 26.8865 119.5 29.008 119.5 31.336H123.5C123.5 29.536 123.854 28.1055 124.477 26.9697L120.97 25.0463ZM119.5 31.336V33.064H123.5V31.336H119.5ZM119.5 33.064C119.5 35.4725 120.022 37.6885 121.122 39.6556L124.614 37.7044C123.889 36.4075 123.5 34.8795 123.5 33.064H119.5ZM121.157 39.7166C122.313 41.6233 123.911 43.1011 125.913 44.1306L127.742 40.5734C126.384 39.8749 125.343 38.9047 124.578 37.6434L121.157 39.7166ZM125.974 44.1605C128.018 45.1259 130.336 45.576 132.876 45.576V41.576C130.807 41.576 129.093 41.2101 127.682 40.5435L125.974 44.1605ZM132.876 45.576C135.137 45.576 137.203 45.2347 139.028 44.4929L137.523 40.7871C136.277 41.2933 134.743 41.576 132.876 41.576V45.576ZM139.009 44.5008C140.85 43.7755 142.509 42.6917 143.983 41.2726L141.208 38.3914C140.09 39.4683 138.87 40.2565 137.543 40.7792L139.009 44.5008ZM141.125 41.1879L147.101 47.6679L150.042 44.9561L144.066 38.4761L141.125 41.1879ZM147.071 44.9899C145.514 46.7569 143.543 48.145 141.116 49.142L142.636 52.842C145.584 51.631 148.077 49.8991 150.072 47.6341L147.071 44.9899ZM141.144 49.1305C138.733 50.0777 135.893 50.576 132.588 50.576V54.576C136.29 54.576 139.642 54.0183 142.607 52.8535L141.144 49.1305ZM168.594 52L166.751 52.7746L167.265 54H168.594V52ZM152.322 13.264V11.264H149.313L150.479 14.0386L152.322 13.264ZM163.914 13.264L165.768 12.5116L165.261 11.264H163.914V13.264ZM177.45 46.6V48.6H180.421L179.303 45.8476L177.45 46.6ZM171.69 46.6L169.847 45.8237L168.678 48.6H171.69V46.6ZM185.73 13.264V11.264H184.403L183.887 12.4877L185.73 13.264ZM196.53 13.264L198.373 14.0415L199.545 11.264H196.53V13.264ZM180.186 52V54H181.513L182.029 52.7775L180.186 52ZM170.438 51.2254L154.166 12.4894L150.479 14.0386L166.751 52.7746L170.438 51.2254ZM152.322 15.264H163.914V11.264H152.322V15.264ZM162.061 14.0164L175.597 47.3524L179.303 45.8476L165.768 12.5116L162.061 14.0164ZM177.45 44.6H171.69V48.6H177.45V44.6ZM173.534 47.3763L187.574 14.0403L183.887 12.4877L169.847 45.8237L173.534 47.3763ZM185.73 15.264H196.53V11.264H185.73V15.264ZM194.688 12.4865L178.344 51.2225L182.029 52.7775L198.373 14.0415L194.688 12.4865ZM180.186 50H168.594V54H180.186V50ZM207.619 49.984L206.694 51.7572L206.704 51.7626L207.619 49.984ZM199.915 42.928L198.202 43.961L198.206 43.9671L198.21 43.9731L199.915 42.928ZM199.843 22.336L198.13 21.303L198.126 21.3111L199.843 22.336ZM207.259 15.28L208.207 17.0409L208.218 17.0353L208.228 17.0296L207.259 15.28ZM228.067 15.136L227.117 16.896L227.134 16.905L227.15 16.9136L228.067 15.136ZM235.339 22.048L233.614 23.0609L233.622 23.0729L235.339 22.048ZM237.931 34.288L239.923 34.4691L239.923 34.4616L239.924 34.4541L237.931 34.288ZM237.787 35.8V37.8H239.597L239.777 35.999L237.787 35.8ZM206.323 35.8H204.323V37.8H206.323V35.8ZM206.323 29.248V27.248H204.323V29.248H206.323ZM231.883 29.248L232.704 31.0718L231.883 27.248V29.248ZM227.563 31.192H225.563V34.2852L228.384 33.0158L227.563 31.192ZM226.339 25.936L224.585 26.8977V26.8977L226.339 25.936ZM222.955 22.48L221.926 24.195L221.947 24.2078L221.969 24.22L222.955 22.48ZM212.803 22.48L213.789 24.22L213.798 24.2149L213.807 24.2096L212.803 22.48ZM209.419 26.008L211.173 26.9697L211.179 26.958L211.185 26.9463L209.419 26.008ZM209.563 38.68L207.817 39.6556L207.834 39.6864L207.853 39.7166L209.563 38.68ZM213.523 42.352L212.608 44.1306L212.638 44.146L212.669 44.1605L213.523 42.352ZM224.971 42.64L224.238 40.7792L224.228 40.7831L224.218 40.7871L224.971 42.64ZM229.291 39.832L230.761 38.4761L229.376 36.9738L227.904 38.3914L229.291 39.832ZM235.267 46.312L236.768 47.6341L237.959 46.2813L236.737 44.9561L235.267 46.312ZM228.571 50.992L229.302 52.8535L229.317 52.8479L229.331 52.842L228.571 50.992ZM219.283 50.576C215.131 50.576 211.567 49.7652 208.534 48.2054L206.704 51.7626C210.391 53.6588 214.603 54.576 219.283 54.576V50.576ZM208.544 48.2108C205.53 46.6382 203.242 44.5283 201.62 41.8829L198.21 43.9731C200.236 47.2797 203.084 49.8738 206.694 51.7572L208.544 48.2108ZM201.628 41.895C200.008 39.2098 199.179 36.1408 199.179 32.632H195.179C195.179 36.8032 196.174 40.5982 198.202 43.961L201.628 41.895ZM199.179 32.632C199.179 29.0598 199.991 25.9905 201.56 23.3609L198.126 21.3111C196.143 24.6335 195.179 28.4282 195.179 32.632H199.179ZM201.556 23.369C203.194 20.6528 205.401 18.5517 208.207 17.0409L206.311 13.5191C202.877 15.3683 200.14 17.9712 198.13 21.303L201.556 23.369ZM208.228 17.0296C211.022 15.4824 214.21 14.688 217.843 14.688V10.688C213.604 10.688 209.736 11.6216 206.29 13.5304L208.228 17.0296ZM217.843 14.688C221.338 14.688 224.414 15.4374 227.117 16.896L229.017 13.376C225.672 11.5706 221.932 10.688 217.843 10.688V14.688ZM227.15 16.9136C229.881 18.3216 232.027 20.358 233.614 23.0608L237.064 21.0352C235.099 17.69 232.397 15.1184 228.984 13.3584L227.15 16.9136ZM233.622 23.0729C235.178 25.681 236.003 28.8867 236.003 32.776H240.003C240.003 28.3133 239.052 24.367 237.056 21.0231L233.622 23.0729ZM236.003 32.776C236.003 33.1377 235.983 33.584 235.938 34.1219L239.924 34.4541C239.975 33.84 240.003 33.2783 240.003 32.776H236.003ZM235.939 34.1069C235.892 34.6295 235.844 35.1275 235.797 35.601L239.777 35.999C239.826 35.5125 239.874 35.0025 239.923 34.4691L235.939 34.1069ZM237.787 33.8H206.323V37.8H237.787V33.8ZM208.323 35.8V29.248H204.323V35.8H208.323ZM206.323 31.248H231.883V27.248H206.323V31.248ZM231.062 27.4242L226.742 29.3682L228.384 33.0158L232.704 31.0718L231.062 27.4242ZM229.563 31.192C229.563 28.903 229.098 26.8079 228.093 24.9743L224.585 26.8977C225.212 28.0401 225.563 29.449 225.563 31.192H229.563ZM228.093 24.9743C227.103 23.1693 225.713 21.7439 223.941 20.74L221.969 24.22C223.077 24.8481 223.943 25.7267 224.585 26.8977L228.093 24.9743ZM223.984 20.765C222.191 19.689 220.145 19.184 217.915 19.184V23.184C219.525 23.184 220.839 23.543 221.926 24.195L223.984 20.765ZM217.915 19.184C215.684 19.184 213.626 19.6894 211.799 20.7504L213.807 24.2096C214.956 23.5426 216.306 23.184 217.915 23.184V19.184ZM211.817 20.74C210.029 21.7533 208.638 23.2156 207.653 25.0697L211.185 26.9463C211.832 25.7284 212.697 24.8387 213.789 24.22L211.817 20.74ZM207.665 25.0463C206.656 26.8865 206.195 29.008 206.195 31.336H210.195C210.195 29.536 210.55 28.1055 211.173 26.9697L207.665 25.0463ZM206.195 31.336V33.064H210.195V31.336H206.195ZM206.195 33.064C206.195 35.4725 206.718 37.6885 207.817 39.6556L211.309 37.7044C210.584 36.4075 210.195 34.8795 210.195 33.064H206.195ZM207.853 39.7166C209.008 41.6233 210.607 43.1011 212.608 44.1306L214.438 40.5734C213.079 39.8749 212.038 38.9047 211.273 37.6434L207.853 39.7166ZM212.669 44.1605C214.713 45.1259 217.031 45.576 219.571 45.576V41.576C217.503 41.576 215.789 41.2101 214.377 40.5435L212.669 44.1605ZM219.571 45.576C221.832 45.576 223.898 45.2347 225.724 44.4929L224.218 40.7871C222.972 41.2933 221.438 41.576 219.571 41.576V45.576ZM225.704 44.5008C227.545 43.7755 229.205 42.6917 230.678 41.2726L227.904 38.3914C226.785 39.4683 225.565 40.2565 224.238 40.7792L225.704 44.5008ZM227.821 41.1879L233.797 47.6679L236.737 44.9561L230.761 38.4761L227.821 41.1879ZM233.766 44.9899C232.21 46.7569 230.239 48.145 227.811 49.142L229.331 52.842C232.279 51.631 234.772 49.8991 236.768 47.6341L233.766 44.9899ZM227.84 49.1305C225.429 50.0777 222.589 50.576 219.283 50.576V54.576C222.985 54.576 226.337 54.0183 229.302 52.8535L227.84 49.1305ZM277.233 14.56L276.31 16.3344L276.331 16.3454L276.353 16.3558L277.233 14.56ZM282.993 20.176L281.238 21.136L281.242 21.1431L281.246 21.1501L282.993 20.176ZM285.081 52V54H287.081V52H285.081ZM273.849 52H271.849V54H273.849V52ZM271.761 24.64L270.277 25.9806L270.288 25.9935L270.3 26.0063L271.761 24.64ZM261.177 23.56L262.096 25.3364L262.107 25.3306L262.118 25.3247L261.177 23.56ZM257.865 26.944L256.099 26.0057L256.087 26.0275L256.076 26.0496L257.865 26.944ZM256.713 52V54H258.713V52H256.713ZM245.481 52H243.481V54H245.481V52ZM245.481 13.264V11.264H243.481V13.264H245.481ZM256.209 13.264H258.209V11.264H256.209V13.264ZM256.209 23.992L254.511 25.0486L258.209 30.992V23.992H256.209ZM254.193 20.752L252.431 19.8057L251.883 20.8257L252.495 21.8086L254.193 20.752ZM260.169 14.776L261.115 16.538L260.169 14.776ZM269.025 14.688C271.82 14.688 274.232 15.2537 276.31 16.3344L278.156 12.7856C275.434 11.3703 272.374 10.688 269.025 10.688V14.688ZM276.353 16.3558C278.406 17.3623 280.031 18.9298 281.238 21.136L284.747 19.216C283.171 16.3342 280.956 14.1577 278.113 12.7642L276.353 16.3558ZM281.246 21.1501C282.421 23.257 283.081 26.1064 283.081 29.824H287.081C287.081 25.6696 286.349 22.087 284.74 19.2019L281.246 21.1501ZM283.081 29.824V52H287.081V29.824H283.081ZM285.081 50H273.849V54H285.081V50ZM275.849 52V31.552H271.849V52H275.849ZM275.849 31.552C275.849 28.1862 275.105 25.287 273.221 23.2737L270.3 26.0063C271.201 26.969 271.849 28.6778 271.849 31.552H275.849ZM273.245 23.2994C271.432 21.2925 268.914 20.408 266.001 20.408V24.408C268.08 24.408 269.401 25.0115 270.277 25.9806L273.245 23.2994ZM266.001 20.408C263.926 20.408 261.99 20.8594 260.236 21.7953L262.118 25.3247C263.243 24.7246 264.523 24.408 266.001 24.408V20.408ZM260.258 21.7836C258.466 22.7106 257.084 24.1518 256.099 26.0057L259.631 27.8823C260.278 26.6642 261.104 25.8494 262.096 25.3364L260.258 21.7836ZM256.076 26.0496C255.125 27.9512 254.713 30.2536 254.713 32.848H258.713C258.713 30.6424 259.069 29.0088 259.654 27.8384L256.076 26.0496ZM254.713 32.848V52H258.713V32.848H254.713ZM256.713 50H245.481V54H256.713V50ZM247.481 52V13.264H243.481V52H247.481ZM245.481 15.264H256.209V11.264H245.481V15.264ZM254.209 13.264V23.992H258.209V13.264H254.209ZM257.907 22.9354L255.891 19.6954L252.495 21.8086L254.511 25.0486L257.907 22.9354ZM255.955 21.6983C257.161 19.4524 258.869 17.7441 261.115 16.538L259.223 13.014C256.284 14.5919 254.009 16.8676 252.431 19.8057L255.955 21.6983ZM261.115 16.538C263.381 15.321 266.001 14.688 269.025 14.688V10.688C265.425 10.688 262.141 11.447 259.223 13.014L261.115 16.538ZM300.446 49.12L299.088 50.5885L299.096 50.5955L299.104 50.6024L300.446 49.12ZM296.63 4.696V2.696H294.63V4.696H296.63ZM307.862 4.696H309.862V2.696H307.862V4.696ZM309.158 42.352L307.706 43.7275L307.725 43.7471L307.744 43.7662L309.158 42.352ZM317.222 42.208L319.091 41.4946L318.132 38.9847L316.003 40.6228L317.222 42.208ZM320.246 50.128L321.402 51.76L322.668 50.8636L322.115 49.4146L320.246 50.128ZM316.07 52L316.541 53.9437L316.562 53.9388L316.582 53.9334L316.07 52ZM290.654 22.768H288.654V24.768H290.654V22.768ZM290.654 14.128V12.128H288.654V14.128H290.654ZM317.51 14.128H319.51V12.128H317.51V14.128ZM317.51 22.768V24.768H319.51V22.768H317.51ZM311.102 50.576C306.872 50.576 303.858 49.5116 301.789 47.6376L299.104 50.6024C302.122 53.3364 306.212 54.576 311.102 54.576V50.576ZM301.804 47.6515C299.792 45.7915 298.63 42.923 298.63 38.68H294.63C294.63 43.653 296.012 47.7445 299.088 50.5885L301.804 47.6515ZM298.63 38.68V4.696H294.63V38.68H298.63ZM296.63 6.696H307.862V2.696H296.63V6.696ZM305.862 4.696V38.536H309.862V4.696H305.862ZM305.862 38.536C305.862 40.5215 306.395 42.3431 307.706 43.7275L310.61 40.9765C310.194 40.5369 309.862 39.8145 309.862 38.536H305.862ZM307.744 43.7662C309.062 45.0842 310.791 45.648 312.686 45.648V41.648C311.605 41.648 310.982 41.3478 310.572 40.9378L307.744 43.7662ZM312.686 45.648C314.844 45.648 316.8 45.0562 318.442 43.7932L316.003 40.6228C315.149 41.2798 314.08 41.648 312.686 41.648V45.648ZM315.354 42.9214L318.378 50.8414L322.115 49.4146L319.091 41.4946L315.354 42.9214ZM319.09 48.4959C318.167 49.1497 317.003 49.6841 315.558 50.0666L316.582 53.9334C318.401 53.4519 320.021 52.7383 321.402 51.76L319.09 48.4959ZM315.599 50.0563C314.178 50.4007 312.681 50.576 311.102 50.576V54.576C312.979 54.576 314.794 54.3673 316.541 53.9437L315.599 50.0563ZM292.654 22.768V14.128H288.654V22.768H292.654ZM290.654 16.128H317.51V12.128H290.654V16.128ZM315.51 14.128V22.768H319.51V14.128H315.51ZM317.51 20.768H290.654V24.768H317.51V20.768Z" fill="white" mask="url(#path-1-outside-1_916_610)"/>
</svg>
