<svg width="151" height="64" viewBox="0 0 151 64" fill="none" xmlns="http://www.w3.org/2000/svg">
<mask id="path-1-outside-1_541_4" maskUnits="userSpaceOnUse" x="-2" y="-2" width="155" height="68" fill="black">
<rect fill="white" x="-2" y="-2" width="155" height="68"/>
<path d="M27.7824 52.864C23.8464 52.864 20.1744 52.216 16.7664 50.92C13.4064 49.624 10.4784 47.8 7.98244 45.448C5.53444 43.096 3.61444 40.336 2.22244 37.168C0.878438 34 0.206438 30.544 0.206438 26.8C0.206438 23.056 0.878438 19.6 2.22244 16.432C3.61444 13.264 5.55844 10.504 8.05444 8.152C10.5504 5.8 13.4784 3.976 16.8384 2.68C20.1984 1.384 23.8464 0.735999 27.7824 0.735999C31.7664 0.735999 35.4144 1.384 38.7264 2.68C42.0864 3.976 44.9904 5.8 47.4384 8.152C49.9344 10.456 51.8784 13.192 53.2704 16.36C54.6624 19.528 55.3584 23.008 55.3584 26.8C55.3584 30.544 54.6624 34.024 53.2704 37.24C51.8784 40.408 49.9344 43.168 47.4384 45.52C44.9904 47.824 42.0864 49.624 38.7264 50.92C35.4144 52.216 31.7664 52.864 27.7824 52.864ZM44.2704 63.592C42.3024 63.592 40.4304 63.376 38.6544 62.944C36.9264 62.512 35.1984 61.816 33.4704 60.856C31.7904 59.896 30.0144 58.6 28.1424 56.968C26.3184 55.336 24.3264 53.32 22.1664 50.92L34.4064 47.824C35.7024 49.6 36.9024 51.016 38.0064 52.072C39.1104 53.128 40.1664 53.872 41.1744 54.304C42.2304 54.736 43.3344 54.952 44.4864 54.952C47.5584 54.952 50.2944 53.704 52.6944 51.208L57.8784 57.4C54.4704 61.528 49.9344 63.592 44.2704 63.592ZM27.7824 42.928C30.0384 42.928 32.1024 42.544 33.9744 41.776C35.8944 41.008 37.5744 39.904 39.0144 38.464C40.4544 37.024 41.5584 35.32 42.3264 33.352C43.1424 31.336 43.5504 29.152 43.5504 26.8C43.5504 24.4 43.1424 22.216 42.3264 20.248C41.5584 18.28 40.4544 16.576 39.0144 15.136C37.5744 13.696 35.8944 12.592 33.9744 11.824C32.1024 11.056 30.0384 10.672 27.7824 10.672C25.5264 10.672 23.4384 11.056 21.5184 11.824C19.5984 12.592 17.9184 13.696 16.4784 15.136C15.0864 16.576 13.9824 18.28 13.1664 20.248C12.3984 22.216 12.0144 24.4 12.0144 26.8C12.0144 29.152 12.3984 31.336 13.1664 33.352C13.9824 35.32 15.0864 37.024 16.4784 38.464C17.9184 39.904 19.5984 41.008 21.5184 41.776C23.4384 42.544 25.5264 42.928 27.7824 42.928ZM79.6764 52.576C76.4604 52.576 73.5804 51.952 71.0364 50.704C68.5404 49.456 66.5964 47.56 65.2044 45.016C63.8124 42.424 63.1164 39.136 63.1164 35.152V13.264H74.3484V33.496C74.3484 36.712 75.0204 39.088 76.3644 40.624C77.7564 42.112 79.7004 42.856 82.1964 42.856C83.9244 42.856 85.4604 42.496 86.8044 41.776C88.1484 41.008 89.2044 39.856 89.9724 38.32C90.7404 36.736 91.1244 34.768 91.1244 32.416V13.264H102.356V52H91.7004V41.344L93.6444 44.44C92.3484 47.128 90.4284 49.168 87.8844 50.56C85.3884 51.904 82.6524 52.576 79.6764 52.576ZM131.986 52.576C127.57 52.576 123.682 51.712 120.322 49.984C117.01 48.256 114.442 45.904 112.618 42.928C110.794 39.904 109.882 36.472 109.882 32.632C109.882 28.744 110.77 25.312 112.546 22.336C114.37 19.312 116.842 16.96 119.962 15.28C123.082 13.552 126.61 12.688 130.546 12.688C134.338 12.688 137.746 13.504 140.77 15.136C143.842 16.72 146.266 19.024 148.042 22.048C149.818 25.024 150.706 28.6 150.706 32.776C150.706 33.208 150.682 33.712 150.634 34.288C150.586 34.816 150.538 35.32 150.49 35.8H119.026V29.248H144.586L140.266 31.192C140.266 29.176 139.858 27.424 139.042 25.936C138.226 24.448 137.098 23.296 135.658 22.48C134.218 21.616 132.538 21.184 130.618 21.184C128.698 21.184 126.994 21.616 125.506 22.48C124.066 23.296 122.938 24.472 122.122 26.008C121.306 27.496 120.898 29.272 120.898 31.336V33.064C120.898 35.176 121.354 37.048 122.266 38.68C123.226 40.264 124.546 41.488 126.226 42.352C127.954 43.168 129.97 43.576 132.274 43.576C134.338 43.576 136.138 43.264 137.674 42.64C139.258 42.016 140.698 41.08 141.994 39.832L147.97 46.312C146.194 48.328 143.962 49.888 141.274 50.992C138.586 52.048 135.49 52.576 131.986 52.576Z"/>
</mask>
<path d="M16.7664 50.92L16.0467 52.786L16.0555 52.7894L16.7664 50.92ZM7.98244 45.448L6.59679 46.8902L6.60378 46.8969L6.61084 46.9036L7.98244 45.448ZM2.22244 37.168L0.381274 37.9491L0.386261 37.9609L0.391399 37.9725L2.22244 37.168ZM2.22244 16.432L0.391399 15.6275L0.386262 15.6391L0.381274 15.6509L2.22244 16.432ZM16.8384 2.68L16.1187 0.813992L16.8384 2.68ZM38.7264 2.68L37.9976 4.5425L38.0067 4.546L38.7264 2.68ZM47.4384 8.152L46.0528 9.59421L46.0672 9.60805L46.0819 9.6216L47.4384 8.152ZM53.2704 16.36L51.4394 17.1645V17.1645L53.2704 16.36ZM53.2704 37.24L55.1015 38.0446L55.1059 38.0344L53.2704 37.24ZM47.4384 45.52L48.8092 46.9764L48.81 46.9756L47.4384 45.52ZM38.7264 50.92L38.0067 49.054L37.9976 49.0575L38.7264 50.92ZM38.6544 62.944L38.1694 64.8843L38.1817 64.8873L38.6544 62.944ZM33.4704 60.856L32.4782 62.5925L32.4886 62.5985L32.4992 62.6043L33.4704 60.856ZM28.1424 56.968L26.8088 58.4585L26.8185 58.4671L26.8282 58.4755L28.1424 56.968ZM22.1664 50.92L21.676 48.9811L18.4623 49.794L20.6798 52.2579L22.1664 50.92ZM34.4064 47.824L36.022 46.6451L35.2257 45.5538L33.916 45.8851L34.4064 47.824ZM38.0064 52.072L39.3889 50.6267L38.0064 52.072ZM41.1744 54.304L40.3866 56.1423L40.4018 56.1488L40.4172 56.1551L41.1744 54.304ZM52.6944 51.208L54.228 49.9241L52.7974 48.2154L51.2528 49.8218L52.6944 51.208ZM57.8784 57.4L59.4207 58.6733L60.4793 57.3911L59.412 56.1161L57.8784 57.4ZM33.9744 41.776L33.2317 39.919L33.2235 39.9223L33.2153 39.9257L33.9744 41.776ZM39.0144 38.464L37.6002 37.0498L39.0144 38.464ZM42.3264 33.352L40.4725 32.6016L40.4678 32.6132L40.4633 32.6249L42.3264 33.352ZM42.3264 20.248L40.4633 20.9751L40.4709 20.9946L40.479 21.014L42.3264 20.248ZM39.0144 15.136L37.6002 16.5502V16.5502L39.0144 15.136ZM33.9744 11.824L33.2153 13.6743L33.2235 13.6777L33.2317 13.681L33.9744 11.824ZM21.5184 11.824L20.7757 9.96704L21.5184 11.824ZM16.4784 15.136L15.0642 13.7218L15.0522 13.7338L15.0405 13.746L16.4784 15.136ZM13.1664 20.248L11.319 19.482L11.3109 19.5014L11.3033 19.5209L13.1664 20.248ZM13.1664 33.352L11.2975 34.064L11.3078 34.0912L11.319 34.118L13.1664 33.352ZM16.4784 38.464L15.0405 39.854L15.0522 39.8662L15.0642 39.8782L16.4784 38.464ZM21.5184 41.776L20.7757 43.633H20.7757L21.5184 41.776ZM27.7824 50.864C24.07 50.864 20.6408 50.2536 17.4773 49.0506L16.0555 52.7894C19.7081 54.1784 23.6229 54.864 27.7824 54.864V50.864ZM17.4862 49.054C14.3557 47.8465 11.652 46.1578 9.35404 43.9924L6.61084 46.9036C9.30484 49.4422 12.4572 51.4015 16.0467 52.786L17.4862 49.054ZM9.36809 44.0058C7.11255 41.8387 5.34226 39.2965 4.05348 36.3635L0.391399 37.9725C1.88662 41.3755 3.95633 44.3533 6.59679 46.8902L9.36809 44.0058ZM4.0636 36.3869C2.83333 33.487 2.20644 30.2994 2.20644 26.8H-1.79356C-1.79356 30.7886 -1.07646 34.513 0.381274 37.9491L4.0636 36.3869ZM2.20644 26.8C2.20644 23.3006 2.83333 20.113 4.0636 17.2131L0.381274 15.6509C-1.07646 19.087 -1.79356 22.8114 -1.79356 26.8H2.20644ZM4.05348 17.2365C5.33854 14.3119 7.1271 11.7739 9.42604 9.60758L6.68283 6.69642C3.98978 9.23411 1.89033 12.2161 0.391399 15.6275L4.05348 17.2365ZM9.42604 9.60758C11.724 7.44215 14.4277 5.75347 17.5582 4.546L16.1187 0.813992C12.5292 2.19852 9.37684 4.15784 6.68283 6.69642L9.42604 9.60758ZM17.5582 4.546C20.6681 3.34646 24.0696 2.736 27.7824 2.736V-1.264C23.6232 -1.264 19.7288 -0.578466 16.1187 0.813992L17.5582 4.546ZM27.7824 2.736C31.5469 2.736 34.9441 3.34764 37.9976 4.54248L39.4552 0.817509C35.8847 -0.579639 31.986 -1.264 27.7824 -1.264V2.736ZM38.0067 4.546C41.1341 5.75228 43.8079 7.43734 46.0528 9.59421L48.8241 6.70979C46.173 4.16266 43.0388 2.19972 39.4462 0.813992L38.0067 4.546ZM46.0819 9.6216C48.3718 11.7354 50.156 14.2437 51.4394 17.1645L55.1015 15.5555C53.6009 12.1403 51.4971 9.17662 48.795 6.68239L46.0819 9.6216ZM51.4394 17.1645C52.7097 20.0555 53.3584 23.2582 53.3584 26.8H57.3584C57.3584 22.7578 56.6152 19.0005 55.1015 15.5555L51.4394 17.1645ZM53.3584 26.8C53.3584 30.2897 52.7112 33.4972 51.435 36.4456L55.1059 38.0344C56.6137 34.5508 57.3584 30.7983 57.3584 26.8H53.3584ZM51.4394 36.4355C50.1543 39.3601 48.3658 41.8981 46.0668 44.0644L48.81 46.9756C51.5031 44.4379 53.6025 41.4559 55.1015 38.0445L51.4394 36.4355ZM46.0677 44.0636C43.8213 46.1779 41.1426 47.8444 38.0067 49.054L39.4462 52.786C43.0303 51.4036 46.1596 49.4701 48.8092 46.9764L46.0677 44.0636ZM37.9976 49.0575C34.9441 50.2524 31.5469 50.864 27.7824 50.864V54.864C31.986 54.864 35.8847 54.1796 39.4552 52.7825L37.9976 49.0575ZM44.2704 61.592C42.4496 61.592 40.737 61.3923 39.1271 61.0007L38.1817 64.8873C40.1238 65.3597 42.1553 65.592 44.2704 65.592V61.592ZM39.1395 61.0037C37.5987 60.6185 36.0333 59.9919 34.4417 59.1077L32.4992 62.6043C34.3636 63.6401 36.2542 64.4055 38.1694 64.8843L39.1395 61.0037ZM34.4627 59.1195C32.9242 58.2404 31.2556 57.0287 29.4567 55.4605L26.8282 58.4755C28.7732 60.1713 30.6566 61.5516 32.4782 62.5925L34.4627 59.1195ZM29.476 55.4775C27.7195 53.9059 25.779 51.9443 23.653 49.5821L20.6798 52.2579C22.8738 54.6957 24.9173 56.7661 26.8088 58.4585L29.476 55.4775ZM22.6569 52.8589L34.8969 49.7629L33.916 45.8851L21.676 48.9811L22.6569 52.8589ZM32.7909 49.0029C34.129 50.8367 35.4064 52.3526 36.624 53.5173L39.3889 50.6267C38.3985 49.6794 37.2758 48.3633 36.022 46.6451L32.7909 49.0029ZM36.624 53.5173C37.8381 54.6786 39.0905 55.5868 40.3866 56.1423L41.9623 52.4657C41.2424 52.1572 40.3828 51.5774 39.3889 50.6267L36.624 53.5173ZM40.4172 56.1551C41.7159 56.6864 43.0773 56.952 44.4864 56.952V52.952C43.5916 52.952 42.745 52.7856 41.9317 52.4529L40.4172 56.1551ZM44.4864 56.952C48.174 56.952 51.4117 55.4276 54.1361 52.5942L51.2528 49.8218C49.1772 51.9804 46.9429 52.952 44.4864 52.952V56.952ZM51.1609 52.4919L56.3449 58.6839L59.412 56.1161L54.228 49.9241L51.1609 52.4919ZM56.3361 56.1267C53.3327 59.7647 49.3774 61.592 44.2704 61.592V65.592C50.4915 65.592 55.6082 63.2913 59.4207 58.6733L56.3361 56.1267ZM27.7824 44.928C30.2689 44.928 32.5945 44.5039 34.7336 43.6263L33.2153 39.9257C31.6104 40.5841 29.808 40.928 27.7824 40.928V44.928ZM34.7172 43.633C36.8847 42.766 38.7941 41.5127 40.4287 39.8782L37.6002 37.0498C36.3548 38.2952 34.9042 39.25 33.2317 39.919L34.7172 43.633ZM40.4286 39.8782C42.0715 38.2353 43.3249 36.2949 44.1896 34.0791L40.4633 32.6249C39.792 34.3451 38.8373 35.8127 37.6002 37.0498L40.4286 39.8782ZM44.1803 34.1024C45.1004 31.8292 45.5504 29.3881 45.5504 26.8H41.5504C41.5504 28.9159 41.1844 30.8428 40.4725 32.6016L44.1803 34.1024ZM45.5504 26.8C45.5504 24.1703 45.1026 21.7217 44.1739 19.482L40.479 21.014C41.1823 22.7103 41.5504 24.6297 41.5504 26.8H45.5504ZM44.1896 19.5209C43.3249 17.3051 42.0715 15.3647 40.4286 13.7218L37.6002 16.5502C38.8373 17.7873 39.792 19.2549 40.4633 20.9751L44.1896 19.5209ZM40.4287 13.7218C38.7941 12.0872 36.8847 10.834 34.7172 9.96704L33.2317 13.681C34.9042 14.35 36.3548 15.3047 37.6002 16.5502L40.4287 13.7218ZM34.7336 9.97366C32.5945 9.09608 30.2689 8.672 27.7824 8.672V12.672C29.808 12.672 31.6104 13.0159 33.2153 13.6743L34.7336 9.97366ZM27.7824 8.672C25.2952 8.672 22.9526 9.09628 20.7757 9.96704L22.2612 13.681C23.9243 13.0157 25.7576 12.672 27.7824 12.672V8.672ZM20.7757 9.96704C18.6082 10.834 16.6988 12.0872 15.0642 13.7218L17.8927 16.5502C19.1381 15.3047 20.5887 14.35 22.2612 13.681L20.7757 9.96704ZM15.0405 13.746C13.4631 15.3777 12.2249 17.297 11.319 19.482L15.0139 21.014C15.74 19.263 16.7098 17.7743 17.9164 16.526L15.0405 13.746ZM11.3033 19.5209C10.4334 21.75 10.0144 24.1848 10.0144 26.8H14.0144C14.0144 24.6152 14.3635 22.682 15.0296 20.9751L11.3033 19.5209ZM10.0144 26.8C10.0144 29.3733 10.4353 31.8009 11.2975 34.064L15.0354 32.64C14.3615 30.8711 14.0144 28.9307 14.0144 26.8H10.0144ZM11.319 34.118C12.2249 36.303 13.4631 38.2223 15.0405 39.854L17.9164 37.074C16.7098 35.8257 15.74 34.337 15.0139 32.586L11.319 34.118ZM15.0642 39.8782C16.6988 41.5127 18.6082 42.766 20.7757 43.633L22.2612 39.919C20.5887 39.25 19.1381 38.2952 17.8927 37.0498L15.0642 39.8782ZM20.7757 43.633C22.9526 44.5037 25.2952 44.928 27.7824 44.928V40.928C25.7576 40.928 23.9243 40.5843 22.2612 39.919L20.7757 43.633ZM71.0364 50.704L70.142 52.4929L70.1488 52.4962L70.1556 52.4996L71.0364 50.704ZM65.2044 45.016L63.4425 45.9623L63.4462 45.9692L63.4499 45.976L65.2044 45.016ZM63.1164 13.264V11.264H61.1164V13.264H63.1164ZM74.3484 13.264H76.3484V11.264H74.3484V13.264ZM76.3644 40.624L74.8593 41.941L74.8812 41.966L74.9039 41.9903L76.3644 40.624ZM86.8044 41.776L87.7489 43.539L87.773 43.5261L87.7967 43.5125L86.8044 41.776ZM89.9724 38.32L91.7613 39.2144L91.7667 39.2035L91.7721 39.1925L89.9724 38.32ZM91.1244 13.264V11.264H89.1244V13.264H91.1244ZM102.356 13.264H104.356V11.264H102.356V13.264ZM102.356 52V54H104.356V52H102.356ZM91.7004 52H89.7004V54H91.7004V52ZM91.7004 41.344L93.3942 40.2805L89.7004 34.3978V41.344H91.7004ZM93.6444 44.44L95.446 45.3086L95.9261 44.3127L95.3382 43.3765L93.6444 44.44ZM87.8844 50.56L88.8327 52.321L88.8445 52.3145L87.8844 50.56ZM79.6764 50.576C76.7244 50.576 74.1522 50.0048 71.9173 48.9084L70.1556 52.4996C73.0087 53.8992 76.1965 54.576 79.6764 54.576V50.576ZM71.9309 48.9151C69.8142 47.8568 68.1635 46.2574 66.959 44.056L63.4499 45.976C65.0294 48.8626 67.2667 51.0552 70.142 52.4929L71.9309 48.9151ZM66.9664 44.0697C65.7762 41.8534 65.1164 38.9176 65.1164 35.152H61.1164C61.1164 39.3544 61.8487 42.9946 63.4425 45.9623L66.9664 44.0697ZM65.1164 35.152V13.264H61.1164V35.152H65.1164ZM63.1164 15.264H74.3484V11.264H63.1164V15.264ZM72.3484 13.264V33.496H76.3484V13.264H72.3484ZM72.3484 33.496C72.3484 36.9314 73.0568 39.881 74.8593 41.941L77.8696 39.307C76.9841 38.295 76.3484 36.4925 76.3484 33.496H72.3484ZM74.9039 41.9903C76.7567 43.9709 79.2807 44.856 82.1964 44.856V40.856C80.1202 40.856 78.7562 40.2531 77.825 39.2577L74.9039 41.9903ZM82.1964 44.856C84.2095 44.856 86.0776 44.4343 87.7489 43.539L85.86 40.013C84.8433 40.5577 83.6394 40.856 82.1964 40.856V44.856ZM87.7967 43.5125C89.5205 42.5274 90.8368 41.0634 91.7613 39.2144L88.1836 37.4256C87.5721 38.6486 86.7763 39.4886 85.8122 40.0395L87.7967 43.5125ZM91.7721 39.1925C92.7085 37.2611 93.1244 34.9734 93.1244 32.416H89.1244C89.1244 34.5626 88.7724 36.2109 88.1728 37.4475L91.7721 39.1925ZM93.1244 32.416V13.264H89.1244V32.416H93.1244ZM91.1244 15.264H102.356V11.264H91.1244V15.264ZM100.356 13.264V52H104.356V13.264H100.356ZM102.356 50H91.7004V54H102.356V50ZM93.7004 52V41.344H89.7004V52H93.7004ZM90.0067 42.4075L91.9507 45.5035L95.3382 43.3765L93.3942 40.2805L90.0067 42.4075ZM91.8429 43.5714C90.7225 45.8952 89.0912 47.6199 86.9244 48.8055L88.8445 52.3145C91.7657 50.7161 93.9744 48.3608 95.446 45.3086L91.8429 43.5714ZM86.9362 48.7991C84.7463 49.9783 82.3385 50.576 79.6764 50.576V54.576C82.9664 54.576 86.0306 53.8298 88.8326 52.3209L86.9362 48.7991ZM120.322 49.984L119.397 51.7572L119.407 51.7626L120.322 49.984ZM112.618 42.928L110.906 43.961L110.909 43.9671L110.913 43.9731L112.618 42.928ZM112.546 22.336L110.834 21.303L110.829 21.3111L112.546 22.336ZM119.962 15.28L120.91 17.0409L120.921 17.0353L120.931 17.0296L119.962 15.28ZM140.77 15.136L139.82 16.896L139.837 16.905L139.854 16.9136L140.77 15.136ZM148.042 22.048L146.318 23.0609L146.325 23.0729L148.042 22.048ZM150.634 34.288L152.626 34.4691L152.627 34.4616L152.627 34.4541L150.634 34.288ZM150.49 35.8V37.8H152.3L152.48 35.999L150.49 35.8ZM119.026 35.8H117.026V37.8H119.026V35.8ZM119.026 29.248V27.248H117.026V29.248H119.026ZM144.586 29.248L145.407 31.0718L144.586 27.248V29.248ZM140.266 31.192H138.266V34.2852L141.087 33.0158L140.266 31.192ZM139.042 25.936L137.288 26.8977V26.8977L139.042 25.936ZM135.658 22.48L134.629 24.195L134.65 24.2078L134.672 24.22L135.658 22.48ZM125.506 22.48L126.492 24.22L126.501 24.2149L126.51 24.2096L125.506 22.48ZM122.122 26.008L123.876 26.9697L123.882 26.958L123.888 26.9463L122.122 26.008ZM122.266 38.68L120.52 39.6556L120.537 39.6864L120.556 39.7166L122.266 38.68ZM126.226 42.352L125.311 44.1306L125.342 44.146L125.372 44.1605L126.226 42.352ZM137.674 42.64L136.941 40.7792L136.931 40.7831L136.921 40.7871L137.674 42.64ZM141.994 39.832L143.464 38.4761L142.079 36.9738L140.607 38.3914L141.994 39.832ZM147.97 46.312L149.471 47.6341L150.663 46.2813L149.44 44.9561L147.97 46.312ZM141.274 50.992L142.005 52.8535L142.02 52.8479L142.034 52.842L141.274 50.992ZM131.986 50.576C127.835 50.576 124.27 49.7652 121.237 48.2054L119.407 51.7626C123.095 53.6588 127.306 54.576 131.986 54.576V50.576ZM121.247 48.2108C118.233 46.6382 115.945 44.5283 114.323 41.8829L110.913 43.9731C112.94 47.2797 115.787 49.8738 119.397 51.7572L121.247 48.2108ZM114.331 41.895C112.711 39.2098 111.882 36.1408 111.882 32.632H107.882C107.882 36.8032 108.877 40.5982 110.906 43.961L114.331 41.895ZM111.882 32.632C111.882 29.0598 112.694 25.9905 114.264 23.3609L110.829 21.3111C108.846 24.6335 107.882 28.4282 107.882 32.632H111.882ZM114.259 23.369C115.897 20.6528 118.105 18.5517 120.91 17.0409L119.014 13.5191C115.58 15.3683 112.843 17.9712 110.834 21.303L114.259 23.369ZM120.931 17.0296C123.725 15.4824 126.913 14.688 130.546 14.688V10.688C126.307 10.688 122.44 11.6216 118.993 13.5304L120.931 17.0296ZM130.546 14.688C134.042 14.688 137.117 15.4374 139.82 16.896L141.72 13.376C138.375 11.5706 134.635 10.688 130.546 10.688V14.688ZM139.854 16.9136C142.584 18.3216 144.73 20.358 146.318 23.0608L149.767 21.0352C147.802 17.69 145.1 15.1184 141.687 13.3584L139.854 16.9136ZM146.325 23.0729C147.881 25.681 148.706 28.8867 148.706 32.776H152.706C152.706 28.3133 151.755 24.367 149.76 21.0231L146.325 23.0729ZM148.706 32.776C148.706 33.1377 148.686 33.584 148.641 34.1219L152.627 34.4541C152.678 33.84 152.706 33.2783 152.706 32.776H148.706ZM148.642 34.1069C148.595 34.6295 148.547 35.1275 148.5 35.601L152.48 35.999C152.529 35.5125 152.577 35.0025 152.626 34.4691L148.642 34.1069ZM150.49 33.8H119.026V37.8H150.49V33.8ZM121.026 35.8V29.248H117.026V35.8H121.026ZM119.026 31.248H144.586V27.248H119.026V31.248ZM143.765 27.4242L139.445 29.3682L141.087 33.0158L145.407 31.0718L143.765 27.4242ZM142.266 31.192C142.266 28.903 141.801 26.8079 140.796 24.9743L137.288 26.8977C137.915 28.0401 138.266 29.449 138.266 31.192H142.266ZM140.796 24.9743C139.806 23.1693 138.416 21.7439 136.644 20.74L134.672 24.22C135.78 24.8481 136.646 25.7267 137.288 26.8977L140.796 24.9743ZM136.687 20.765C134.894 19.689 132.848 19.184 130.618 19.184V23.184C132.229 23.184 133.542 23.543 134.629 24.195L136.687 20.765ZM130.618 19.184C128.387 19.184 126.329 19.6894 124.502 20.7504L126.51 24.2096C127.659 23.5426 129.009 23.184 130.618 23.184V19.184ZM124.52 20.74C122.732 21.7533 121.341 23.2156 120.356 25.0697L123.888 26.9463C124.535 25.7284 125.4 24.8387 126.492 24.22L124.52 20.74ZM120.368 25.0463C119.359 26.8865 118.898 29.008 118.898 31.336H122.898C122.898 29.536 123.253 28.1055 123.876 26.9697L120.368 25.0463ZM118.898 31.336V33.064H122.898V31.336H118.898ZM118.898 33.064C118.898 35.4725 119.421 37.6885 120.52 39.6556L124.012 37.7044C123.287 36.4075 122.898 34.8795 122.898 33.064H118.898ZM120.556 39.7166C121.711 41.6233 123.31 43.1011 125.311 44.1306L127.141 40.5734C125.783 39.8749 124.741 38.9047 123.977 37.6434L120.556 39.7166ZM125.372 44.1605C127.416 45.1259 129.735 45.576 132.274 45.576V41.576C130.206 41.576 128.492 41.2101 127.08 40.5435L125.372 44.1605ZM132.274 45.576C134.535 45.576 136.601 45.2347 138.427 44.4929L136.921 40.7871C135.675 41.2933 134.141 41.576 132.274 41.576V45.576ZM138.407 44.5008C140.248 43.7755 141.908 42.6917 143.381 41.2726L140.607 38.3914C139.488 39.4683 138.268 40.2565 136.941 40.7792L138.407 44.5008ZM140.524 41.1879L146.5 47.6679L149.44 44.9561L143.464 38.4761L140.524 41.1879ZM146.469 44.9899C144.913 46.7569 142.942 48.145 140.514 49.142L142.034 52.842C144.983 51.631 147.475 49.8991 149.471 47.6341L146.469 44.9899ZM140.543 49.1305C138.132 50.0777 135.292 50.576 131.986 50.576V54.576C135.689 54.576 139.041 54.0183 142.005 52.8535L140.543 49.1305Z" fill="white" mask="url(#path-1-outside-1_541_4)"/>
</svg>
