<svg width="800" height="800" viewBox="0 0 800 800" fill="none" xmlns="http://www.w3.org/2000/svg">
<g clip-path="url(#clip0_976_377)">
<path d="M800 400C800 506.087 757.857 607.828 682.843 682.843C607.828 757.857 506.087 800 400 800C293.913 800 192.172 757.857 117.157 682.843C42.1427 607.828 0 506.087 0 400C0 293.913 42.1427 192.172 117.157 117.157C192.172 42.1427 293.913 0 400 0C506.087 0 607.828 42.1427 682.843 117.157C757.857 192.172 800 293.913 800 400ZM414.35 295.3C375.45 311.5 297.65 345 181.05 395.8C162.15 403.3 152.2 410.7 151.3 417.9C149.8 430.05 165.05 434.85 185.8 441.4L194.55 444.15C214.95 450.8 242.45 458.55 256.7 458.85C269.7 459.15 284.15 453.85 300.1 442.85C409.05 369.3 465.3 332.15 468.8 331.35C471.3 330.75 474.8 330.05 477.1 332.15C479.45 334.2 479.2 338.15 478.95 339.2C477.45 345.65 417.6 401.25 386.65 430.05C377 439.05 370.15 445.4 368.75 446.85C365.667 450.001 362.533 453.101 359.35 456.15C340.35 474.45 326.15 488.15 360.1 510.55C376.45 521.35 389.55 530.2 402.6 539.1C416.8 548.8 431 558.45 449.4 570.55C454.05 573.55 458.55 576.8 462.9 579.9C479.45 591.7 494.4 602.3 512.75 600.6C523.45 599.6 534.5 589.6 540.1 559.6C553.35 488.75 579.4 335.3 585.4 272.05C585.766 266.792 585.548 261.51 584.75 256.3C584.279 252.096 582.245 248.223 579.05 245.45C574.5 242.309 569.077 240.682 563.55 240.8C548.55 241.05 525.4 249.1 414.35 295.3Z" fill="white"/>
</g>
<defs>
<clipPath id="clip0_976_377">
<rect width="800" height="800" fill="white"/>
</clipPath>
</defs>
</svg>
