<svg width="768" height="768" viewBox="0 0 768 768" fill="none" xmlns="http://www.w3.org/2000/svg">
<path d="M448.12 377.32L358.28 335.4C350.44 331.76 344 335.84 344 344.52V423.48C344 432.16 350.44 436.24 358.28 432.6L448.08 390.68C455.96 387 455.96 381 448.12 377.32ZM384 0C171.92 0 0 171.92 0 384C0 596.08 171.92 768 384 768C596.08 768 768 596.08 768 384C768 171.92 596.08 0 384 0ZM384 540C187.44 540 184 522.28 184 384C184 245.72 187.44 228 384 228C580.56 228 584 245.72 584 384C584 522.28 580.56 540 384 540Z" fill="white"/>
</svg>
