<svg width="768" height="768" viewBox="0 0 768 768" fill="none" xmlns="http://www.w3.org/2000/svg">
<path d="M384 0C171.92 0 0 171.92 0 384C0 596.08 171.92 768 384 768C596.08 768 768 596.08 768 384C768 171.92 596.08 0 384 0ZM531.68 433.24C531.68 433.24 565.64 466.76 574 482.32C574.24 482.64 574.36 482.96 574.44 483.12C577.84 488.84 578.64 493.28 576.96 496.6C574.16 502.12 564.56 504.84 561.28 505.08H501.28C497.12 505.08 488.4 504 477.84 496.72C469.72 491.04 461.72 481.72 453.92 472.64C442.28 459.12 432.2 447.44 422.04 447.44C420.75 447.438 419.467 447.64 418.24 448.04C410.56 450.52 400.72 461.48 400.72 490.68C400.72 499.8 393.52 505.04 388.44 505.04H360.96C351.6 505.04 302.84 501.76 259.64 456.2C206.76 400.4 159.16 288.48 158.76 287.44C155.76 280.2 161.96 276.32 168.72 276.32H229.32C237.4 276.32 240.04 281.24 241.88 285.6C244.04 290.68 251.96 310.88 264.96 333.6C286.04 370.64 298.96 385.68 309.32 385.68C311.263 385.657 313.171 385.163 314.88 384.24C328.4 376.72 325.88 328.52 325.28 318.52C325.28 316.64 325.24 296.96 318.32 287.52C313.36 280.68 304.92 278.08 299.8 277.12C301.872 274.26 304.603 271.942 307.76 270.36C317.04 265.72 333.76 265.04 350.36 265.04H359.6C377.6 265.28 382.24 266.44 388.76 268.08C401.96 271.24 402.24 279.76 401.08 308.92C400.72 317.2 400.36 326.56 400.36 337.6C400.36 340 400.24 342.56 400.24 345.28C399.84 360.12 399.36 376.96 409.84 383.88C411.207 384.737 412.787 385.194 414.4 385.2C418.04 385.2 429 385.2 458.68 334.28C467.833 317.89 475.788 300.859 482.48 283.32C483.08 282.28 484.84 279.08 486.92 277.84C488.455 277.057 490.157 276.659 491.88 276.68H563.12C570.88 276.68 576.2 277.84 577.2 280.84C578.96 285.6 576.88 300.12 544.36 344.16L529.84 363.32C500.36 401.96 500.36 403.92 531.68 433.24Z" fill="white"/>
</svg>
