<svg width="700" height="584" viewBox="0 0 700 584" fill="none" xmlns="http://www.w3.org/2000/svg">
<path d="M640.322 5.81634C640.322 5.81634 705.077 -19.4337 699.68 41.8878C697.882 67.1382 681.693 155.513 669.102 251.103L625.932 534.265C625.932 534.265 622.335 575.746 589.957 582.961C557.578 590.175 509.013 557.711 500.018 550.496C492.823 545.086 365.113 463.925 320.143 424.246C307.552 413.425 293.162 391.781 321.942 366.531L510.812 186.175C532.397 164.532 553.982 114.031 464.043 175.353L212.218 346.693C212.218 346.693 183.438 364.728 129.477 348.497L12.557 312.425C12.557 312.425 -30.6132 285.371 43.1358 258.316C223.012 173.548 444.258 86.9765 640.322 5.81634Z" fill="white"/>
</svg>
