<svg width="20" height="20" viewBox="0 0 20 20" fill="none" xmlns="http://www.w3.org/2000/svg">
<path d="M0 10C0 4.47715 4.47715 0 10 0V0C15.5228 0 20 4.47715 20 10V10C20 15.5228 15.5228 20 10 20V20C4.47715 20 0 15.5228 0 10V10Z" fill="#B4A6F9"/>
<path fill-rule="evenodd" clip-rule="evenodd" d="M9.99769 3.5C8.37288 3.50084 6.80136 4.07632 5.56411 5.12352C4.32687 6.17072 3.50459 7.62137 3.2443 9.21607C2.98402 10.8108 3.3027 12.4455 4.14337 13.828C4.98403 15.2106 6.29187 16.2507 7.83301 16.7624C8.17301 16.8255 8.30108 16.6148 8.30108 16.4356C8.30108 16.2564 8.29428 15.7369 8.29201 15.169C6.388 15.5803 5.98567 14.3655 5.98567 14.3655C5.67513 13.5767 5.22633 13.3693 5.22633 13.3693C4.60526 12.9479 5.2728 12.9557 5.2728 12.9557C5.96074 13.0042 6.32227 13.6578 6.32227 13.6578C6.93201 14.6979 7.92367 14.397 8.31354 14.2212C8.37474 13.7806 8.55268 13.4809 8.74875 13.3107C7.22781 13.1394 5.6298 12.5557 5.6298 9.94807C5.62037 9.2718 5.87276 8.6178 6.33474 8.12138C6.26447 7.9501 6.02987 7.25818 6.4016 6.31836C6.4016 6.31836 6.97621 6.1358 8.28408 7.0159C9.40589 6.71087 10.5895 6.71087 11.7113 7.0159C13.018 6.1358 13.5915 6.31836 13.5915 6.31836C13.9644 7.25593 13.7298 7.94784 13.6595 8.12138C14.1229 8.61788 14.3759 9.27302 14.3656 9.95033C14.3656 12.5636 12.7642 13.1394 11.241 13.3073C11.4858 13.5192 11.7045 13.9328 11.7045 14.5683C11.7045 15.4789 11.6966 16.2113 11.6966 16.4356C11.6966 16.617 11.8201 16.8289 12.1669 16.7624C13.7082 16.2506 15.0162 15.2103 15.8568 13.8276C16.6975 12.4448 17.016 10.8098 16.7554 9.21496C16.4948 7.62011 15.6721 6.16945 14.4345 5.12243C13.1968 4.0754 11.6249 3.50031 9.99995 3.5H9.99769Z" fill="white"/>
<path d="M5.74524 13.2715C5.7305 13.3053 5.6761 13.3155 5.6319 13.2918C5.5877 13.2681 5.55484 13.2242 5.5707 13.1892C5.58657 13.1543 5.63984 13.1453 5.68404 13.169C5.72824 13.1926 5.76224 13.2377 5.74524 13.2715Z" fill="white"/>
<path d="M6.02286 13.5791C5.99939 13.5909 5.97254 13.5941 5.9469 13.5884C5.92126 13.5826 5.89844 13.5682 5.88233 13.5475C5.83813 13.5002 5.82905 13.4349 5.86305 13.4056C5.89705 13.3763 5.95826 13.3898 6.00246 13.4371C6.04666 13.4844 6.05686 13.5498 6.02286 13.5791Z" fill="white"/>
<path d="M6.29267 13.9697C6.25074 13.999 6.17933 13.9697 6.13966 13.9111C6.1287 13.9006 6.11997 13.888 6.11401 13.874C6.10806 13.8601 6.10498 13.8451 6.10498 13.83C6.10498 13.8148 6.10806 13.7998 6.11401 13.7859C6.11997 13.7719 6.1287 13.7593 6.13966 13.7488C6.1816 13.7207 6.253 13.7488 6.29267 13.8063C6.33234 13.8638 6.33347 13.9404 6.29267 13.9697V13.9697Z" fill="white"/>
<path d="M6.65877 14.3488C6.62137 14.3905 6.54544 14.3792 6.4831 14.3228C6.42077 14.2665 6.40603 14.1899 6.44343 14.1493C6.48083 14.1087 6.55677 14.12 6.62137 14.1752C6.68597 14.2304 6.69843 14.3082 6.65877 14.3488V14.3488Z" fill="white"/>
<path d="M7.17214 14.5693C7.15514 14.6223 7.07807 14.6459 7.001 14.6234C6.92393 14.6009 6.87293 14.5377 6.88767 14.4837C6.9024 14.4296 6.9806 14.4048 7.0588 14.4296C7.137 14.4544 7.18687 14.5141 7.17214 14.5693Z" fill="white"/>
<path d="M7.73201 14.608C7.73201 14.6632 7.66854 14.7105 7.58694 14.7117C7.50534 14.7128 7.43848 14.6677 7.43848 14.6125C7.43848 14.5573 7.50194 14.5099 7.58354 14.5088C7.66514 14.5077 7.73201 14.5516 7.73201 14.608Z" fill="white"/>
<path d="M8.25336 14.5212C8.26356 14.5764 8.20689 14.6338 8.12529 14.6474C8.04369 14.6609 7.97229 14.6282 7.96209 14.5741C7.95189 14.52 8.01082 14.4614 8.09015 14.4468C8.16949 14.4321 8.24316 14.4659 8.25336 14.5212Z" fill="white"/>
</svg>
