<svg width="71" height="71" viewBox="0 0 71 71" fill="none" xmlns="http://www.w3.org/2000/svg">
<path d="M0.5 35.4985C0.5 16.1686 16.17 0.498535 35.5 0.498535C54.83 0.498535 70.5 16.1686 70.5 35.4985C70.5 54.8285 54.83 70.4985 35.5 70.4985C16.17 70.4985 0.5 54.8285 0.5 35.4985Z" fill="#B4A6F9"/>
<path fill-rule="evenodd" clip-rule="evenodd" d="M35.4917 12.7485C29.8049 12.7515 24.3046 14.7656 19.9742 18.4309C15.6439 22.0961 12.7659 27.1733 11.8549 32.7548C10.9439 38.3362 12.0593 44.0579 15.0016 48.8967C17.9439 53.7355 22.5213 57.3759 27.9153 59.1669C29.1054 59.3878 29.5536 58.6502 29.5536 58.0231C29.5536 57.396 29.5298 55.5777 29.5218 53.5899C22.8578 55.0295 21.4497 50.7777 21.4497 50.7777C20.3628 48.0169 18.792 47.2911 18.792 47.2911C16.6182 45.816 18.9546 45.8436 18.9546 45.8436C21.3624 46.0132 22.6278 48.3008 22.6278 48.3008C24.7619 51.9413 28.2327 50.8882 29.5972 50.2729C29.8114 48.7307 30.4342 47.6816 31.1204 47.086C25.7971 46.4865 20.2041 44.4435 20.2041 35.3168C20.1711 32.9498 21.0545 30.6608 22.6714 28.9234C22.4255 28.3239 21.6044 25.9022 22.9054 22.6128C22.9054 22.6128 24.9165 21.9738 29.4941 25.0542C33.4204 23.9866 37.563 23.9866 41.4893 25.0542C46.0629 21.9738 48.0701 22.6128 48.0701 22.6128C49.3751 25.8943 48.554 28.316 48.3081 28.9234C49.9301 30.6611 50.8153 32.9541 50.7793 35.3247C50.7793 44.4711 45.1744 46.4865 39.8432 47.0742C40.7 47.8157 41.4655 49.2632 41.4655 51.4877C41.4655 54.6745 41.4378 57.2382 41.4378 58.0231C41.4378 58.6581 41.8701 59.3996 43.0839 59.1669C48.4786 57.3756 53.0564 53.7346 55.9987 48.895C58.941 44.0554 60.0558 38.3329 59.1438 32.7509C58.2317 27.1689 55.3523 22.0916 51.0205 18.427C46.6888 14.7624 41.1871 12.7496 35.4996 12.7485H35.4917Z" fill="white"/>
<path d="M20.6082 46.9481C20.5566 47.0664 20.3662 47.1019 20.2115 47.0191C20.0568 46.9362 19.9418 46.7824 19.9973 46.6601C20.0529 46.5379 20.2393 46.5063 20.394 46.5891C20.5487 46.672 20.6677 46.8297 20.6082 46.9481Z" fill="white"/>
<path d="M21.5798 48.0246C21.4977 48.0658 21.4037 48.0773 21.314 48.0571C21.2242 48.037 21.1443 47.9865 21.088 47.9142C20.9333 47.7485 20.9015 47.5198 21.0205 47.4172C21.1395 47.3147 21.3537 47.362 21.5084 47.5277C21.6631 47.6933 21.6988 47.9221 21.5798 48.0246Z" fill="white"/>
<path d="M22.5242 49.3932C22.3775 49.4957 22.1275 49.3932 21.9887 49.1881C21.9503 49.1513 21.9198 49.1072 21.8989 49.0584C21.8781 49.0096 21.8673 48.9571 21.8673 48.9041C21.8673 48.8511 21.8781 48.7986 21.8989 48.7498C21.9198 48.7011 21.9503 48.6569 21.9887 48.6202C22.1355 48.5215 22.3854 48.6201 22.5242 48.8213C22.6631 49.0224 22.667 49.2906 22.5242 49.3932Z" fill="white"/>
<path d="M23.8054 50.7187C23.6745 50.8647 23.4088 50.8252 23.1906 50.628C22.9724 50.4308 22.9209 50.1626 23.0518 50.0206C23.1827 49.8786 23.4484 49.9181 23.6745 50.1113C23.9006 50.3046 23.9443 50.5767 23.8054 50.7187Z" fill="white"/>
<path d="M25.6022 51.4916C25.5427 51.6769 25.2729 51.7598 25.0032 51.6809C24.7335 51.602 24.555 51.3811 24.6065 51.1918C24.6581 51.0025 24.9318 50.9157 25.2055 51.0025C25.4792 51.0893 25.6537 51.2983 25.6022 51.4916Z" fill="white"/>
<path d="M27.5619 51.6255C27.5619 51.8187 27.3398 51.9844 27.0542 51.9883C26.7686 51.9923 26.5345 51.8345 26.5345 51.6413C26.5345 51.448 26.7567 51.2823 27.0423 51.2784C27.3279 51.2745 27.5619 51.4283 27.5619 51.6255Z" fill="white"/>
<path d="M29.3865 51.3221C29.4222 51.5153 29.2239 51.7165 28.9383 51.7638C28.6527 51.8112 28.4028 51.6968 28.3671 51.5075C28.3314 51.3181 28.5376 51.1131 28.8153 51.0618C29.093 51.0105 29.3508 51.1288 29.3865 51.3221Z" fill="white"/>
</svg>
