<svg width="20" height="20" viewBox="0 0 20 20" fill="none" xmlns="http://www.w3.org/2000/svg">
<path d="M0 10C0 4.47715 4.47715 0 10 0C15.5228 0 20 4.47715 20 10C20 15.5228 15.5228 20 10 20C4.47715 20 0 15.5228 0 10Z" fill="#B4A6F9"/>
<path fill-rule="evenodd" clip-rule="evenodd" d="M16.1699 10.1479C16.1699 9.687 16.1286 9.24381 16.0517 8.81836H9.92993V11.3327H13.4281C13.2774 12.1452 12.8195 12.8336 12.1311 13.2945V14.9254H14.2317C15.4608 13.7938 16.1699 12.1274 16.1699 10.1479Z" fill="white"/>
<path fill-rule="evenodd" clip-rule="evenodd" d="M9.92997 16.4999C11.685 16.4999 13.1563 15.9178 14.2318 14.9251L12.1311 13.2942C11.5491 13.6842 10.8045 13.9146 9.92997 13.9146C8.23702 13.9146 6.80406 12.7712 6.29293 11.2349H4.12134V12.919C5.19088 15.0433 7.38906 16.4999 9.92997 16.4999Z" fill="white"/>
<path fill-rule="evenodd" clip-rule="evenodd" d="M6.29289 11.2351C6.16289 10.8451 6.08902 10.4286 6.08902 10.0001C6.08902 9.57174 6.16289 9.15514 6.29289 8.76514V7.08105H4.1213C3.68107 7.95855 3.42993 8.95128 3.42993 10.0001C3.42993 11.049 3.68107 12.0417 4.1213 12.9192L6.29289 11.2351Z" fill="white"/>
<path fill-rule="evenodd" clip-rule="evenodd" d="M9.92997 6.08523C10.8843 6.08523 11.7411 6.41318 12.4147 7.05727L14.2791 5.19295C13.1534 4.14409 11.682 3.5 9.92997 3.5C7.38906 3.5 5.19088 4.95659 4.12134 7.08091L6.29293 8.765C6.80406 7.22864 8.23702 6.08523 9.92997 6.08523Z" fill="white"/>
</svg>
