<svg width="70" height="71" viewBox="0 0 70 71" fill="none" xmlns="http://www.w3.org/2000/svg">
<path d="M0 35.4985C0 16.1686 15.67 0.498535 35 0.498535V0.498535C54.33 0.498535 70 16.1686 70 35.4985V35.4985C70 54.8285 54.33 70.4985 35 70.4985V70.4985C15.67 70.4985 0 54.8285 0 35.4985V35.4985Z" fill="#B4A6F9"/>
<path fill-rule="evenodd" clip-rule="evenodd" d="M56.595 36.0157C56.595 34.4025 56.4502 32.8514 56.1814 31.3623H34.755V40.1624H46.9986C46.4713 43.0062 44.8684 45.4156 42.459 47.0288V52.737H49.8114C54.1132 48.7764 56.595 42.9441 56.595 36.0157Z" fill="white"/>
<path fill-rule="evenodd" clip-rule="evenodd" d="M34.755 58.2483C40.8975 58.2483 46.0473 56.2111 49.8114 52.7366L42.459 47.0284C40.4218 48.3934 37.8159 49.2 34.755 49.2C28.8297 49.2 23.8143 45.1981 22.0254 39.8208H14.4248V45.7151C18.1682 53.1502 25.8618 58.2483 34.755 58.2483Z" fill="white"/>
<path fill-rule="evenodd" clip-rule="evenodd" d="M22.0253 39.8211C21.5703 38.4561 21.3118 36.998 21.3118 35.4986C21.3118 33.9991 21.5703 32.5411 22.0253 31.1761V25.2817H14.4248C12.884 28.353 12.005 31.8275 12.005 35.4986C12.005 39.1696 12.884 42.6441 14.4248 45.7154L22.0253 39.8211Z" fill="white"/>
<path fill-rule="evenodd" clip-rule="evenodd" d="M34.755 21.7968C38.0951 21.7968 41.094 22.9447 43.4517 25.199L49.9768 18.6739C46.037 15.0029 40.8872 12.7485 34.755 12.7485C25.8618 12.7485 18.1682 17.8466 14.4248 25.2817L22.0254 31.176C23.8143 25.7988 28.8297 21.7968 34.755 21.7968Z" fill="white"/>
</svg>
