<svg width="334" height="60" viewBox="0 0 334 60" fill="none" xmlns="http://www.w3.org/2000/svg">
<mask id="path-1-outside-1_916_693" maskUnits="userSpaceOnUse" x="-2" y="-2" width="338" height="64" fill="black">
<rect fill="white" x="-2" y="-2" width="338" height="64"/>
<path d="M32.88 51L17.184 26.736L26.616 21.048L46.128 51H32.88ZM0.12 51V0.599997H11.712V51H0.12ZM8.328 30.696V20.976H25.896V30.696H8.328ZM27.696 27.096L16.968 25.8L33.312 0.599997H45.624L27.696 27.096ZM68.3096 51.576C64.1816 51.576 60.5096 50.712 57.2936 48.984C54.1256 47.256 51.6056 44.904 49.7336 41.928C47.9096 38.904 46.9976 35.472 46.9976 31.632C46.9976 27.744 47.9096 24.312 49.7336 21.336C51.6056 18.312 54.1256 15.96 57.2936 14.28C60.5096 12.552 64.1816 11.688 68.3096 11.688C72.3896 11.688 76.0376 12.552 79.2536 14.28C82.4696 15.96 84.9896 18.288 86.8136 21.264C88.6376 24.24 89.5496 27.696 89.5496 31.632C89.5496 35.472 88.6376 38.904 86.8136 41.928C84.9896 44.904 82.4696 47.256 79.2536 48.984C76.0376 50.712 72.3896 51.576 68.3096 51.576ZM68.3096 42.36C70.1816 42.36 71.8616 41.928 73.3496 41.064C74.8376 40.2 76.0136 38.976 76.8776 37.392C77.7416 35.76 78.1736 33.84 78.1736 31.632C78.1736 29.376 77.7416 27.456 76.8776 25.872C76.0136 24.288 74.8376 23.064 73.3496 22.2C71.8616 21.336 70.1816 20.904 68.3096 20.904C66.4376 20.904 64.7576 21.336 63.2696 22.2C61.7816 23.064 60.5816 24.288 59.6696 25.872C58.8056 27.456 58.3736 29.376 58.3736 31.632C58.3736 33.84 58.8056 35.76 59.6696 37.392C60.5816 38.976 61.7816 40.2 63.2696 41.064C64.7576 41.928 66.4376 42.36 68.3096 42.36ZM97.275 51V12.264H109.011L123.627 38.76H118.947L134.571 12.264H145.083L145.227 51H135.075V23.784L136.803 24.936L123.483 47.256H118.731L105.339 24.144L107.427 23.64V51H97.275ZM179.17 51V43.44L178.45 41.784V28.248C178.45 25.848 177.706 23.976 176.218 22.632C174.778 21.288 172.546 20.616 169.522 20.616C167.458 20.616 165.418 20.952 163.402 21.624C161.434 22.248 159.754 23.112 158.362 24.216L154.33 16.368C156.442 14.88 158.986 13.728 161.962 12.912C164.938 12.096 167.962 11.688 171.034 11.688C176.938 11.688 181.522 13.08 184.786 15.864C188.05 18.648 189.682 22.992 189.682 28.896V51H179.17ZM167.362 51.576C164.338 51.576 161.746 51.072 159.586 50.064C157.426 49.008 155.77 47.592 154.618 45.816C153.466 44.04 152.89 42.048 152.89 39.84C152.89 37.536 153.442 35.52 154.546 33.792C155.698 32.064 157.498 30.72 159.946 29.76C162.394 28.752 165.586 28.248 169.522 28.248H179.818V34.8H170.746C168.106 34.8 166.282 35.232 165.274 36.096C164.314 36.96 163.834 38.04 163.834 39.336C163.834 40.776 164.386 41.928 165.49 42.792C166.642 43.608 168.202 44.016 170.17 44.016C172.042 44.016 173.722 43.584 175.21 42.72C176.698 41.808 177.778 40.488 178.45 38.76L180.178 43.944C179.362 46.44 177.874 48.336 175.714 49.632C173.554 50.928 170.77 51.576 167.362 51.576ZM199.439 51V12.264H210.599V27.384H227.447V12.264H238.679V51H227.447V36.528H210.599V51H199.439ZM276.071 45.96V21.48H263.399L263.183 26.448C263.087 28.512 262.967 30.48 262.823 32.352C262.679 34.224 262.391 35.928 261.959 37.464C261.575 38.952 260.999 40.224 260.231 41.28C259.463 42.288 258.431 42.984 257.135 43.368L246.047 41.784C247.439 41.784 248.567 41.376 249.431 40.56C250.295 39.696 250.967 38.52 251.447 37.032C251.927 35.496 252.287 33.768 252.527 31.848C252.767 29.88 252.935 27.816 253.031 25.656L253.535 12.264H287.303V45.96H276.071ZM244.751 59.352V41.784H292.847V59.352H282.407V51H255.191V59.352H244.751ZM323.1 51V43.44L322.38 41.784V28.248C322.38 25.848 321.636 23.976 320.148 22.632C318.708 21.288 316.476 20.616 313.452 20.616C311.388 20.616 309.348 20.952 307.332 21.624C305.364 22.248 303.684 23.112 302.292 24.216L298.26 16.368C300.372 14.88 302.916 13.728 305.892 12.912C308.868 12.096 311.892 11.688 314.964 11.688C320.868 11.688 325.452 13.08 328.716 15.864C331.98 18.648 333.612 22.992 333.612 28.896V51H323.1ZM311.292 51.576C308.268 51.576 305.676 51.072 303.516 50.064C301.356 49.008 299.7 47.592 298.548 45.816C297.396 44.04 296.82 42.048 296.82 39.84C296.82 37.536 297.372 35.52 298.476 33.792C299.628 32.064 301.428 30.72 303.876 29.76C306.324 28.752 309.516 28.248 313.452 28.248H323.748V34.8H314.676C312.036 34.8 310.212 35.232 309.204 36.096C308.244 36.96 307.764 38.04 307.764 39.336C307.764 40.776 308.316 41.928 309.42 42.792C310.572 43.608 312.132 44.016 314.1 44.016C315.972 44.016 317.652 43.584 319.14 42.72C320.628 41.808 321.708 40.488 322.38 38.76L324.108 43.944C323.292 46.44 321.804 48.336 319.644 49.632C317.484 50.928 314.7 51.576 311.292 51.576Z"/>
</mask>
<path d="M32.88 51L31.2007 52.0863L31.7918 53H32.88V51ZM17.184 26.736L16.1512 25.0233L14.3836 26.0892L15.5047 27.8223L17.184 26.736ZM26.616 21.048L28.2918 19.9563L27.2374 18.3377L25.5832 19.3353L26.616 21.048ZM46.128 51V53H49.8178L47.8038 49.9083L46.128 51ZM0.12 51H-1.88V53H0.12V51ZM0.12 0.599997V-1.4H-1.88V0.599997H0.12ZM11.712 0.599997H13.712V-1.4H11.712V0.599997ZM11.712 51V53H13.712V51H11.712ZM8.328 30.696H6.328V32.696H8.328V30.696ZM8.328 20.976V18.976H6.328V20.976H8.328ZM25.896 20.976H27.896V18.976H25.896V20.976ZM25.896 30.696V32.696H27.896V30.696H25.896ZM27.696 27.096L27.4561 29.0816L28.6682 29.228L29.3524 28.2168L27.696 27.096ZM16.968 25.8L15.29 24.7117L13.5457 27.4011L16.7281 27.7856L16.968 25.8ZM33.312 0.599997V-1.4H32.2253L31.634 -0.488295L33.312 0.599997ZM45.624 0.599997L47.2804 1.7208L49.3921 -1.4H45.624V0.599997ZM34.5593 49.9137L18.8633 25.6497L15.5047 27.8223L31.2007 52.0863L34.5593 49.9137ZM18.2168 28.4487L27.6488 22.7607L25.5832 19.3353L16.1512 25.0233L18.2168 28.4487ZM24.9402 22.1397L44.4522 52.0917L47.8038 49.9083L28.2918 19.9563L24.9402 22.1397ZM46.128 49H32.88V53H46.128V49ZM2.12 51V0.599997H-1.88V51H2.12ZM0.12 2.6H11.712V-1.4H0.12V2.6ZM9.712 0.599997V51H13.712V0.599997H9.712ZM11.712 49H0.12V53H11.712V49ZM10.328 30.696V20.976H6.328V30.696H10.328ZM8.328 22.976H25.896V18.976H8.328V22.976ZM23.896 20.976V30.696H27.896V20.976H23.896ZM25.896 28.696H8.328V32.696H25.896V28.696ZM27.9359 25.1104L17.2079 23.8144L16.7281 27.7856L27.4561 29.0816L27.9359 25.1104ZM18.646 26.8883L34.99 1.68829L31.634 -0.488295L15.29 24.7117L18.646 26.8883ZM33.312 2.6H45.624V-1.4H33.312V2.6ZM43.9676 -0.520803L26.0396 25.9752L29.3524 28.2168L47.2804 1.7208L43.9676 -0.520803ZM57.2936 48.984L56.3359 50.7398L56.347 50.7458L57.2936 48.984ZM49.7336 41.928L48.021 42.961L48.0307 42.977L48.0407 42.9929L49.7336 41.928ZM49.7336 21.336L48.0331 20.2833L48.0284 20.2909L49.7336 21.336ZM57.2936 14.28L58.2306 16.0469L58.2403 16.0418L57.2936 14.28ZM79.2536 14.28L78.307 16.0418L78.3173 16.0473L78.3276 16.0527L79.2536 14.28ZM86.8136 21.264L88.5188 20.2189V20.2189L86.8136 21.264ZM86.8136 41.928L88.5188 42.9731L88.5225 42.9671L88.5262 42.961L86.8136 41.928ZM79.2536 48.984L80.2003 50.7458L79.2536 48.984ZM73.3496 41.064L72.3454 39.3344V39.3344L73.3496 41.064ZM76.8776 37.392L78.6334 38.3497L78.6394 38.3388L78.6452 38.3278L76.8776 37.392ZM76.8776 25.872L75.1218 26.8297V26.8297L76.8776 25.872ZM73.3496 22.2L72.3454 23.9296H72.3454L73.3496 22.2ZM63.2696 22.2L64.2739 23.9296L63.2696 22.2ZM59.6696 25.872L57.9364 24.8741L57.9249 24.8941L57.9138 24.9143L59.6696 25.872ZM59.6696 37.392L57.9021 38.3278L57.9187 38.3592L57.9364 38.3899L59.6696 37.392ZM63.2696 41.064L62.2654 42.7936L63.2696 41.064ZM68.3096 49.576C64.4683 49.576 61.129 48.7744 58.2403 47.2222L56.347 50.7458C59.8903 52.6496 63.895 53.576 68.3096 53.576V49.576ZM58.2513 47.2282C55.3751 45.6594 53.1116 43.5419 51.4265 40.8631L48.0407 42.9929C50.0997 46.2661 52.8761 48.8526 56.3359 50.7398L58.2513 47.2282ZM51.4462 40.895C49.8265 38.2098 48.9976 35.1408 48.9976 31.632H44.9976C44.9976 35.8032 45.9927 39.5982 48.021 42.961L51.4462 40.895ZM48.9976 31.632C48.9976 28.0697 49.829 25.0077 51.4388 22.3811L48.0284 20.2909C45.9902 23.6163 44.9976 27.4183 44.9976 31.632H48.9976ZM51.4342 22.3887C53.1179 19.6689 55.3732 17.5622 58.2306 16.0469L56.3566 12.5131C52.878 14.3578 50.0934 16.9551 48.0331 20.2833L51.4342 22.3887ZM58.2403 16.0418C61.129 14.4896 64.4683 13.688 68.3096 13.688V9.688C63.895 9.688 59.8903 10.6144 56.347 12.5182L58.2403 16.0418ZM68.3096 13.688C72.0987 13.688 75.4149 14.4878 78.307 16.0418L80.2003 12.5182C76.6603 10.6162 72.6805 9.688 68.3096 9.688V13.688ZM78.3276 16.0527C81.2361 17.5721 83.4812 19.6542 85.1084 22.3091L88.5188 20.2189C86.498 16.9218 83.7032 14.3479 80.1797 12.5073L78.3276 16.0527ZM85.1084 22.3091C86.7159 24.9318 87.5496 28.0166 87.5496 31.632H91.5496C91.5496 27.3754 90.5594 23.5482 88.5188 20.2189L85.1084 22.3091ZM87.5496 31.632C87.5496 35.1408 86.7207 38.2098 85.101 40.895L88.5262 42.961C90.5546 39.5982 91.5496 35.8032 91.5496 31.632H87.5496ZM85.1084 40.8829C83.4781 43.5429 81.2261 45.6537 78.307 47.2222L80.2003 50.7458C83.7132 48.8583 86.5012 46.2651 88.5188 42.9731L85.1084 40.8829ZM78.307 47.2222C75.4149 48.7762 72.0987 49.576 68.3096 49.576V53.576C72.6805 53.576 76.6603 52.6478 80.2003 50.7458L78.307 47.2222ZM68.3096 44.36C70.5024 44.36 72.5343 43.8501 74.3539 42.7936L72.3454 39.3344C71.1889 40.0059 69.8609 40.36 68.3096 40.36V44.36ZM74.3539 42.7936C76.174 41.7367 77.6031 40.2386 78.6334 38.3497L75.1218 36.4343C74.4241 37.7134 73.5013 38.6632 72.3454 39.3344L74.3539 42.7936ZM78.6452 38.3278C79.689 36.3561 80.1736 34.1027 80.1736 31.632H76.1736C76.1736 33.5773 75.7942 35.1639 75.11 36.4562L78.6452 38.3278ZM80.1736 31.632C80.1736 29.1237 79.6929 26.8568 78.6334 24.9143L75.1218 26.8297C75.7903 28.0552 76.1736 29.6283 76.1736 31.632H80.1736ZM78.6334 24.9143C77.6031 23.0254 76.174 21.5272 74.3539 20.4704L72.3454 23.9296C73.5013 24.6007 74.4241 25.5506 75.1218 26.8297L78.6334 24.9143ZM74.3539 20.4704C72.5343 19.4139 70.5024 18.904 68.3096 18.904V22.904C69.8609 22.904 71.1889 23.2581 72.3454 23.9296L74.3539 20.4704ZM68.3096 18.904C66.1169 18.904 64.0849 19.4139 62.2654 20.4704L64.2739 23.9296C65.4303 23.2581 66.7584 22.904 68.3096 22.904V18.904ZM62.2654 20.4704C60.4555 21.5213 59.0118 23.0062 57.9364 24.8741L61.4029 26.8699C62.1514 25.5698 63.1077 24.6067 64.2739 23.9296L62.2654 20.4704ZM57.9138 24.9143C56.8543 26.8568 56.3736 29.1237 56.3736 31.632H60.3736C60.3736 29.6283 60.757 28.0552 61.4254 26.8297L57.9138 24.9143ZM56.3736 31.632C56.3736 34.1027 56.8582 36.3561 57.9021 38.3278L61.4372 36.4562C60.753 35.1639 60.3736 33.5773 60.3736 31.632H56.3736ZM57.9364 38.3899C59.0118 40.2578 60.4555 41.7427 62.2654 42.7936L64.2739 39.3344C63.1077 38.6573 62.1514 37.6942 61.4029 36.3941L57.9364 38.3899ZM62.2654 42.7936C64.0849 43.8501 66.1169 44.36 68.3096 44.36V40.36C66.7584 40.36 65.4303 40.0059 64.2739 39.3344L62.2654 42.7936ZM97.275 51H95.275V53H97.275V51ZM97.275 12.264V10.264H95.275V12.264H97.275ZM109.011 12.264L110.762 11.298L110.192 10.264H109.011V12.264ZM123.627 38.76V40.76H127.014L125.378 37.794L123.627 38.76ZM118.947 38.76L117.224 37.7441L115.446 40.76H118.947V38.76ZM134.571 12.264V10.264H133.429L132.848 11.2481L134.571 12.264ZM145.083 12.264L147.083 12.2566L147.076 10.264H145.083V12.264ZM145.227 51V53H147.234L147.227 50.9926L145.227 51ZM135.075 51H133.075V53H135.075V51ZM135.075 23.784L136.184 22.1199L133.075 20.047V23.784H135.075ZM136.803 24.936L138.52 25.9609L139.495 24.3272L137.912 23.2719L136.803 24.936ZM123.483 47.256V49.256H124.619L125.2 48.2809L123.483 47.256ZM118.731 47.256L117.001 48.2587L117.578 49.256H118.731V47.256ZM105.339 24.144L104.87 22.1998L102.265 22.8285L103.609 25.1467L105.339 24.144ZM107.427 23.64H109.427V21.0998L106.958 21.6958L107.427 23.64ZM107.427 51V53H109.427V51H107.427ZM99.275 51V12.264H95.275V51H99.275ZM97.275 14.264H109.011V10.264H97.275V14.264ZM107.26 13.23L121.876 39.726L125.378 37.794L110.762 11.298L107.26 13.23ZM123.627 36.76H118.947V40.76H123.627V36.76ZM120.67 39.7759L136.294 13.2799L132.848 11.2481L117.224 37.7441L120.67 39.7759ZM134.571 14.264H145.083V10.264H134.571V14.264ZM143.083 12.2714L143.227 51.0074L147.227 50.9926L147.083 12.2566L143.083 12.2714ZM145.227 49H135.075V53H145.227V49ZM137.075 51V23.784H133.075V51H137.075ZM133.966 25.4481L135.694 26.6001L137.912 23.2719L136.184 22.1199L133.966 25.4481ZM135.086 23.9111L121.766 46.2311L125.2 48.2809L138.52 25.9609L135.086 23.9111ZM123.483 45.256H118.731V49.256H123.483V45.256ZM120.461 46.2533L107.069 23.1413L103.609 25.1467L117.001 48.2587L120.461 46.2533ZM105.808 26.0882L107.896 25.5842L106.958 21.6958L104.87 22.1998L105.808 26.0882ZM105.427 23.64V51H109.427V23.64H105.427ZM107.427 49H97.275V53H107.427V49ZM179.17 51H177.17V53H179.17V51ZM179.17 43.44H181.17V43.024L181.004 42.6425L179.17 43.44ZM178.45 41.784H176.45V42.2L176.616 42.5815L178.45 41.784ZM176.218 22.632L174.853 24.0941L174.865 24.1053L174.877 24.1162L176.218 22.632ZM163.402 21.624L164.006 23.5305L164.02 23.526L164.034 23.5214L163.402 21.624ZM158.362 24.216L156.583 25.13L157.696 27.2967L159.605 25.783L158.362 24.216ZM154.33 16.368L153.178 14.733L151.756 15.7348L152.551 17.282L154.33 16.368ZM161.962 12.912L161.433 10.9832L161.962 12.912ZM184.786 15.864L186.084 14.3423L184.786 15.864ZM189.682 51V53H191.682V51H189.682ZM159.586 50.064L158.708 51.8608L158.724 51.8687L158.74 51.8764L159.586 50.064ZM154.618 45.816L152.94 46.9044L154.618 45.816ZM154.546 33.792L152.882 32.6826L152.871 32.6988L152.861 32.7152L154.546 33.792ZM159.946 29.76L160.676 31.6219L160.692 31.6158L160.707 31.6094L159.946 29.76ZM179.818 28.248H181.818V26.248H179.818V28.248ZM179.818 34.8V36.8H181.818V34.8H179.818ZM165.274 36.096L163.972 34.5775L163.954 34.5932L163.936 34.6094L165.274 36.096ZM165.49 42.792L164.257 44.367L164.295 44.3964L164.334 44.424L165.49 42.792ZM175.21 42.72L176.214 44.4496L176.235 44.4376L176.255 44.4252L175.21 42.72ZM178.45 38.76L180.347 38.1275L178.595 32.8697L176.586 38.0351L178.45 38.76ZM180.178 43.944L182.079 44.5655L182.284 43.9379L182.075 43.3115L180.178 43.944ZM175.714 49.632L174.685 47.917L175.714 49.632ZM181.17 51V43.44H177.17V51H181.17ZM181.004 42.6425L180.284 40.9865L176.616 42.5815L177.336 44.2374L181.004 42.6425ZM180.45 41.784V28.248H176.45V41.784H180.45ZM180.45 28.248C180.45 25.4036 179.549 22.9453 177.559 21.1478L174.877 24.1162C175.863 25.0066 176.45 26.2924 176.45 28.248H180.45ZM177.583 21.1699C175.617 19.3351 172.79 18.616 169.522 18.616V22.616C172.302 22.616 173.939 23.2409 174.853 24.0941L177.583 21.1699ZM169.522 18.616C167.237 18.616 164.983 18.9887 162.769 19.7266L164.034 23.5214C165.853 22.9153 167.679 22.616 169.522 22.616V18.616ZM162.797 19.7175C160.635 20.4033 158.73 21.3717 157.119 22.649L159.605 25.783C160.778 24.8523 162.233 24.0927 164.006 23.5305L162.797 19.7175ZM160.141 23.302L156.109 15.454L152.551 17.282L156.583 25.13L160.141 23.302ZM155.482 18.003C157.372 16.6713 159.696 15.6072 162.491 14.8408L161.433 10.9832C158.276 11.8488 155.512 13.0887 153.178 14.733L155.482 18.003ZM162.491 14.8408C165.295 14.0718 168.141 13.688 171.034 13.688V9.688C167.782 9.688 164.581 10.1202 161.433 10.9832L162.491 14.8408ZM171.034 13.688C176.641 13.688 180.702 15.0093 183.488 17.3857L186.084 14.3423C182.342 11.1507 177.235 9.688 171.034 9.688V13.688ZM183.488 17.3857C186.157 19.6618 187.682 23.3467 187.682 28.896H191.682C191.682 22.6373 189.943 17.6342 186.084 14.3423L183.488 17.3857ZM187.682 28.896V51H191.682V28.896H187.682ZM189.682 49H179.17V53H189.682V49ZM167.362 49.576C164.554 49.576 162.266 49.1075 160.432 48.2516L158.74 51.8764C161.226 53.0365 164.122 53.576 167.362 53.576V49.576ZM160.464 48.2672C158.585 47.3484 157.225 46.1598 156.296 44.7276L152.94 46.9044C154.315 49.0242 156.267 50.6676 158.708 51.8608L160.464 48.2672ZM156.296 44.7276C155.363 43.2901 154.89 41.6792 154.89 39.84H150.89C150.89 42.4168 151.568 44.7899 152.94 46.9044L156.296 44.7276ZM154.89 39.84C154.89 37.869 155.357 36.2366 156.231 34.8688L152.861 32.7152C151.526 34.8034 150.89 37.203 150.89 39.84H154.89ZM156.21 34.9014C157.081 33.5946 158.507 32.4724 160.676 31.6219L159.216 27.8981C156.488 28.9676 154.315 30.5334 152.882 32.6826L156.21 34.9014ZM160.707 31.6094C162.826 30.7369 165.732 30.248 169.522 30.248V26.248C165.44 26.248 161.962 26.767 159.184 27.9106L160.707 31.6094ZM169.522 30.248H179.818V26.248H169.522V30.248ZM177.818 28.248V34.8H181.818V28.248H177.818ZM179.818 32.8H170.746V36.8H179.818V32.8ZM170.746 32.8C168.031 32.8 165.562 33.2151 163.972 34.5775L166.576 37.6145C167.002 37.2489 168.181 36.8 170.746 36.8V32.8ZM163.936 34.6094C162.553 35.8542 161.834 37.4753 161.834 39.336H165.834C165.834 38.6047 166.075 38.0658 166.612 37.5826L163.936 34.6094ZM161.834 39.336C161.834 41.3716 162.654 43.1121 164.257 44.367L166.723 41.217C166.118 40.7439 165.834 40.1804 165.834 39.336H161.834ZM164.334 44.424C165.934 45.5571 167.946 46.016 170.17 46.016V42.016C168.458 42.016 167.35 41.6589 166.646 41.16L164.334 44.424ZM170.17 46.016C172.363 46.016 174.395 45.5061 176.214 44.4496L174.206 40.9904C173.049 41.6619 171.721 42.016 170.17 42.016V46.016ZM176.255 44.4252C178.14 43.27 179.494 41.5933 180.314 39.4849L176.586 38.0351C176.062 39.3827 175.256 40.346 174.165 41.0148L176.255 44.4252ZM176.553 39.3925L178.281 44.5765L182.075 43.3115L180.347 38.1275L176.553 39.3925ZM178.277 43.3225C177.604 45.3822 176.413 46.8799 174.685 47.917L176.743 51.347C179.334 49.7921 181.12 47.4978 182.079 44.5655L178.277 43.3225ZM174.685 47.917C172.927 48.9718 170.531 49.576 167.362 49.576V53.576C171.009 53.576 174.181 52.8841 176.743 51.347L174.685 47.917ZM199.439 51H197.439V53H199.439V51ZM199.439 12.264V10.264H197.439V12.264H199.439ZM210.599 12.264H212.599V10.264H210.599V12.264ZM210.599 27.384H208.599V29.384H210.599V27.384ZM227.447 27.384V29.384H229.447V27.384H227.447ZM227.447 12.264V10.264H225.447V12.264H227.447ZM238.679 12.264H240.679V10.264H238.679V12.264ZM238.679 51V53H240.679V51H238.679ZM227.447 51H225.447V53H227.447V51ZM227.447 36.528H229.447V34.528H227.447V36.528ZM210.599 36.528V34.528H208.599V36.528H210.599ZM210.599 51V53H212.599V51H210.599ZM201.439 51V12.264H197.439V51H201.439ZM199.439 14.264H210.599V10.264H199.439V14.264ZM208.599 12.264V27.384H212.599V12.264H208.599ZM210.599 29.384H227.447V25.384H210.599V29.384ZM229.447 27.384V12.264H225.447V27.384H229.447ZM227.447 14.264H238.679V10.264H227.447V14.264ZM236.679 12.264V51H240.679V12.264H236.679ZM238.679 49H227.447V53H238.679V49ZM229.447 51V36.528H225.447V51H229.447ZM227.447 34.528H210.599V38.528H227.447V34.528ZM208.599 36.528V51H212.599V36.528H208.599ZM210.599 49H199.439V53H210.599V49ZM276.071 45.96H274.071V47.96H276.071V45.96ZM276.071 21.48H278.071V19.48H276.071V21.48ZM263.399 21.48V19.48H261.484L261.401 21.3931L263.399 21.48ZM263.183 26.448L265.181 26.5409L265.181 26.5349L263.183 26.448ZM262.823 32.352L264.817 32.5054L262.823 32.352ZM261.959 37.464L260.034 36.9225L260.028 36.9433L260.023 36.9642L261.959 37.464ZM260.231 41.28L261.822 42.4921L261.836 42.4744L261.849 42.4563L260.231 41.28ZM257.135 43.368L256.852 45.3479L257.285 45.4097L257.703 45.2856L257.135 43.368ZM246.047 41.784V39.784L245.764 43.7639L246.047 41.784ZM249.431 40.56L250.805 42.014L250.825 41.9944L250.845 41.9742L249.431 40.56ZM251.447 37.032L253.351 37.646L253.353 37.6373L253.356 37.6285L251.447 37.032ZM252.527 31.848L254.512 32.0961L254.513 32.0901L252.527 31.848ZM253.031 25.656L255.029 25.7448L255.03 25.7312L253.031 25.656ZM253.535 12.264V10.264H251.609L251.537 12.1888L253.535 12.264ZM287.303 12.264H289.303V10.264H287.303V12.264ZM287.303 45.96V47.96H289.303V45.96H287.303ZM244.751 59.352H242.751V61.352H244.751V59.352ZM244.751 41.784V39.784H242.751V41.784H244.751ZM292.847 41.784H294.847V39.784H292.847V41.784ZM292.847 59.352V61.352H294.847V59.352H292.847ZM282.407 59.352H280.407V61.352H282.407V59.352ZM282.407 51H284.407V49H282.407V51ZM255.191 51V49H253.191V51H255.191ZM255.191 59.352V61.352H257.191V59.352H255.191ZM278.071 45.96V21.48H274.071V45.96H278.071ZM276.071 19.48H263.399V23.48H276.071V19.48ZM261.401 21.3931L261.185 26.3611L265.181 26.5349L265.397 21.5669L261.401 21.3931ZM261.185 26.3551C261.09 28.4009 260.971 30.3486 260.829 32.1986L264.817 32.5054C264.963 30.6114 265.084 28.6231 265.181 26.5409L261.185 26.3551ZM260.829 32.1986C260.694 33.9616 260.425 35.5332 260.034 36.9225L263.885 38.0055C264.358 36.3228 264.665 34.4864 264.817 32.5054L260.829 32.1986ZM260.023 36.9642C259.691 38.251 259.21 39.2837 258.614 40.1037L261.849 42.4563C262.788 41.1643 263.46 39.653 263.896 37.9638L260.023 36.9642ZM258.64 40.0679C258.147 40.715 257.485 41.1785 256.567 41.4504L257.703 45.2856C259.378 44.7895 260.779 43.861 261.822 42.4921L258.64 40.0679ZM257.418 41.3881L246.33 39.8041L245.764 43.7639L256.852 45.3479L257.418 41.3881ZM246.047 43.784C247.856 43.784 249.506 43.24 250.805 42.014L248.058 39.106C247.628 39.512 247.022 39.784 246.047 39.784V43.784ZM250.845 41.9742C251.987 40.8322 252.8 39.3538 253.351 37.646L249.544 36.418C249.135 37.6862 248.603 38.5598 248.017 39.1458L250.845 41.9742ZM253.356 37.6285C253.878 35.9588 254.26 34.1114 254.512 32.0961L250.543 31.5999C250.315 33.4246 249.977 35.0332 249.538 36.4355L253.356 37.6285ZM254.513 32.0901C254.759 30.0669 254.931 27.9515 255.029 25.7448L251.033 25.5672C250.939 27.6805 250.775 29.6931 250.542 31.6059L254.513 32.0901ZM255.03 25.7312L255.534 12.3392L251.537 12.1888L251.033 25.5808L255.03 25.7312ZM253.535 14.264H287.303V10.264H253.535V14.264ZM285.303 12.264V45.96H289.303V12.264H285.303ZM287.303 43.96H276.071V47.96H287.303V43.96ZM246.751 59.352V41.784H242.751V59.352H246.751ZM244.751 43.784H292.847V39.784H244.751V43.784ZM290.847 41.784V59.352H294.847V41.784H290.847ZM292.847 57.352H282.407V61.352H292.847V57.352ZM284.407 59.352V51H280.407V59.352H284.407ZM282.407 49H255.191V53H282.407V49ZM253.191 51V59.352H257.191V51H253.191ZM255.191 57.352H244.751V61.352H255.191V57.352ZM323.1 51H321.1V53H323.1V51ZM323.1 43.44H325.1V43.024L324.934 42.6425L323.1 43.44ZM322.38 41.784H320.38V42.2L320.545 42.5815L322.38 41.784ZM320.148 22.632L318.783 24.0941L318.795 24.1053L318.807 24.1162L320.148 22.632ZM307.332 21.624L307.936 23.5305L307.95 23.526L307.964 23.5214L307.332 21.624ZM302.292 24.216L300.513 25.13L301.626 27.2967L303.534 25.783L302.292 24.216ZM298.26 16.368L297.108 14.733L295.686 15.7348L296.481 17.282L298.26 16.368ZM305.892 12.912L305.363 10.9832L305.892 12.912ZM328.716 15.864L330.014 14.3423L328.716 15.864ZM333.612 51V53H335.612V51H333.612ZM303.516 50.064L302.637 51.8608L302.653 51.8687L302.67 51.8764L303.516 50.064ZM298.548 45.816L296.87 46.9044L298.548 45.816ZM298.476 33.792L296.812 32.6826L296.801 32.6988L296.79 32.7152L298.476 33.792ZM303.876 29.76L304.606 31.6219L304.622 31.6158L304.637 31.6094L303.876 29.76ZM323.748 28.248H325.748V26.248H323.748V28.248ZM323.748 34.8V36.8H325.748V34.8H323.748ZM309.204 36.096L307.902 34.5775L307.884 34.5932L307.866 34.6094L309.204 36.096ZM309.42 42.792L308.187 44.367L308.225 44.3964L308.264 44.424L309.42 42.792ZM319.14 42.72L320.144 44.4496L320.164 44.4376L320.185 44.4252L319.14 42.72ZM322.38 38.76L324.277 38.1275L322.524 32.8697L320.516 38.0351L322.38 38.76ZM324.108 43.944L326.009 44.5655L326.214 43.9379L326.005 43.3115L324.108 43.944ZM319.644 49.632L318.615 47.917L319.644 49.632ZM325.1 51V43.44H321.1V51H325.1ZM324.934 42.6425L324.214 40.9865L320.545 42.5815L321.265 44.2374L324.934 42.6425ZM324.38 41.784V28.248H320.38V41.784H324.38ZM324.38 28.248C324.38 25.4036 323.478 22.9453 321.488 21.1478L318.807 24.1162C319.793 25.0066 320.38 26.2924 320.38 28.248H324.38ZM321.512 21.1699C319.546 19.3351 316.719 18.616 313.452 18.616V22.616C316.232 22.616 317.869 23.2409 318.783 24.0941L321.512 21.1699ZM313.452 18.616C311.166 18.616 308.913 18.9887 306.699 19.7266L307.964 23.5214C309.782 22.9153 311.609 22.616 313.452 22.616V18.616ZM306.727 19.7175C304.564 20.4033 302.659 21.3717 301.049 22.649L303.534 25.783C304.708 24.8523 306.163 24.0927 307.936 23.5305L306.727 19.7175ZM304.071 23.302L300.039 15.454L296.481 17.282L300.513 25.13L304.071 23.302ZM299.412 18.003C301.302 16.6713 303.625 15.6072 306.421 14.8408L305.363 10.9832C302.206 11.8488 299.442 13.0887 297.108 14.733L299.412 18.003ZM306.421 14.8408C309.225 14.0718 312.071 13.688 314.964 13.688V9.688C311.712 9.688 308.51 10.1202 305.363 10.9832L306.421 14.8408ZM314.964 13.688C320.571 13.688 324.632 15.0093 327.418 17.3857L330.014 14.3423C326.272 11.1507 321.165 9.688 314.964 9.688V13.688ZM327.418 17.3857C330.086 19.6618 331.612 23.3467 331.612 28.896H335.612C335.612 22.6373 333.873 17.6342 330.014 14.3423L327.418 17.3857ZM331.612 28.896V51H335.612V28.896H331.612ZM333.612 49H323.1V53H333.612V49ZM311.292 49.576C308.484 49.576 306.195 49.1075 304.361 48.2516L302.67 51.8764C305.156 53.0365 308.051 53.576 311.292 53.576V49.576ZM304.394 48.2672C302.515 47.3484 301.155 46.1598 300.226 44.7276L296.87 46.9044C298.245 49.0242 300.197 50.6676 302.637 51.8608L304.394 48.2672ZM300.226 44.7276C299.293 43.2901 298.82 41.6792 298.82 39.84H294.82C294.82 42.4168 295.498 44.7899 296.87 46.9044L300.226 44.7276ZM298.82 39.84C298.82 37.869 299.287 36.2366 300.161 34.8688L296.79 32.7152C295.456 34.8034 294.82 37.203 294.82 39.84H298.82ZM300.14 34.9014C301.011 33.5946 302.437 32.4724 304.606 31.6219L303.145 27.8981C300.418 28.9676 298.244 30.5334 296.812 32.6826L300.14 34.9014ZM304.637 31.6094C306.756 30.7369 309.661 30.248 313.452 30.248V26.248C309.37 26.248 305.891 26.767 303.114 27.9106L304.637 31.6094ZM313.452 30.248H323.748V26.248H313.452V30.248ZM321.748 28.248V34.8H325.748V28.248H321.748ZM323.748 32.8H314.676V36.8H323.748V32.8ZM314.676 32.8C311.96 32.8 309.492 33.2151 307.902 34.5775L310.505 37.6145C310.932 37.2489 312.111 36.8 314.676 36.8V32.8ZM307.866 34.6094C306.483 35.8542 305.764 37.4753 305.764 39.336H309.764C309.764 38.6047 310.005 38.0658 310.542 37.5826L307.866 34.6094ZM305.764 39.336C305.764 41.3716 306.583 43.1121 308.187 44.367L310.652 41.217C310.048 40.7439 309.764 40.1804 309.764 39.336H305.764ZM308.264 44.424C309.863 45.5571 311.876 46.016 314.1 46.016V42.016C312.387 42.016 311.28 41.6589 310.576 41.16L308.264 44.424ZM314.1 46.016C316.292 46.016 318.324 45.5061 320.144 44.4496L318.135 40.9904C316.979 41.6619 315.651 42.016 314.1 42.016V46.016ZM320.185 44.4252C322.07 43.27 323.424 41.5933 324.244 39.4849L320.516 38.0351C319.992 39.3827 319.186 40.346 318.095 41.0148L320.185 44.4252ZM320.482 39.3925L322.21 44.5765L326.005 43.3115L324.277 38.1275L320.482 39.3925ZM322.207 43.3225C321.533 45.3822 320.343 46.8799 318.615 47.917L320.673 51.347C323.264 49.7921 325.05 47.4978 326.009 44.5655L322.207 43.3225ZM318.615 47.917C316.857 48.9718 314.461 49.576 311.292 49.576V53.576C314.939 53.576 318.111 52.8841 320.673 51.347L318.615 47.917Z" fill="white" mask="url(#path-1-outside-1_916_693)"/>
</svg>
