<svg xmlns="http://www.w3.org/2000/svg" width="321" height="65" fill="none"><mask id="a" width="325" height="69" x="-2" y="-2" fill="#000" maskUnits="userSpaceOnUse"><path fill="#fff" d="M-2-2h325v69H-2z"/><path d="M.264 51V.599997h11.592V33.432L35.904.599997h10.944V51h-11.52V18.24L11.28 51H.264Zm76.7008.576c-4.176 0-7.896-.84-11.16-2.52-3.264-1.728-5.832-4.104-7.704-7.128-1.824-3.024-2.736-6.456-2.736-10.296 0-3.888.912-7.32 2.736-10.296 1.872-3.024 4.44-5.376 7.704-7.056 3.264-1.728 6.984-2.592 11.16-2.592 4.08 0 7.632.864 10.656 2.592 3.024 1.68 5.256 4.104 6.696 7.272l-8.712 4.68c-1.008-1.824-2.28-3.168-3.816-4.032-1.488-.864-3.12-1.296-4.896-1.296-1.92 0-3.648.432-5.184 1.296-1.536.864-2.76 2.088-3.672 3.672-.864 1.584-1.296 3.504-1.296 5.76s.432 4.176 1.296 5.76c.912 1.584 2.136 2.808 3.672 3.672 1.536.864 3.264 1.296 5.184 1.296 1.776 0 3.408-.408 4.896-1.224 1.536-.864 2.808-2.232 3.816-4.104l8.712 4.752c-1.44 3.12-3.672 5.544-6.696 7.272-3.024 1.68-6.576 2.52-10.656 2.52ZM109.282 51V18.888l2.52 2.592H96.1776v-9.216h37.3684v9.216h-15.624l2.52-2.592V51h-11.16Zm46.778.576c-4.128 0-7.8-.864-11.016-2.592-3.168-1.728-5.688-4.08-7.56-7.056-1.824-3.024-2.736-6.456-2.736-10.296 0-3.888.912-7.32 2.736-10.296 1.872-3.024 4.392-5.376 7.56-7.056 3.216-1.728 6.888-2.592 11.016-2.592 4.08 0 7.728.864 10.944 2.592 3.216 1.68 5.736 4.008 7.56 6.984 1.824 2.976 2.736 6.432 2.736 10.368 0 3.84-.912 7.272-2.736 10.296-1.824 2.976-4.344 5.328-7.56 7.056-3.216 1.728-6.864 2.592-10.944 2.592Zm0-9.216c1.872 0 3.552-.432 5.04-1.296 1.488-.864 2.664-2.088 3.528-3.672.864-1.632 1.296-3.552 1.296-5.76 0-2.256-.432-4.176-1.296-5.76-.864-1.584-2.04-2.808-3.528-3.672-1.488-.864-3.168-1.296-5.04-1.296-1.872 0-3.552.432-5.04 1.296-1.488.864-2.688 2.088-3.6 3.672-.864 1.584-1.296 3.504-1.296 5.76 0 2.208.432 4.128 1.296 5.76.912 1.584 2.112 2.808 3.6 3.672 1.488.864 3.168 1.296 5.04 1.296Zm51.789 9.216c-3.264 0-6.12-.72-8.568-2.16-2.448-1.44-4.368-3.624-5.76-6.552-1.344-2.976-2.016-6.72-2.016-11.232 0-4.56.648-8.304 1.944-11.232 1.296-2.928 3.168-5.112 5.616-6.552 2.448-1.44 5.376-2.16 8.784-2.16 3.648 0 6.912.84 9.792 2.52 2.928 1.632 5.232 3.936 6.912 6.912 1.728 2.976 2.592 6.48 2.592 10.512 0 4.08-.864 7.608-2.592 10.584-1.68 2.976-3.984 5.28-6.912 6.912-2.88 1.632-6.144 2.448-9.792 2.448Zm-22.896 13.392V12.264h10.728v7.92l-.216 11.52.72 11.448v21.816h-11.232Zm20.952-22.608c1.872 0 3.528-.432 4.968-1.296 1.488-.864 2.664-2.088 3.528-3.672.912-1.632 1.368-3.552 1.368-5.76 0-2.256-.456-4.176-1.368-5.76-.864-1.584-2.04-2.808-3.528-3.672-1.44-.864-3.096-1.296-4.968-1.296-1.872 0-3.552.432-5.04 1.296-1.488.864-2.664 2.088-3.528 3.672-.864 1.584-1.296 3.504-1.296 5.76 0 2.208.432 4.128 1.296 5.76.864 1.584 2.04 2.808 3.528 3.672 1.488.864 3.168 1.296 5.04 1.296ZM235.017 51V12.264h11.16v23.04l18.864-23.04h10.296V51h-11.16V27.96L245.385 51h-10.368Zm75.525 0V38.112l1.584 1.8h-10.728c-5.568 0-9.936-1.152-13.104-3.456-3.168-2.304-4.752-5.616-4.752-9.936 0-4.608 1.656-8.136 4.968-10.584 3.36-2.448 7.872-3.672 13.536-3.672h18.504V51h-10.008Zm-27.576 0 10.296-14.76h11.448L294.918 51h-11.952Zm27.576-16.344V18.528l1.584 2.88h-9.864c-2.304 0-4.104.432-5.4 1.296-1.248.864-1.872 2.256-1.872 4.176 0 3.696 2.376 5.544 7.128 5.544h10.008l-1.584 2.232Z"/></mask><path fill="#fff" d="M.264 51h-2v2h2v-2Zm0-50.400003V-1.4h-2V.599997h2Zm11.592 0h2V-1.4h-2V.599997Zm0 32.832003h-2v6.1152l3.6135-4.9334-1.6135-1.1818ZM35.904.599997V-1.4h-1.0142l-.5993.81819L35.904.599997Zm10.944 0h2V-1.4h-2V.599997ZM46.848 51v2h2v-2h-2Zm-11.52 0h-2v2h2v-2Zm0-32.76h2v-6.1044l-3.6122 4.9209L35.328 18.24ZM11.28 51v2h1.0129l.5993-.8165L11.28 51Zm-9.016 0V.599997h-4V51h4Zm-2-48.4h11.592v-4H.264v4ZM9.856.599997V33.432h4V.599997h-4ZM13.4695 34.6138l24.048-32.832-3.227-2.36361-24.048 32.83201 3.227 2.3636ZM35.904 2.6h10.944v-4H35.904v4ZM44.848.599997V51h4V.599997h-4ZM46.848 49h-11.52v4h11.52v-4Zm-9.52 2V18.24h-4V51h4Zm-3.6122-33.9435-24.04805 32.76 3.22445 2.367 24.048-32.76-3.2244-2.367ZM11.28 49H.264v4H11.28v-4Zm54.5248.056-.9358 1.7676.0102.0054.0103.0053.9153-1.7783Zm-7.704-7.128-1.7126 1.033.006.0099.0061.0098 1.7005-1.0527Zm0-20.592-1.7005-1.0527-.0047.0076 1.7052 1.0451Zm7.704-7.056.9153 1.7783.0103-.0053.0102-.0054-.9358-1.7676Zm21.816 0-.9923 1.7365.0105.006.0105.0058.9713-1.7483Zm6.696 7.272.9465 1.7619 1.6487-.8857-.7744-1.7038-1.8208.8276Zm-8.712 4.68-1.7505.9674.956 1.7297 1.741-.9352-.9465-1.7619Zm-3.816-4.032-1.0043 1.7296.0119.0068.0119.0067.9805-1.7431Zm-10.08 0 .9805 1.7431-.9805-1.7431Zm-3.672 3.672-1.7332-.9979-.0115.02-.0111.0202 1.7558.9577Zm0 11.52-1.7558.9577.0111.0202.0115.02 1.7332-.9979Zm3.672 3.672.9805-1.7432-.9805 1.7432Zm10.08.072.9617 1.7536.0094-.0052.0094-.0052-.9805-1.7432Zm3.816-4.104.9577-1.7558-1.7653-.9629-.9533 1.7705 1.7609.9482Zm8.712 4.752 1.8159.8381.7838-1.6982-1.642-.8957-.9577 1.7558Zm-6.696 7.272.9713 1.7483.0105-.0058.0105-.006-.9923-1.7365Zm-10.656.52c-3.9017 0-7.3006-.7829-10.2447-2.2983l-1.8306 3.5566c3.5839 1.8446 7.6251 2.7417 12.0753 2.7417v-4Zm-10.2242-2.2876c-2.9627-1.5685-5.2616-3.703-6.9393-6.4131l-3.401 2.1054c2.0663 3.3379 4.9035 5.9554 8.4687 7.8429l1.8716-3.5352Zm-6.9272-6.3934c-1.6197-2.6852-2.4486-5.7542-2.4486-9.263h-4c0 4.1712.9951 7.9662 3.0234 11.329l3.4252-2.066Zm-2.4486-9.263c0-3.5623.8314-6.6243 2.4412-9.2509l-3.4104-2.0902c-2.0382 3.3254-3.0308 7.1274-3.0308 11.3411h4Zm2.4365-9.2433c1.6746-2.7051 3.9666-4.8109 6.9188-6.3304l-1.8306-3.5566c-3.5758 1.8405-6.4198 4.4387-8.4892 7.7816l3.401 2.1054Zm6.9393-6.3411c2.9398-1.5564 6.3313-2.3596 10.2242-2.3596v-4c-4.459 0-8.5076.9248-12.0958 2.8244l1.8716 3.5352Zm10.2242-2.3596c3.7921 0 6.9902.8007 9.6637 2.3285l1.9846-3.473c-3.3744-1.9282-7.2804-2.8555-11.6483-2.8555v4Zm9.6847 2.3403c2.6472 1.4707 4.5827 3.5707 5.8466 6.3513l3.6415-1.6552c-1.6162-3.5555-4.1447-6.3034-7.5455-8.1927l-1.9426 3.4966Zm6.7209 3.7618-8.712 4.68 1.8929 3.5238 8.712-4.68-1.8929-3.5238Zm-6.0151 5.4745c-1.1545-2.089-2.6713-3.7307-4.586-4.8078l-1.961 3.4863c1.1573.651 2.1845 1.6973 3.046 3.2563l3.501-1.9348Zm-4.5622-4.7942c-1.8032-1.047-3.7834-1.5664-5.9003-1.5664v4c1.4351 0 2.7189.3446 3.8917 1.0256l2.0086-3.4592Zm-5.9003-1.5664c-2.2319 0-4.3028.5056-6.1645 1.5528l1.961 3.4863c1.2103-.6807 2.5954-1.0391 4.2035-1.0391v-4Zm-6.1645 1.5528c-1.8613 1.047-3.3403 2.5338-4.4247 4.4173l3.4665 1.9958c.7396-1.2845 1.7085-2.2457 2.9192-2.9268l-1.961-3.4863Zm-4.4473 4.4575c-1.0595 1.9425-1.5402 4.2094-1.5402 6.7177h4c0-2.0037.3833-3.5768 1.0518-4.8023l-3.5116-1.9154Zm-1.5402 6.7177c0 2.5083.4807 4.7752 1.5402 6.7177l3.5116-1.9154c-.6685-1.2255-1.0518-2.7986-1.0518-4.8023h-4Zm1.5628 6.7579c1.0844 1.8835 2.5634 3.3703 4.4247 4.4173l1.961-3.4864c-1.2107-.681-2.1796-1.6422-2.9192-2.9267l-3.4665 1.9958Zm4.4247 4.4173c1.8617 1.0472 3.9326 1.5528 6.1645 1.5528v-4c-1.6081 0-2.9932-.3584-4.2035-1.0392l-1.961 3.4864Zm6.1645 1.5528c2.096 0 4.061-.4851 5.8577-1.4704l-1.9234-3.5072c-1.1793.6467-2.4782.9776-3.9343.9776v4Zm5.8765-1.4808c1.9288-1.085 3.4462-2.7629 4.5965-4.899l-3.5219-1.8964c-.8658 1.6079-1.8923 2.666-3.0356 3.309l1.961 3.4864Zm1.8778-4.0914 8.712 4.752 1.9154-3.5116-8.712-4.752-1.9154 3.5116Zm7.8538 2.1581c-1.2631 2.7367-3.2044 4.8491-5.8724 6.3736l1.9846 3.473c3.3801-1.9315 5.9027-4.6671 7.5196-8.1704l-3.6318-1.6762Zm-5.8514 6.3618c-2.6776 1.4876-5.8834 2.2683-9.6847 2.2683v4c4.3587 0 8.2569-.8993 11.6273-2.7717l-1.9426-3.4966ZM109.282 51h-2v2h2v-2Zm0-32.112 1.434-1.3942-3.434-3.5321v4.9263h2Zm2.52 2.592v2h4.733l-3.299-3.3942-1.434 1.3942Zm-15.6244 0h-2v2h2v-2Zm0-9.216v-2h-2v2h2Zm37.3684 0h2v-2h-2v2Zm0 9.216v2h2v-2h-2Zm-15.624 0-1.434-1.3942-3.3 3.3942h4.734v-2Zm2.52-2.592h2v-4.9263l-3.434 3.5321 1.434 1.3942Zm0 32.112v2h2v-2h-2Zm-9.16 0V18.888h-4V51h4Zm-3.434-30.7178 2.52 2.592 2.868-2.7884-2.52-2.592-2.868 2.7884Zm3.954-.8022H96.1776v4h15.6244v-4Zm-13.6244 2v-9.216h-4v9.216h4Zm-2-7.216h37.3684v-4H96.1776v4Zm35.3684-2v9.216h4v-9.216h-4Zm2 7.216h-15.624v4h15.624v-4Zm-14.19 3.3942 2.52-2.592-2.868-2.7884-2.52 2.592 2.868 2.7884Zm-.914-3.9862V51h4V18.888h-4Zm2 30.112h-11.16v4h11.16v-4Zm24.602-.016-.958 1.7558.011.006.947-1.7618Zm-7.56-7.056-1.713 1.033.01.016.01.0159 1.693-1.0649Zm0-20.592-1.701-1.0527-.005.0076 1.706 1.0451Zm7.56-7.056.937 1.7669.009-.0051-.946-1.7618Zm21.96 0-.947 1.7618.01.0055.011.0054.926-1.7727Zm7.56 6.984 1.705-1.0451-1.705 1.0451Zm0 20.664 1.705 1.0451.004-.006.003-.0061-1.712-1.033Zm-7.56 7.056.946 1.7618-.946-1.7618Zm-5.904-7.92-1.005-1.7296 1.005 1.7296Zm3.528-3.672 1.755.9577.006-.0109.006-.011-1.767-.9358Zm0-11.52-1.756.9577 1.756-.9577ZM161.1 22.2l-1.005 1.7296L161.1 22.2Zm-10.08 0 1.004 1.7296L151.02 22.2Zm-3.6 3.672-1.734-.9979-.011.02-.011.0202 1.756.9577Zm0 11.52-1.768.9358.017.0314.017.0307 1.734-.9979Zm3.6 3.672-1.005 1.7296 1.005-1.7296Zm5.04 8.512c-3.842 0-7.181-.8016-10.07-2.3538l-1.893 3.5236c3.543 1.9038 7.548 2.8302 11.963 2.8302v-4Zm-10.059-2.3478c-2.876-1.5688-5.139-3.6863-6.824-6.3651l-3.386 2.1298c2.059 3.2732 4.835 5.8597 8.295 7.7469l1.915-3.5116Zm-6.805-6.3332c-1.619-2.6852-2.448-5.7542-2.448-9.263h-4c0 4.1712.995 7.9662 3.023 11.329l3.425-2.066Zm-2.448-9.263c0-3.5623.831-6.6243 2.441-9.2509l-3.411-2.0902c-2.038 3.3254-3.03 7.1274-3.03 11.3411h4Zm2.436-9.2433c1.684-2.7198 3.939-4.8265 6.797-6.3418l-1.874-3.5338c-3.479 1.8447-6.264 4.442-8.324 7.7702l3.401 2.1054Zm6.806-6.3469c2.889-1.5522 6.228-2.3538 10.07-2.3538v-4c-4.415 0-8.42.9264-11.963 2.8302l1.893 3.5236Zm10.07-2.3538c3.789 0 7.105.7998 9.997 2.3538l1.893-3.5236c-3.54-1.902-7.519-2.8302-11.89-2.8302v4Zm10.018 2.3647c2.908 1.5194 5.153 3.6015 6.78 6.2564l3.411-2.0902c-2.021-3.2971-4.816-5.871-8.339-7.7116l-1.852 3.5454Zm6.78 6.2564c1.608 2.6227 2.442 5.7075 2.442 9.3229h4c0-4.2566-.991-8.0838-3.031-11.4131l-3.411 2.0902Zm2.442 9.3229c0 3.5088-.829 6.5778-2.449 9.263l3.425 2.066c2.029-3.3628 3.024-7.1578 3.024-11.329h-4Zm-2.442 9.2509c-1.63 2.66-3.882 4.7708-6.801 6.3393l1.893 3.5236c3.513-1.8875 6.301-4.4807 8.319-7.7727l-3.411-2.0902Zm-6.801 6.3393c-2.892 1.554-6.208 2.3538-9.997 2.3538v4c4.371 0 8.35-.9282 11.89-2.8302l-1.893-3.5236ZM156.06 44.36c2.192 0 4.224-.5099 6.044-1.5664l-2.009-3.4592c-1.156.6715-2.484 1.0256-4.035 1.0256v4Zm6.044-1.5664c1.82-1.0569 3.249-2.555 4.279-4.4439l-3.511-1.9154c-.698 1.2791-1.621 2.2289-2.777 2.9001l2.009 3.4592Zm4.291-4.4658c1.044-1.9717 1.529-4.2251 1.529-6.6958h-4c0 1.9453-.38 3.5319-1.064 4.8242l3.535 1.8716Zm1.529-6.6958c0-2.5083-.481-4.7752-1.541-6.7177l-3.511 1.9154c.668 1.2255 1.052 2.7986 1.052 4.8023h4Zm-1.541-6.7177c-1.03-1.8889-2.459-3.3871-4.279-4.4439l-2.009 3.4592c1.156.6711 2.079 1.621 2.777 2.9001l3.511-1.9154Zm-4.279-4.4439c-1.82-1.0565-3.852-1.5664-6.044-1.5664v4c1.551 0 2.879.3541 4.035 1.0256l2.009-3.4592Zm-6.044-1.5664c-2.193 0-4.225.5099-6.045 1.5664l2.009 3.4592c1.156-.6715 2.484-1.0256 4.036-1.0256v-4Zm-6.045 1.5664c-1.809 1.0509-3.253 2.5358-4.329 4.4037l3.467 1.9958c.748-1.3001 1.705-2.2632 2.871-2.9403l-2.009-3.4592Zm-4.351 4.4439c-1.06 1.9425-1.54 4.2094-1.54 6.7177h4c0-2.0037.383-3.5768 1.051-4.8023l-3.511-1.9154Zm-1.54 6.7177c0 2.4707.484 4.7241 1.528 6.6958l3.535-1.8716c-.684-1.2923-1.063-2.8789-1.063-4.8242h-4Zm1.562 6.7579c1.076 1.8679 2.52 3.3528 4.329 4.4037l2.009-3.4592c-1.166-.6771-2.123-1.6402-2.871-2.9403l-3.467 1.9958Zm4.329 4.4037c1.82 1.0565 3.852 1.5664 6.045 1.5664v-4c-1.552 0-2.88-.3541-4.036-1.0256l-2.009 3.4592Zm49.266 6.6224-1.014 1.7239 1.014-1.7239Zm-5.76-6.552-1.823.8232.008.0178.009.0177 1.806-.8587Zm-.072-22.464-1.829-.8095 1.829.8095Zm5.616-6.552-1.014-1.7239 1.014 1.7239Zm18.576.36-1.008 1.7276.017.0098.017.0096.974-1.747Zm6.912 6.912-1.742.9832.006.0106.006.0105 1.73-1.0043Zm0 21.096-1.73-1.0043-.006.0105-.006.0106 1.742.9832Zm-6.912 6.912-.974-1.747-.012.007.986 1.74Zm-32.688 15.84h-2v2h2v-2Zm0-52.704v-2h-2v2h2Zm10.728 0h2v-2h-2v2Zm0 7.92 2 .0375V20.184h-2Zm-.216 11.52-2-.0375-.001.0816.005.0814 1.996-.1255Zm.72 11.448h2v-.0628l-.004-.0627-1.996.1255Zm0 21.816v2h2v-2h-2Zm14.688-23.904-1.004-1.7296-.013.0072-.012.0074 1.029 1.715Zm3.528-3.672-1.746-.9756-.005.0089-.005.009 1.756.9577Zm0-11.52-1.756.9577.011.0202.012.02 1.733-.9979Zm-3.528-3.672-1.029 1.715.012.0074.013.0072 1.004-1.7296Zm-10.008 0 1.004 1.7296-1.004-1.7296Zm-3.528 3.672 1.756.9577-1.756-.9577Zm0 11.52-1.768.9358.006.011.006.0109 1.756-.9577Zm3.528 3.672 1.004-1.7296-1.004 1.7296Zm6.984 8.512c-2.961 0-5.457-.6502-7.554-1.8839l-2.028 3.4478c2.799 1.6463 6.015 2.4361 9.582 2.4361v-4Zm-7.554-1.8839c-2.056-1.2095-3.722-3.0672-4.968-5.6868l-3.612 1.7174c1.538 3.2364 3.712 5.7467 6.552 7.4172l2.028-3.4478Zm-4.951-5.6513c-1.192-2.6384-1.839-6.079-1.839-10.4088h-4c0 4.6942.697 8.7416 2.193 12.0552l3.646-1.6464Zm-1.839-10.4088c0-4.3908.627-7.8335 1.773-10.4225l-3.658-1.619c-1.446 3.267-2.115 7.3122-2.115 12.0415h4Zm1.773-10.4225c1.149-2.5963 2.759-4.4363 4.801-5.6376l-2.028-3.4478c-2.854 1.6786-4.988 4.2067-6.431 7.4664l3.658 1.619Zm4.801-5.6376c2.084-1.2261 4.647-1.8839 7.77-1.8839v-4c-3.693 0-6.986.7822-9.798 2.4361l2.028 3.4478Zm7.77-1.8839c3.328 0 6.238.7625 8.784 2.2476l2.016-3.4552c-3.214-1.8749-6.832-2.7924-10.8-2.7924v4Zm8.818 2.267c2.6 1.4492 4.642 3.486 6.144 6.1482l3.484-1.9664c-1.857-3.2898-4.424-5.861-7.68-7.6758l-1.948 3.494Zm6.156 6.1693c1.523 2.6221 2.322 5.7674 2.322 9.5077h4c0-4.3237-.929-8.1864-2.862-11.5163l-3.46 2.0086Zm2.322 9.5077c0 3.7931-.801 6.9611-2.322 9.5797l3.46 2.0086c1.935-3.3334 2.862-7.2214 2.862-11.5883h-4Zm-2.334 9.6008c-1.502 2.6622-3.544 4.699-6.144 6.1482l1.948 3.494c3.256-1.8148 5.823-4.386 7.68-7.6758l-3.484-1.9664Zm-6.156 6.1552c-2.549 1.4446-5.467 2.188-8.806 2.188v4c3.957 0 7.567-.8886 10.778-2.708l-1.972-3.48Zm-29.702 17.58V12.264h-4v52.704h4Zm-2-50.704h10.728v-4h-10.728v4Zm8.728-2v7.92h4v-7.92h-4Zm0 7.8825-.216 11.52 4 .075.216-11.52-4-.075Zm-.212 11.683.72 11.448 3.992-.251-.72-11.448-3.992.251Zm.716 11.3225v21.816h4V43.152h-4Zm2 19.816h-11.232v4h11.232v-4Zm9.72-18.608c2.192 0 4.211-.5097 5.997-1.581l-2.058-3.43c-1.094.6567-2.387 1.011-3.939 1.011v4Zm5.972-1.5664c1.82-1.0569 3.25-2.555 4.28-4.4439l-3.512-1.9154c-.698 1.2791-1.62 2.2289-2.776 2.9001l2.008 3.4592Zm4.27-4.426c1.106-1.98 1.622-4.2481 1.622-6.7356h-4c0 1.9285-.396 3.5004-1.114 4.7844l3.492 1.9512Zm1.622-6.7356c0-2.5249-.511-4.8069-1.635-6.7579l-3.466 1.9958c.7 1.217 1.101 2.775 1.101 4.7621h4Zm-1.612-6.7177c-1.03-1.8889-2.46-3.3871-4.28-4.4439l-2.008 3.4592c1.156.6711 2.078 1.621 2.776 2.9001l3.512-1.9154Zm-4.255-4.4293c-1.786-1.0713-3.805-1.581-5.997-1.581v4c1.552 0 2.845.3543 3.939 1.011l2.058-3.43Zm-5.997-1.581c-2.193 0-4.225.5099-6.044 1.5664l2.008 3.4592c1.157-.6715 2.485-1.0256 4.036-1.0256v-4Zm-6.044 1.5664c-1.82 1.0568-3.25 2.555-4.28 4.4439l3.512 1.9154c.698-1.2791 1.62-2.229 2.776-2.9001l-2.008-3.4592Zm-4.28 4.4439c-1.059 1.9425-1.54 4.2094-1.54 6.7177h4c0-2.0037.383-3.5768 1.052-4.8023l-3.512-1.9154Zm-1.54 6.7177c0 2.4707.485 4.7241 1.528 6.6958l3.536-1.8716c-.685-1.2923-1.064-2.8789-1.064-4.8242h-4Zm1.54 6.7177c1.03 1.8889 2.46 3.387 4.28 4.4439l2.008-3.4592c-1.156-.6712-2.079-1.621-2.776-2.9001l-3.512 1.9154Zm4.28 4.4439c1.819 1.0565 3.851 1.5664 6.044 1.5664v-4c-1.551 0-2.879-.3541-4.036-1.0256l-2.008 3.4592ZM235.017 51h-2v2h2v-2Zm0-38.736v-2h-2v2h2Zm11.16 0h2v-2h-2v2Zm0 23.04h-2v5.5998l3.548-4.3328-1.548-1.267Zm18.864-23.04v-2h-.947l-.6.733 1.547 1.267Zm10.296 0h2v-2h-2v2Zm0 38.736v2h2v-2h-2Zm-11.16 0h-2v2h2v-2Zm0-23.04h2v-5.6164l-3.55 4.3523 1.55 1.2641ZM245.385 51v2h.95l.6-.7359L245.385 51Zm-8.368 0V12.264h-4V51h4Zm-2-36.736h11.16v-4h-11.16v4Zm9.16-2v23.04h4v-23.04h-4Zm3.548 24.307 18.864-23.04-3.095-2.534-18.864 23.04 3.095 2.534Zm17.316-22.307h10.296v-4h-10.296v4Zm8.296-2V51h4V12.264h-4Zm2 36.736h-11.16v4h11.16v-4Zm-9.16 2V27.96h-4V51h4Zm-3.55-24.3041-18.792 23.04 3.1 2.5282 18.792-23.04-3.1-2.5282ZM245.385 49h-10.368v4h10.368v-4Zm65.157 2h-2v2h2v-2Zm0-12.888 1.502-1.3213-3.502-3.9789v5.3002h2Zm1.584 1.8v2h4.425l-2.923-3.3213-1.502 1.3213Zm-23.832-3.456 1.177-1.6175-1.177 1.6175Zm.216-20.52-1.177-1.6165-.011.0081 1.188 1.6084Zm32.04-3.672h2v-2h-2v2Zm0 38.736v2h2v-2h-2Zm-37.584 0-1.64-1.1442L279.133 53h3.833v-2Zm10.296-14.76v-2h-1.043l-.597.8558 1.64 1.1442Zm11.448 0 1.667 1.1056 2.06-3.1056h-3.727v2ZM294.918 51v2h1.074l.593-.8944L294.918 51Zm15.624-16.344h-2v6.2739l3.631-5.1164-1.631-1.1575Zm0-16.128 1.753-.9638-3.753.9638h2Zm1.584 2.88v2h3.383l-1.63-2.9638-1.753.9638Zm-15.264 1.296-1.109-1.6641-.015.0097-.014.01 1.138 1.6444Zm15.264 9.72 1.631 1.1575 2.241-3.1575h-3.872v2ZM312.542 51V38.112h-4V51h4Zm-3.501-11.5667 1.584 1.8 3.003-2.6426-1.584-1.8-3.003 2.6426Zm3.085-1.5213h-10.728v4h10.728v-4Zm-10.728 0c-5.317 0-9.218-1.1032-11.927-3.0735l-2.353 3.235c3.627 2.6377 8.462 3.8385 14.28 3.8385v-4Zm-11.927-3.0735c-2.592-1.8849-3.929-4.5621-3.929-8.3185h-4c0 4.8836 1.832 8.8304 5.576 11.5535l2.353-3.235Zm-3.929-8.3185c0-4.0604 1.421-6.9536 4.157-8.9757l-2.377-3.2167c-3.889 2.8739-5.78 7.0368-5.78 12.1924h4Zm4.146-8.9675c2.914-2.1227 6.967-3.2885 12.358-3.2885v-4c-5.936 0-10.907 1.2822-14.713 4.0555l2.355 3.233Zm12.358-3.2885h18.504v-4h-18.504v4Zm16.504-2V51h4V12.264h-4Zm2 36.736h-10.008v4h10.008v-4Zm-35.943 3.1442 10.296-14.76-3.281-2.2884-10.296 14.76 3.281 2.2884Zm8.655-13.9042h11.448v-4h-11.448v4Zm9.782-3.1056-9.792 14.76 3.333 2.2112 9.792-14.76-3.333-2.2112ZM294.918 49h-11.952v4h11.952v-4Zm17.624-14.344V18.528h-4v16.128h4Zm-3.752-15.1642 1.584 2.88 3.505-1.9276-1.584-2.88-3.505 1.9276Zm3.336-.0838h-9.864v4h9.864v-4Zm-9.864 0c-2.52 0-4.762.4673-6.509 1.6319l2.219 3.3282c.845-.5634 2.203-.9601 4.29-.9601v-4Zm-6.538 1.6516c-1.93 1.3363-2.734 3.439-2.734 5.8204h4c0-1.4586.445-2.1399 1.011-2.5316l-2.277-3.2888ZM292.99 26.88c0 2.3093.768 4.3474 2.554 5.7367 1.691 1.315 3.994 1.8073 6.574 1.8073v-4c-2.172 0-3.433-.4318-4.118-.9647-.589-.4587-1.01-1.1926-1.01-2.5793h-4Zm9.128 7.544h10.008v-4h-10.008v4Zm8.377-3.1575-1.584 2.232 3.262 2.315 1.584-2.232-3.262-2.315Z" mask="url(#a)"/></svg>