<svg width="668" height="668" viewBox="0 0 668 668" fill="none" xmlns="http://www.w3.org/2000/svg">
<path fill-rule="evenodd" clip-rule="evenodd" d="M234 0.666585H231.806C202.256 0.664919 176.796 0.663585 156.407 3.40492C134.556 6.34258 113.611 12.9673 96.6226 29.9559C79.634 46.9449 73.009 67.8899 70.0713 89.7403C67.33 110.129 67.3316 135.59 67.3333 165.139V167.333V284V473.023C28.4936 486.75 0.666626 523.793 0.666626 567.333C0.666626 622.563 45.4383 667.333 100.667 667.333H467.22H467.333C522.563 667.333 567.333 622.563 567.333 567.333V234V167.334H584C630.023 167.334 667.333 130.024 667.333 84.0002C667.333 37.9762 630.023 0.666919 584 0.666919C580.537 0.666919 577.123 0.877921 573.773 1.28825C571.69 0.880254 569.537 0.666585 567.333 0.666585H234ZM373.023 600.667C369.34 590.24 367.333 579.02 367.333 567.333V534H100.667C82.2573 534 67.3333 548.923 67.3333 567.333C67.3333 585.743 82.2573 600.667 100.667 600.667H373.023ZM567.333 100.667H584C593.203 100.667 600.667 93.2049 600.667 84.0002C600.667 74.7952 593.203 67.3336 584 67.3336C574.797 67.3336 567.333 74.7952 567.333 84.0002V100.667ZM200.667 167.333C200.667 148.924 215.591 134 234 134H400.667C419.077 134 434 148.924 434 167.333C434 185.743 419.077 200.667 400.667 200.667H234C215.591 200.667 200.667 185.743 200.667 167.333ZM234 267.333C215.591 267.333 200.667 282.257 200.667 300.667C200.667 319.077 215.591 334 234 334H400.667C419.077 334 434 319.077 434 300.667C434 282.257 419.077 267.333 400.667 267.333H234Z" fill="white"/>
</svg>
