<svg width="668" height="468" viewBox="0 0 668 468" fill="none" xmlns="http://www.w3.org/2000/svg">
<path fill-rule="evenodd" clip-rule="evenodd" d="M9.73342 46.1665C0.66675 63.9998 0.666748 87.3332 0.666748 134V334C0.666748 380.666 0.66675 404 9.73342 421.833C17.7299 437.509 30.4836 450.251 46.1667 458.233C64.0001 467.333 87.3334 467.333 134 467.333H534C580.667 467.333 604 467.333 621.833 458.233C637.504 450.245 650.246 437.504 658.233 421.833C667.333 404 667.333 380.666 667.333 334V134C667.333 87.3332 667.333 63.9998 658.233 46.1665C650.251 30.4834 637.509 17.7297 621.833 9.73316C604 0.666498 580.667 0.666504 534 0.666504H134C87.3334 0.666504 64.0001 0.666498 46.1667 9.73316C30.4785 17.724 17.7243 30.4783 9.73342 46.1665ZM88.9001 67.3332H579.1C582.679 67.3288 586.164 68.4764 589.04 70.6063C591.916 72.7362 594.03 75.7351 595.069 79.1596C596.108 82.5841 596.018 86.2521 594.811 89.6211C593.604 92.9901 591.344 95.8811 588.367 97.8665L352.533 255.6C347.049 259.269 340.599 261.227 334 261.227C327.401 261.227 320.951 259.269 315.467 255.6L79.6334 97.8665C76.6559 95.8811 74.3966 92.9901 73.1896 89.6211C71.9825 86.2521 71.892 82.5841 72.9313 79.1596C73.9706 75.7351 76.0846 72.7362 78.9604 70.6063C81.8363 68.4764 85.3214 67.3288 88.9001 67.3332Z" fill="white"/>
</svg>
