<svg width="800" height="800" viewBox="0 0 800 800" fill="none" xmlns="http://www.w3.org/2000/svg">
<g clip-path="url(#clip0_975_309)">
<path d="M158.367 20.3333L595.833 271.867L502.067 365.633L158.367 20.3333ZM67.7332 0L469.3 400L67.7666 800C47.3333 790.967 33.3333 770.867 33.3333 747.5C33.3333 746.733 33.3333 745.967 33.3666 745.233V745.333V54.7C33.3333 54.0667 33.3333 53.3 33.3333 52.5333C33.3333 29.1667 47.3332 9.06667 67.3999 0.166667L67.7666 0.0333333L67.7332 0ZM731.8 353.133C745.6 363.367 754.433 379.633 754.433 397.933C754.433 398.667 754.433 399.367 754.4 400.1V400C754.533 401.433 754.633 403.133 754.633 404.833C754.633 422.033 746.3 437.3 733.433 446.767L733.3 446.867L639.533 499.967L538 400L639.567 298.433L731.8 353.133ZM158.367 779.667L502.1 434.367L595.867 528.133L158.367 779.667Z" fill="white"/>
</g>
<defs>
<clipPath id="clip0_975_309">
<rect width="800" height="800" fill="white"/>
</clipPath>
</defs>
</svg>
