<svg width="281" height="64" viewBox="0 0 281 64" fill="none" xmlns="http://www.w3.org/2000/svg">
<mask id="path-1-outside-1_916_282" maskUnits="userSpaceOnUse" x="-2" y="-2" width="286" height="68" fill="black">
<rect fill="white" x="-2" y="-2" width="286" height="68"/>
<path d="M28.384 52.864C24.448 52.864 20.776 52.216 17.368 50.92C14.008 49.624 11.08 47.8 8.584 45.448C6.136 43.096 4.216 40.336 2.824 37.168C1.48 34 0.808 30.544 0.808 26.8C0.808 23.056 1.48 19.6 2.824 16.432C4.216 13.264 6.16 10.504 8.656 8.152C11.152 5.8 14.08 3.976 17.44 2.68C20.8 1.384 24.448 0.735999 28.384 0.735999C32.368 0.735999 36.016 1.384 39.328 2.68C42.688 3.976 45.592 5.8 48.04 8.152C50.536 10.456 52.48 13.192 53.872 16.36C55.264 19.528 55.96 23.008 55.96 26.8C55.96 30.544 55.264 34.024 53.872 37.24C52.48 40.408 50.536 43.168 48.04 45.52C45.592 47.824 42.688 49.624 39.328 50.92C36.016 52.216 32.368 52.864 28.384 52.864ZM44.872 63.592C42.904 63.592 41.032 63.376 39.256 62.944C37.528 62.512 35.8 61.816 34.072 60.856C32.392 59.896 30.616 58.6 28.744 56.968C26.92 55.336 24.928 53.32 22.768 50.92L35.008 47.824C36.304 49.6 37.504 51.016 38.608 52.072C39.712 53.128 40.768 53.872 41.776 54.304C42.832 54.736 43.936 54.952 45.088 54.952C48.16 54.952 50.896 53.704 53.296 51.208L58.48 57.4C55.072 61.528 50.536 63.592 44.872 63.592ZM28.384 42.928C30.64 42.928 32.704 42.544 34.576 41.776C36.496 41.008 38.176 39.904 39.616 38.464C41.056 37.024 42.16 35.32 42.928 33.352C43.744 31.336 44.152 29.152 44.152 26.8C44.152 24.4 43.744 22.216 42.928 20.248C42.16 18.28 41.056 16.576 39.616 15.136C38.176 13.696 36.496 12.592 34.576 11.824C32.704 11.056 30.64 10.672 28.384 10.672C26.128 10.672 24.04 11.056 22.12 11.824C20.2 12.592 18.52 13.696 17.08 15.136C15.688 16.576 14.584 18.28 13.768 20.248C13 22.216 12.616 24.4 12.616 26.8C12.616 29.152 13 31.336 13.768 33.352C14.584 35.32 15.688 37.024 17.08 38.464C18.52 39.904 20.2 41.008 22.12 41.776C24.04 42.544 26.128 42.928 28.384 42.928ZM80.278 52.576C77.062 52.576 74.182 51.952 71.638 50.704C69.142 49.456 67.198 47.56 65.806 45.016C64.414 42.424 63.718 39.136 63.718 35.152V13.264H74.95V33.496C74.95 36.712 75.622 39.088 76.966 40.624C78.358 42.112 80.302 42.856 82.798 42.856C84.526 42.856 86.062 42.496 87.406 41.776C88.75 41.008 89.806 39.856 90.574 38.32C91.342 36.736 91.726 34.768 91.726 32.416V13.264H102.958V52H92.302V41.344L94.246 44.44C92.95 47.128 91.03 49.168 88.486 50.56C85.99 51.904 83.254 52.576 80.278 52.576ZM132.588 52.576C128.172 52.576 124.284 51.712 120.924 49.984C117.612 48.256 115.044 45.904 113.22 42.928C111.396 39.904 110.484 36.472 110.484 32.632C110.484 28.744 111.372 25.312 113.148 22.336C114.972 19.312 117.444 16.96 120.564 15.28C123.684 13.552 127.212 12.688 131.148 12.688C134.94 12.688 138.348 13.504 141.372 15.136C144.444 16.72 146.868 19.024 148.644 22.048C150.42 25.024 151.308 28.6 151.308 32.776C151.308 33.208 151.284 33.712 151.236 34.288C151.188 34.816 151.14 35.32 151.092 35.8H119.628V29.248H145.188L140.868 31.192C140.868 29.176 140.46 27.424 139.644 25.936C138.828 24.448 137.7 23.296 136.26 22.48C134.82 21.616 133.14 21.184 131.22 21.184C129.3 21.184 127.596 21.616 126.108 22.48C124.668 23.296 123.54 24.472 122.724 26.008C121.908 27.496 121.5 29.272 121.5 31.336V33.064C121.5 35.176 121.956 37.048 122.868 38.68C123.828 40.264 125.148 41.488 126.828 42.352C128.556 43.168 130.572 43.576 132.876 43.576C134.94 43.576 136.74 43.264 138.276 42.64C139.86 42.016 141.3 41.08 142.596 39.832L148.572 46.312C146.796 48.328 144.564 49.888 141.876 50.992C139.188 52.048 136.092 52.576 132.588 52.576ZM181.491 52V44.44L180.771 42.784V29.248C180.771 26.848 180.027 24.976 178.539 23.632C177.099 22.288 174.867 21.616 171.843 21.616C169.779 21.616 167.739 21.952 165.723 22.624C163.755 23.248 162.075 24.112 160.683 25.216L156.651 17.368C158.763 15.88 161.307 14.728 164.283 13.912C167.259 13.096 170.283 12.688 173.355 12.688C179.259 12.688 183.843 14.08 187.107 16.864C190.371 19.648 192.003 23.992 192.003 29.896V52H181.491ZM169.683 52.576C166.659 52.576 164.067 52.072 161.907 51.064C159.747 50.008 158.091 48.592 156.939 46.816C155.787 45.04 155.211 43.048 155.211 40.84C155.211 38.536 155.763 36.52 156.867 34.792C158.019 33.064 159.819 31.72 162.267 30.76C164.715 29.752 167.907 29.248 171.843 29.248H182.139V35.8H173.067C170.427 35.8 168.603 36.232 167.595 37.096C166.635 37.96 166.155 39.04 166.155 40.336C166.155 41.776 166.707 42.928 167.811 43.792C168.963 44.608 170.523 45.016 172.491 45.016C174.363 45.016 176.043 44.584 177.531 43.72C179.019 42.808 180.099 41.488 180.771 39.76L182.499 44.944C181.683 47.44 180.195 49.336 178.035 50.632C175.875 51.928 173.091 52.576 169.683 52.576ZM221.17 52.576C216.994 52.576 213.274 51.736 210.01 50.056C206.746 48.328 204.178 45.952 202.306 42.928C200.482 39.904 199.57 36.472 199.57 32.632C199.57 28.744 200.482 25.312 202.306 22.336C204.178 19.312 206.746 16.96 210.01 15.28C213.274 13.552 216.994 12.688 221.17 12.688C225.25 12.688 228.802 13.552 231.826 15.28C234.85 16.96 237.082 19.384 238.522 22.552L229.81 27.232C228.802 25.408 227.53 24.064 225.994 23.2C224.506 22.336 222.874 21.904 221.098 21.904C219.178 21.904 217.45 22.336 215.914 23.2C214.378 24.064 213.154 25.288 212.242 26.872C211.378 28.456 210.946 30.376 210.946 32.632C210.946 34.888 211.378 36.808 212.242 38.392C213.154 39.976 214.378 41.2 215.914 42.064C217.45 42.928 219.178 43.36 221.098 43.36C222.874 43.36 224.506 42.952 225.994 42.136C227.53 41.272 228.802 39.904 229.81 38.032L238.522 42.784C237.082 45.904 234.85 48.328 231.826 50.056C228.802 51.736 225.25 52.576 221.17 52.576ZM263.217 52.576C259.041 52.576 255.321 51.736 252.057 50.056C248.793 48.328 246.225 45.952 244.353 42.928C242.529 39.904 241.617 36.472 241.617 32.632C241.617 28.744 242.529 25.312 244.353 22.336C246.225 19.312 248.793 16.96 252.057 15.28C255.321 13.552 259.041 12.688 263.217 12.688C267.297 12.688 270.849 13.552 273.873 15.28C276.897 16.96 279.129 19.384 280.569 22.552L271.857 27.232C270.849 25.408 269.577 24.064 268.041 23.2C266.553 22.336 264.921 21.904 263.145 21.904C261.225 21.904 259.497 22.336 257.961 23.2C256.425 24.064 255.201 25.288 254.289 26.872C253.425 28.456 252.993 30.376 252.993 32.632C252.993 34.888 253.425 36.808 254.289 38.392C255.201 39.976 256.425 41.2 257.961 42.064C259.497 42.928 261.225 43.36 263.145 43.36C264.921 43.36 266.553 42.952 268.041 42.136C269.577 41.272 270.849 39.904 271.857 38.032L280.569 42.784C279.129 45.904 276.897 48.328 273.873 50.056C270.849 51.736 267.297 52.576 263.217 52.576Z"/>
</mask>
<path d="M17.368 50.92L16.6482 52.786L16.6571 52.7894L17.368 50.92ZM8.584 45.448L7.19835 46.8902L7.20534 46.8969L7.2124 46.9036L8.584 45.448ZM2.824 37.168L0.982836 37.9491L0.987824 37.9609L0.992961 37.9725L2.824 37.168ZM2.824 16.432L0.992961 15.6275L0.987824 15.6391L0.982837 15.6509L2.824 16.432ZM17.44 2.68L16.7203 0.813992L17.44 2.68ZM39.328 2.68L38.5992 4.5425L38.6083 4.546L39.328 2.68ZM48.04 8.152L46.6544 9.59421L46.6688 9.60805L46.6834 9.6216L48.04 8.152ZM53.872 16.36L52.041 17.1645V17.1645L53.872 16.36ZM53.872 37.24L55.7031 38.0446L55.7074 38.0344L53.872 37.24ZM48.04 45.52L49.4107 46.9764L49.4116 46.9756L48.04 45.52ZM39.328 50.92L38.6082 49.054L38.5992 49.0575L39.328 50.92ZM39.256 62.944L38.7709 64.8843L38.7833 64.8873L39.256 62.944ZM34.072 60.856L33.0797 62.5925L33.0902 62.5985L33.1007 62.6043L34.072 60.856ZM28.744 56.968L27.4104 58.4585L27.42 58.4671L27.4297 58.4755L28.744 56.968ZM22.768 50.92L22.2776 48.9811L19.0638 49.794L21.2814 52.2579L22.768 50.92ZM35.008 47.824L36.6236 46.6451L35.8272 45.5538L34.5176 45.8851L35.008 47.824ZM38.608 52.072L39.9904 50.6267L38.608 52.072ZM41.776 54.304L40.9882 56.1423L41.0034 56.1488L41.0187 56.1551L41.776 54.304ZM53.296 51.208L54.8295 49.9241L53.3989 48.2154L51.8543 49.8218L53.296 51.208ZM58.48 57.4L60.0223 58.6733L61.0809 57.3911L60.0135 56.1161L58.48 57.4ZM34.576 41.776L33.8332 39.919L33.825 39.9223L33.8169 39.9257L34.576 41.776ZM39.616 38.464L38.2018 37.0498L39.616 38.464ZM42.928 33.352L41.0741 32.6016L41.0694 32.6132L41.0648 32.6249L42.928 33.352ZM42.928 20.248L41.0648 20.9751L41.0725 20.9946L41.0805 21.014L42.928 20.248ZM39.616 15.136L38.2018 16.5502V16.5502L39.616 15.136ZM34.576 11.824L33.8169 13.6743L33.825 13.6777L33.8332 13.681L34.576 11.824ZM22.12 11.824L21.3772 9.96704L22.12 11.824ZM17.08 15.136L15.6658 13.7218L15.6538 13.7338L15.642 13.746L17.08 15.136ZM13.768 20.248L11.9205 19.482L11.9125 19.5014L11.9048 19.5209L13.768 20.248ZM13.768 33.352L11.899 34.064L11.9094 34.0912L11.9205 34.118L13.768 33.352ZM17.08 38.464L15.642 39.854L15.6538 39.8662L15.6658 39.8782L17.08 38.464ZM22.12 41.776L21.3772 43.633H21.3772L22.12 41.776ZM28.384 50.864C24.6715 50.864 21.2424 50.2536 18.0789 49.0506L16.6571 52.7894C20.3096 54.1784 24.2245 54.864 28.384 54.864V50.864ZM18.0877 49.054C14.9573 47.8465 12.2536 46.1578 9.9556 43.9924L7.2124 46.9036C9.9064 49.4422 13.0587 51.4015 16.6483 52.786L18.0877 49.054ZM9.96965 44.0058C7.71411 41.8387 5.94382 39.2965 4.65504 36.3635L0.992961 37.9725C2.48818 41.3755 4.55789 44.3533 7.19835 46.8902L9.96965 44.0058ZM4.66516 36.3869C3.43489 33.487 2.808 30.2994 2.808 26.8H-1.192C-1.192 30.7886 -0.474894 34.513 0.982836 37.9491L4.66516 36.3869ZM2.808 26.8C2.808 23.3006 3.43489 20.113 4.66516 17.2131L0.982837 15.6509C-0.474894 19.087 -1.192 22.8114 -1.192 26.8H2.808ZM4.65504 17.2365C5.94011 14.3119 7.72866 11.7739 10.0276 9.60758L7.2844 6.69642C4.59134 9.23411 2.49189 12.2161 0.992961 15.6275L4.65504 17.2365ZM10.0276 9.60758C12.3256 7.44215 15.0293 5.75347 18.1597 4.546L16.7203 0.813992C13.1307 2.19852 9.9784 4.15784 7.2844 6.69642L10.0276 9.60758ZM18.1597 4.546C21.2697 3.34646 24.6712 2.736 28.384 2.736V-1.264C24.2248 -1.264 20.3303 -0.578466 16.7203 0.813992L18.1597 4.546ZM28.384 2.736C32.1485 2.736 35.5457 3.34764 38.5992 4.54248L40.0568 0.817509C36.4863 -0.579639 32.5875 -1.264 28.384 -1.264V2.736ZM38.6083 4.546C41.7356 5.75228 44.4094 7.43734 46.6544 9.59421L49.4257 6.70979C46.7746 4.16266 43.6404 2.19972 40.0477 0.813992L38.6083 4.546ZM46.6834 9.6216C48.9734 11.7354 50.7575 14.2437 52.041 17.1645L55.703 15.5555C54.2025 12.1403 52.0986 9.17662 49.3966 6.68239L46.6834 9.6216ZM52.041 17.1645C53.3113 20.0555 53.96 23.2582 53.96 26.8H57.96C57.96 22.7578 57.2168 19.0005 55.703 15.5555L52.041 17.1645ZM53.96 26.8C53.96 30.2897 53.3127 33.4972 52.0366 36.4456L55.7074 38.0344C57.2153 34.5508 57.96 30.7983 57.96 26.8H53.96ZM52.041 36.4355C50.7559 39.3601 48.9673 41.8981 46.6684 44.0644L49.4116 46.9756C52.1047 44.4379 54.2041 41.4559 55.703 38.0445L52.041 36.4355ZM46.6693 44.0636C44.4228 46.1779 41.7442 47.8444 38.6083 49.054L40.0477 52.786C43.6318 51.4036 46.7612 49.4701 49.4107 46.9764L46.6693 44.0636ZM38.5992 49.0575C35.5457 50.2524 32.1485 50.864 28.384 50.864V54.864C32.5875 54.864 36.4863 54.1796 40.0568 52.7825L38.5992 49.0575ZM44.872 61.592C43.0512 61.592 41.3386 61.3923 39.7287 61.0007L38.7833 64.8873C40.7254 65.3597 42.7569 65.592 44.872 65.592V61.592ZM39.7411 61.0037C38.2003 60.6185 36.6349 59.9919 35.0433 59.1077L33.1007 62.6043C34.9651 63.6401 36.8557 64.4055 38.7709 64.8843L39.7411 61.0037ZM35.0643 59.1195C33.5258 58.2404 31.8572 57.0287 30.0583 55.4605L27.4297 58.4755C29.3748 60.1713 31.2582 61.5516 33.0797 62.5925L35.0643 59.1195ZM30.0776 55.4775C28.3211 53.9059 26.3806 51.9443 24.2546 49.5821L21.2814 52.2579C23.4754 54.6957 25.5189 56.7661 27.4104 58.4585L30.0776 55.4775ZM23.2584 52.8589L35.4984 49.7629L34.5176 45.8851L22.2776 48.9811L23.2584 52.8589ZM33.3924 49.0029C34.7306 50.8367 36.008 52.3526 37.2256 53.5173L39.9904 50.6267C39 49.6794 37.8774 48.3633 36.6236 46.6451L33.3924 49.0029ZM37.2256 53.5173C38.4396 54.6786 39.6921 55.5868 40.9882 56.1423L42.5638 52.4657C41.8439 52.1572 40.9844 51.5774 39.9904 50.6267L37.2256 53.5173ZM41.0187 56.1551C42.3175 56.6864 43.6789 56.952 45.088 56.952V52.952C44.1931 52.952 43.3465 52.7856 42.5333 52.4529L41.0187 56.1551ZM45.088 56.952C48.7756 56.952 52.0132 55.4276 54.7377 52.5942L51.8543 49.8218C49.7788 51.9804 47.5444 52.952 45.088 52.952V56.952ZM51.7625 52.4919L56.9465 58.6839L60.0135 56.1161L54.8295 49.9241L51.7625 52.4919ZM56.9377 56.1267C53.9342 59.7647 49.979 61.592 44.872 61.592V65.592C51.093 65.592 56.2098 63.2913 60.0223 58.6733L56.9377 56.1267ZM28.384 44.928C30.8705 44.928 33.196 44.5039 35.3351 43.6263L33.8169 39.9257C32.212 40.5841 30.4095 40.928 28.384 40.928V44.928ZM35.3188 43.633C37.4863 42.766 39.3957 41.5127 41.0302 39.8782L38.2018 37.0498C36.9563 38.2952 35.5057 39.25 33.8332 39.919L35.3188 43.633ZM41.0302 39.8782C42.6731 38.2353 43.9265 36.2949 44.7912 34.0791L41.0648 32.6249C40.3935 34.3451 39.4389 35.8127 38.2018 37.0498L41.0302 39.8782ZM44.7819 34.1024C45.702 31.8292 46.152 29.3881 46.152 26.8H42.152C42.152 28.9159 41.786 30.8428 41.0741 32.6016L44.7819 34.1024ZM46.152 26.8C46.152 24.1703 45.7041 21.7217 44.7755 19.482L41.0805 21.014C41.7839 22.7103 42.152 24.6297 42.152 26.8H46.152ZM44.7912 19.5209C43.9265 17.3051 42.6731 15.3647 41.0302 13.7218L38.2018 16.5502C39.4389 17.7873 40.3935 19.2549 41.0648 20.9751L44.7912 19.5209ZM41.0302 13.7218C39.3957 12.0872 37.4863 10.834 35.3188 9.96704L33.8332 13.681C35.5057 14.35 36.9563 15.3047 38.2018 16.5502L41.0302 13.7218ZM35.3351 9.97366C33.196 9.09608 30.8705 8.672 28.384 8.672V12.672C30.4095 12.672 32.212 13.0159 33.8169 13.6743L35.3351 9.97366ZM28.384 8.672C25.8968 8.672 23.5541 9.09628 21.3772 9.96704L22.8628 13.681C24.5259 13.0157 26.3592 12.672 28.384 12.672V8.672ZM21.3772 9.96704C19.2097 10.834 17.3003 12.0872 15.6658 13.7218L18.4942 16.5502C19.7397 15.3047 21.1903 14.35 22.8628 13.681L21.3772 9.96704ZM15.642 13.746C14.0647 15.3777 12.8265 17.297 11.9205 19.482L15.6155 21.014C16.3415 19.263 17.3113 17.7743 18.518 16.526L15.642 13.746ZM11.9048 19.5209C11.035 21.75 10.616 24.1848 10.616 26.8H14.616C14.616 24.6152 14.965 22.682 15.6312 20.9751L11.9048 19.5209ZM10.616 26.8C10.616 29.3733 11.0369 31.8009 11.899 34.064L15.637 32.64C14.9631 30.8711 14.616 28.9307 14.616 26.8H10.616ZM11.9205 34.118C12.8265 36.303 14.0647 38.2223 15.642 39.854L18.518 37.074C17.3113 35.8257 16.3415 34.337 15.6155 32.586L11.9205 34.118ZM15.6658 39.8782C17.3003 41.5127 19.2097 42.766 21.3772 43.633L22.8628 39.919C21.1903 39.25 19.7397 38.2952 18.4942 37.0498L15.6658 39.8782ZM21.3772 43.633C23.5541 44.5037 25.8968 44.928 28.384 44.928V40.928C26.3592 40.928 24.5259 40.5843 22.8628 39.919L21.3772 43.633ZM71.638 50.704L70.7436 52.4929L70.7504 52.4962L70.7571 52.4996L71.638 50.704ZM65.806 45.016L64.044 45.9623L64.0477 45.9692L64.0515 45.976L65.806 45.016ZM63.718 13.264V11.264H61.718V13.264H63.718ZM74.95 13.264H76.95V11.264H74.95V13.264ZM76.966 40.624L75.4608 41.941L75.4827 41.966L75.5055 41.9903L76.966 40.624ZM87.406 41.776L88.3504 43.539L88.3745 43.5261L88.3983 43.5125L87.406 41.776ZM90.574 38.32L92.3629 39.2144L92.3683 39.2035L92.3736 39.1925L90.574 38.32ZM91.726 13.264V11.264H89.726V13.264H91.726ZM102.958 13.264H104.958V11.264H102.958V13.264ZM102.958 52V54H104.958V52H102.958ZM92.302 52H90.302V54H92.302V52ZM92.302 41.344L93.9958 40.2805L90.302 34.3978V41.344H92.302ZM94.246 44.44L96.0475 45.3086L96.5277 44.3127L95.9398 43.3765L94.246 44.44ZM88.486 50.56L89.4342 52.321L89.446 52.3145L88.486 50.56ZM80.278 50.576C77.326 50.576 74.7538 50.0048 72.5189 48.9084L70.7571 52.4996C73.6102 53.8992 76.798 54.576 80.278 54.576V50.576ZM72.5324 48.9151C70.4157 47.8568 68.7651 46.2574 67.5605 44.056L64.0515 45.976C65.6309 48.8626 67.8683 51.0552 70.7436 52.4929L72.5324 48.9151ZM67.568 44.0697C66.3777 41.8534 65.718 38.9176 65.718 35.152H61.718C61.718 39.3544 62.4503 42.9946 64.044 45.9623L67.568 44.0697ZM65.718 35.152V13.264H61.718V35.152H65.718ZM63.718 15.264H74.95V11.264H63.718V15.264ZM72.95 13.264V33.496H76.95V13.264H72.95ZM72.95 33.496C72.95 36.9314 73.6584 39.881 75.4608 41.941L78.4712 39.307C77.5856 38.295 76.95 36.4925 76.95 33.496H72.95ZM75.5055 41.9903C77.3583 43.9709 79.8823 44.856 82.798 44.856V40.856C80.7217 40.856 79.3577 40.2531 78.4265 39.2577L75.5055 41.9903ZM82.798 44.856C84.8111 44.856 86.6791 44.4343 88.3504 43.539L86.4616 40.013C85.4449 40.5577 84.2409 40.856 82.798 40.856V44.856ZM88.3983 43.5125C90.1221 42.5274 91.4383 41.0634 92.3629 39.2144L88.7851 37.4256C88.1737 38.6486 87.3779 39.4886 86.4137 40.0395L88.3983 43.5125ZM92.3736 39.1925C93.3101 37.2611 93.726 34.9734 93.726 32.416H89.726C89.726 34.5626 89.3739 36.2109 88.7744 37.4475L92.3736 39.1925ZM93.726 32.416V13.264H89.726V32.416H93.726ZM91.726 15.264H102.958V11.264H91.726V15.264ZM100.958 13.264V52H104.958V13.264H100.958ZM102.958 50H92.302V54H102.958V50ZM94.302 52V41.344H90.302V52H94.302ZM90.6082 42.4075L92.5522 45.5035L95.9398 43.3765L93.9958 40.2805L90.6082 42.4075ZM92.4445 43.5714C91.3241 45.8952 89.6927 47.6199 87.526 48.8055L89.446 52.3145C92.3673 50.7161 94.5759 48.3608 96.0475 45.3086L92.4445 43.5714ZM87.5378 48.7991C85.3479 49.9783 82.9401 50.576 80.278 50.576V54.576C83.5679 54.576 86.6321 53.8298 89.4342 52.3209L87.5378 48.7991ZM120.924 49.984L119.999 51.7572L120.009 51.7626L120.924 49.984ZM113.22 42.928L111.507 43.961L111.511 43.9671L111.514 43.9731L113.22 42.928ZM113.148 22.336L111.435 21.303L111.43 21.3111L113.148 22.336ZM120.564 15.28L121.512 17.0409L121.522 17.0353L121.533 17.0296L120.564 15.28ZM141.372 15.136L140.422 16.896L140.438 16.905L140.455 16.9136L141.372 15.136ZM148.644 22.048L146.919 23.0609L146.926 23.0729L148.644 22.048ZM151.236 34.288L153.227 34.4691L153.228 34.4616L153.229 34.4541L151.236 34.288ZM151.092 35.8V37.8H152.902L153.082 35.999L151.092 35.8ZM119.628 35.8H117.628V37.8H119.628V35.8ZM119.628 29.248V27.248H117.628V29.248H119.628ZM145.188 29.248L146.008 31.0718L145.188 27.248V29.248ZM140.868 31.192H138.868V34.2852L141.688 33.0158L140.868 31.192ZM139.644 25.936L137.89 26.8977V26.8977L139.644 25.936ZM136.26 22.48L135.231 24.195L135.252 24.2078L135.274 24.22L136.26 22.48ZM126.108 22.48L127.094 24.22L127.103 24.2149L127.112 24.2096L126.108 22.48ZM122.724 26.008L124.477 26.9697L124.484 26.958L124.49 26.9463L122.724 26.008ZM122.868 38.68L121.122 39.6556L121.139 39.6864L121.157 39.7166L122.868 38.68ZM126.828 42.352L125.913 44.1306L125.943 44.146L125.974 44.1605L126.828 42.352ZM138.276 42.64L137.543 40.7792L137.533 40.7831L137.523 40.7871L138.276 42.64ZM142.596 39.832L144.066 38.4761L142.68 36.9738L141.208 38.3914L142.596 39.832ZM148.572 46.312L150.072 47.6341L151.264 46.2813L150.042 44.9561L148.572 46.312ZM141.876 50.992L142.607 52.8535L142.621 52.8479L142.636 52.842L141.876 50.992ZM132.588 50.576C128.436 50.576 124.871 49.7652 121.838 48.2054L120.009 51.7626C123.696 53.6588 127.907 54.576 132.588 54.576V50.576ZM121.849 48.2108C118.835 46.6382 116.546 44.5283 114.925 41.8829L111.514 43.9731C113.541 47.2797 116.389 49.8738 119.999 51.7572L121.849 48.2108ZM114.932 41.895C113.313 39.2098 112.484 36.1408 112.484 32.632H108.484C108.484 36.8032 109.479 40.5982 111.507 43.961L114.932 41.895ZM112.484 32.632C112.484 29.0598 113.296 25.9905 114.865 23.3609L111.43 21.3111C109.448 24.6335 108.484 28.4282 108.484 32.632H112.484ZM114.86 23.369C116.499 20.6528 118.706 18.5517 121.512 17.0409L119.615 13.5191C116.181 15.3683 113.445 17.9712 111.435 21.303L114.86 23.369ZM121.533 17.0296C124.326 15.4824 127.515 14.688 131.148 14.688V10.688C126.909 10.688 123.041 11.6216 119.595 13.5304L121.533 17.0296ZM131.148 14.688C134.643 14.688 137.719 15.4374 140.422 16.896L142.322 13.376C138.976 11.5706 135.236 10.688 131.148 10.688V14.688ZM140.455 16.9136C143.186 18.3216 145.332 20.358 146.919 23.0608L150.368 21.0352C148.404 17.69 145.702 15.1184 142.288 13.3584L140.455 16.9136ZM146.926 23.0729C148.483 25.681 149.308 28.8867 149.308 32.776H153.308C153.308 28.3133 152.357 24.367 150.361 21.0231L146.926 23.0729ZM149.308 32.776C149.308 33.1377 149.287 33.584 149.243 34.1219L153.229 34.4541C153.28 33.84 153.308 33.2783 153.308 32.776H149.308ZM149.244 34.1069C149.196 34.6295 149.149 35.1275 149.102 35.601L153.082 35.999C153.13 35.5125 153.179 35.0025 153.227 34.4691L149.244 34.1069ZM151.092 33.8H119.628V37.8H151.092V33.8ZM121.628 35.8V29.248H117.628V35.8H121.628ZM119.628 31.248H145.188V27.248H119.628V31.248ZM144.367 27.4242L140.047 29.3682L141.688 33.0158L146.008 31.0718L144.367 27.4242ZM142.868 31.192C142.868 28.903 142.403 26.8079 141.397 24.9743L137.89 26.8977C138.517 28.0401 138.868 29.449 138.868 31.192H142.868ZM141.397 24.9743C140.407 23.1693 139.017 21.7439 137.246 20.74L135.274 24.22C136.382 24.8481 137.248 25.7267 137.89 26.8977L141.397 24.9743ZM137.289 20.765C135.495 19.689 133.449 19.184 131.22 19.184V23.184C132.83 23.184 134.144 23.543 135.231 24.195L137.289 20.765ZM131.22 19.184C128.989 19.184 126.931 19.6894 125.103 20.7504L127.112 24.2096C128.261 23.5426 129.611 23.184 131.22 23.184V19.184ZM125.122 20.74C123.333 21.7533 121.942 23.2156 120.957 25.0697L124.49 26.9463C125.137 25.7284 126.002 24.8387 127.094 24.22L125.122 20.74ZM120.97 25.0463C119.961 26.8865 119.5 29.008 119.5 31.336H123.5C123.5 29.536 123.854 28.1055 124.477 26.9697L120.97 25.0463ZM119.5 31.336V33.064H123.5V31.336H119.5ZM119.5 33.064C119.5 35.4725 120.022 37.6885 121.122 39.6556L124.614 37.7044C123.889 36.4075 123.5 34.8795 123.5 33.064H119.5ZM121.157 39.7166C122.313 41.6233 123.911 43.1011 125.913 44.1306L127.742 40.5734C126.384 39.8749 125.343 38.9047 124.578 37.6434L121.157 39.7166ZM125.974 44.1605C128.018 45.1259 130.336 45.576 132.876 45.576V41.576C130.807 41.576 129.093 41.2101 127.682 40.5435L125.974 44.1605ZM132.876 45.576C135.137 45.576 137.203 45.2347 139.028 44.4929L137.523 40.7871C136.277 41.2933 134.743 41.576 132.876 41.576V45.576ZM139.009 44.5008C140.85 43.7755 142.509 42.6917 143.983 41.2726L141.208 38.3914C140.09 39.4683 138.87 40.2565 137.543 40.7792L139.009 44.5008ZM141.125 41.1879L147.101 47.6679L150.042 44.9561L144.066 38.4761L141.125 41.1879ZM147.071 44.9899C145.514 46.7569 143.543 48.145 141.116 49.142L142.636 52.842C145.584 51.631 148.077 49.8991 150.072 47.6341L147.071 44.9899ZM141.144 49.1305C138.733 50.0777 135.893 50.576 132.588 50.576V54.576C136.29 54.576 139.642 54.0183 142.607 52.8535L141.144 49.1305ZM181.491 52H179.491V54H181.491V52ZM181.491 44.44H183.491V44.024L183.325 43.6425L181.491 44.44ZM180.771 42.784H178.771V43.2L178.937 43.5815L180.771 42.784ZM178.539 23.632L177.174 25.0941L177.186 25.1053L177.198 25.1162L178.539 23.632ZM165.723 22.624L166.327 24.5305L166.341 24.526L166.355 24.5214L165.723 22.624ZM160.683 25.216L158.904 26.13L160.017 28.2967L161.926 26.783L160.683 25.216ZM156.651 17.368L155.499 15.733L154.077 16.7348L154.872 18.282L156.651 17.368ZM164.283 13.912L163.754 11.9832L164.283 13.912ZM187.107 16.864L188.405 15.3423L187.107 16.864ZM192.003 52V54H194.003V52H192.003ZM161.907 51.064L161.028 52.8608L161.045 52.8687L161.061 52.8764L161.907 51.064ZM156.939 46.816L158.617 45.7276L156.939 46.816ZM156.867 34.792L155.203 33.6826L155.192 33.6988L155.181 33.7152L156.867 34.792ZM162.267 30.76L162.997 32.6219L163.013 32.6158L163.028 32.6094L162.267 30.76ZM182.139 29.248H184.139V27.248H182.139V29.248ZM182.139 35.8V37.8H184.139V35.8H182.139ZM167.595 37.096L166.293 35.5775L166.275 35.5932L166.257 35.6094L167.595 37.096ZM167.811 43.792L166.578 45.367L166.616 45.3964L166.655 45.424L167.811 43.792ZM177.531 43.72L178.535 45.4496L178.556 45.4376L178.576 45.4252L177.531 43.72ZM180.771 39.76L182.668 39.1275L180.916 33.8697L178.907 39.0351L180.771 39.76ZM182.499 44.944L184.4 45.5655L184.605 44.9379L184.396 44.3115L182.499 44.944ZM178.035 50.632L177.006 48.917L178.035 50.632ZM183.491 52V44.44H179.491V52H183.491ZM183.325 43.6425L182.605 41.9865L178.937 43.5815L179.657 45.2374L183.325 43.6425ZM182.771 42.784V29.248H178.771V42.784H182.771ZM182.771 29.248C182.771 26.4036 181.87 23.9453 179.879 22.1478L177.198 25.1162C178.184 26.0066 178.771 27.2924 178.771 29.248H182.771ZM179.904 22.1699C177.938 20.3351 175.111 19.616 171.843 19.616V23.616C174.623 23.616 176.26 24.2409 177.174 25.0941L179.904 22.1699ZM171.843 19.616C169.558 19.616 167.304 19.9887 165.09 20.7266L166.355 24.5214C168.174 23.9153 170 23.616 171.843 23.616V19.616ZM165.118 20.7175C162.956 21.4033 161.051 22.3717 159.44 23.649L161.926 26.783C163.099 25.8523 164.554 25.0927 166.327 24.5305L165.118 20.7175ZM162.462 24.302L158.43 16.454L154.872 18.282L158.904 26.13L162.462 24.302ZM157.803 19.003C159.693 17.6713 162.017 16.6072 164.812 15.8408L163.754 11.9832C160.597 12.8488 157.833 14.0887 155.499 15.733L157.803 19.003ZM164.812 15.8408C167.616 15.0718 170.462 14.688 173.355 14.688V10.688C170.103 10.688 166.902 11.1202 163.754 11.9832L164.812 15.8408ZM173.355 14.688C178.962 14.688 183.023 16.0093 185.809 18.3857L188.405 15.3423C184.663 12.1507 179.556 10.688 173.355 10.688V14.688ZM185.809 18.3857C188.478 20.6618 190.003 24.3467 190.003 29.896H194.003C194.003 23.6373 192.264 18.6342 188.405 15.3423L185.809 18.3857ZM190.003 29.896V52H194.003V29.896H190.003ZM192.003 50H181.491V54H192.003V50ZM169.683 50.576C166.875 50.576 164.587 50.1075 162.753 49.2516L161.061 52.8764C163.547 54.0365 166.443 54.576 169.683 54.576V50.576ZM162.785 49.2672C160.906 48.3484 159.546 47.1598 158.617 45.7276L155.261 47.9044C156.636 50.0242 158.588 51.6676 161.028 52.8608L162.785 49.2672ZM158.617 45.7276C157.684 44.2901 157.211 42.6792 157.211 40.84H153.211C153.211 43.4168 153.889 45.7899 155.261 47.9044L158.617 45.7276ZM157.211 40.84C157.211 38.869 157.678 37.2366 158.552 35.8688L155.181 33.7152C153.847 35.8034 153.211 38.203 153.211 40.84H157.211ZM158.531 35.9014C159.402 34.5946 160.828 33.4724 162.997 32.6219L161.537 28.8981C158.809 29.9676 156.636 31.5334 155.203 33.6826L158.531 35.9014ZM163.028 32.6094C165.147 31.7369 168.053 31.248 171.843 31.248V27.248C167.761 27.248 164.283 27.767 161.505 28.9106L163.028 32.6094ZM171.843 31.248H182.139V27.248H171.843V31.248ZM180.139 29.248V35.8H184.139V29.248H180.139ZM182.139 33.8H173.067V37.8H182.139V33.8ZM173.067 33.8C170.352 33.8 167.883 34.2151 166.293 35.5775L168.896 38.6145C169.323 38.2489 170.502 37.8 173.067 37.8V33.8ZM166.257 35.6094C164.874 36.8542 164.155 38.4753 164.155 40.336H168.155C168.155 39.6047 168.396 39.0658 168.933 38.5826L166.257 35.6094ZM164.155 40.336C164.155 42.3716 164.975 44.1121 166.578 45.367L169.043 42.217C168.439 41.7439 168.155 41.1804 168.155 40.336H164.155ZM166.655 45.424C168.254 46.5571 170.267 47.016 172.491 47.016V43.016C170.779 43.016 169.671 42.6589 168.967 42.16L166.655 45.424ZM172.491 47.016C174.684 47.016 176.716 46.5061 178.535 45.4496L176.527 41.9904C175.37 42.6619 174.042 43.016 172.491 43.016V47.016ZM178.576 45.4252C180.461 44.27 181.815 42.5933 182.635 40.4849L178.907 39.0351C178.383 40.3827 177.577 41.346 176.486 42.0148L178.576 45.4252ZM178.874 40.3925L180.602 45.5765L184.396 44.3115L182.668 39.1275L178.874 40.3925ZM180.598 44.3225C179.925 46.3822 178.734 47.8799 177.006 48.917L179.064 52.347C181.655 50.7921 183.441 48.4978 184.4 45.5655L180.598 44.3225ZM177.006 48.917C175.248 49.9718 172.852 50.576 169.683 50.576V54.576C173.33 54.576 176.502 53.8841 179.064 52.347L177.006 48.917ZM210.01 50.056L209.074 51.8236L209.084 51.829L209.094 51.8343L210.01 50.056ZM202.306 42.928L200.593 43.961L200.599 43.9709L200.605 43.9807L202.306 42.928ZM202.306 22.336L200.605 21.2833L200.6 21.2909L202.306 22.336ZM210.01 15.28L210.925 17.0583L210.935 17.053L210.945 17.0476L210.01 15.28ZM231.826 15.28L230.833 17.0165L230.844 17.0225L230.854 17.0283L231.826 15.28ZM238.522 22.552L239.468 24.3139L241.117 23.4282L240.342 21.7244L238.522 22.552ZM229.81 27.232L228.059 28.1994L229.015 29.9291L230.756 28.9939L229.81 27.232ZM225.994 23.2L224.989 24.9296L225.001 24.9364L225.013 24.9431L225.994 23.2ZM215.914 23.2L216.894 24.9431L215.914 23.2ZM212.242 26.872L210.508 25.8741L210.497 25.8941L210.486 25.9143L212.242 26.872ZM212.242 38.392L210.486 39.3497L210.497 39.3699L210.508 39.3899L212.242 38.392ZM215.914 42.064L216.894 40.3208L215.914 42.064ZM225.994 42.136L226.955 43.8896L226.965 43.8844L226.974 43.8792L225.994 42.136ZM229.81 38.032L230.767 36.2762L229.002 35.3133L228.049 37.0838L229.81 38.032ZM238.522 42.784L240.338 43.6221L241.121 41.9239L239.479 41.0282L238.522 42.784ZM231.826 50.056L232.797 51.8043L232.807 51.7985L232.818 51.7925L231.826 50.056ZM221.17 50.576C217.268 50.576 213.869 49.7931 210.925 48.2777L209.094 51.8343C212.678 53.6789 216.719 54.576 221.17 54.576V50.576ZM210.945 48.2884C207.983 46.7199 205.684 44.5854 204.006 41.8753L200.605 43.9807C202.671 47.3186 205.509 49.9361 209.074 51.8236L210.945 48.2884ZM204.018 41.895C202.399 39.2098 201.57 36.1408 201.57 32.632H197.57C197.57 36.8032 198.565 40.5982 200.593 43.961L204.018 41.895ZM201.57 32.632C201.57 29.0697 202.401 26.0077 204.011 23.3811L200.6 21.2909C198.562 24.6163 197.57 28.4183 197.57 32.632H201.57ZM204.006 23.3887C205.681 20.6836 207.973 18.5778 210.925 17.0583L209.094 13.5017C205.518 15.3422 202.674 17.9404 200.605 21.2833L204.006 23.3887ZM210.945 17.0476C213.885 15.4912 217.277 14.688 221.17 14.688V10.688C216.711 10.688 212.662 11.6128 209.074 13.5124L210.945 17.0476ZM221.17 14.688C224.962 14.688 228.16 15.4887 230.833 17.0165L232.818 13.5435C229.443 11.6153 225.538 10.688 221.17 10.688V14.688ZM230.854 17.0283C233.502 18.499 235.437 20.599 236.701 23.3796L240.342 21.7244C238.726 18.1689 236.198 15.421 232.797 13.5317L230.854 17.0283ZM237.575 20.7901L228.863 25.4701L230.756 28.9939L239.468 24.3139L237.575 20.7901ZM231.56 26.2646C230.406 24.1756 228.889 22.5339 226.974 21.4568L225.013 24.9431C226.17 25.5941 227.198 26.6404 228.059 28.1994L231.56 26.2646ZM226.998 21.4704C225.195 20.4234 223.215 19.904 221.098 19.904V23.904C222.533 23.904 223.817 24.2486 224.989 24.9296L226.998 21.4704ZM221.098 19.904C218.866 19.904 216.795 20.4096 214.933 21.4568L216.894 24.9431C218.104 24.2624 219.49 23.904 221.098 23.904V19.904ZM214.933 21.4568C213.072 22.5038 211.593 23.9906 210.508 25.8741L213.975 27.8699C214.714 26.5854 215.683 25.6242 216.894 24.9431L214.933 21.4568ZM210.486 25.9143C209.426 27.8568 208.946 30.1237 208.946 32.632H212.946C212.946 30.6283 213.329 29.0552 213.997 27.8297L210.486 25.9143ZM208.946 32.632C208.946 35.1403 209.426 37.4072 210.486 39.3497L213.997 37.4343C213.329 36.2088 212.946 34.6357 212.946 32.632H208.946ZM210.508 39.3899C211.593 41.2734 213.072 42.7602 214.933 43.8072L216.894 40.3208C215.683 39.6398 214.714 38.6786 213.975 37.3941L210.508 39.3899ZM214.933 43.8072C216.795 44.8544 218.866 45.36 221.098 45.36V41.36C219.49 41.36 218.104 41.0016 216.894 40.3208L214.933 43.8072ZM221.098 45.36C223.194 45.36 225.159 44.8749 226.955 43.8896L225.032 40.3824C223.853 41.0291 222.554 41.36 221.098 41.36V45.36ZM226.974 43.8792C228.903 42.7942 230.42 41.1163 231.571 38.9802L228.049 37.0838C227.183 38.6917 226.156 39.7498 225.013 40.3928L226.974 43.8792ZM228.852 39.7878L237.564 44.5398L239.479 41.0282L230.767 36.2762L228.852 39.7878ZM236.706 41.9459C235.443 44.6826 233.501 46.795 230.833 48.3195L232.818 51.7925C236.198 49.861 238.721 47.1254 240.338 43.6221L236.706 41.9459ZM230.854 48.3077C228.177 49.7953 224.971 50.576 221.17 50.576V54.576C225.528 54.576 229.427 53.6767 232.797 51.8043L230.854 48.3077ZM252.057 50.056L251.121 51.8236L251.131 51.829L251.141 51.8343L252.057 50.056ZM244.352 42.928L242.64 43.961L242.646 43.9709L242.652 43.9807L244.352 42.928ZM244.352 22.336L242.652 21.2833L242.647 21.2909L244.352 22.336ZM252.057 15.28L252.972 17.0583L252.982 17.053L252.992 17.0476L252.057 15.28ZM273.872 15.28L272.88 17.0165L272.891 17.0225L272.901 17.0283L273.872 15.28ZM280.569 22.552L281.515 24.3139L283.164 23.4282L282.389 21.7244L280.569 22.552ZM271.857 27.232L270.106 28.1994L271.062 29.9291L272.803 28.9939L271.857 27.232ZM268.04 23.2L267.036 24.9296L267.048 24.9364L267.06 24.9431L268.04 23.2ZM257.961 23.2L258.941 24.9431L257.961 23.2ZM254.289 26.872L252.555 25.8741L252.544 25.8941L252.533 25.9143L254.289 26.872ZM254.289 38.392L252.533 39.3497L252.544 39.3699L252.555 39.3899L254.289 38.392ZM257.961 42.064L258.941 40.3208L257.961 42.064ZM268.04 42.136L269.002 43.8896L269.012 43.8844L269.021 43.8792L268.04 42.136ZM271.857 38.032L272.814 36.2762L271.049 35.3133L270.096 37.0838L271.857 38.032ZM280.569 42.784L282.384 43.6221L283.168 41.9239L281.526 41.0282L280.569 42.784ZM273.872 50.056L274.844 51.8043L274.854 51.7985L274.865 51.7925L273.872 50.056ZM263.216 50.576C259.315 50.576 255.916 49.7931 252.972 48.2777L251.141 51.8343C254.725 53.6789 258.766 54.576 263.216 54.576V50.576ZM252.992 48.2884C250.03 46.7199 247.731 44.5854 246.053 41.8753L242.652 43.9807C244.718 47.3186 247.555 49.9361 251.121 51.8236L252.992 48.2884ZM246.065 41.895C244.445 39.2098 243.617 36.1408 243.617 32.632H239.617C239.617 36.8032 240.612 40.5982 242.64 43.961L246.065 41.895ZM243.617 32.632C243.617 29.0697 244.448 26.0077 246.058 23.3811L242.647 21.2909C240.609 24.6163 239.617 28.4183 239.617 32.632H243.617ZM246.053 23.3887C247.728 20.6836 250.02 18.5778 252.972 17.0583L251.141 13.5017C247.565 15.3422 244.721 17.9404 242.652 21.2833L246.053 23.3887ZM252.992 17.0476C255.932 15.4912 259.324 14.688 263.216 14.688V10.688C258.757 10.688 254.709 11.6128 251.121 13.5124L252.992 17.0476ZM263.216 14.688C267.009 14.688 270.207 15.4887 272.88 17.0165L274.865 13.5435C271.49 11.6153 267.584 10.688 263.216 10.688V14.688ZM272.901 17.0283C275.548 18.499 277.484 20.599 278.748 23.3796L282.389 21.7244C280.773 18.1689 278.245 15.421 274.844 13.5317L272.901 17.0283ZM279.622 20.7901L270.91 25.4701L272.803 28.9939L281.515 24.3139L279.622 20.7901ZM273.607 26.2646C272.453 24.1756 270.936 22.5339 269.021 21.4568L267.06 24.9431C268.217 25.5941 269.244 26.6404 270.106 28.1994L273.607 26.2646ZM269.045 21.4704C267.242 20.4234 265.261 19.904 263.145 19.904V23.904C264.58 23.904 265.863 24.2486 267.036 24.9296L269.045 21.4704ZM263.145 19.904C260.913 19.904 258.842 20.4096 256.98 21.4568L258.941 24.9431C260.151 24.2624 261.536 23.904 263.145 23.904V19.904ZM256.98 21.4568C255.119 22.5038 253.64 23.9906 252.555 25.8741L256.022 27.8699C256.761 26.5854 257.73 25.6242 258.941 24.9431L256.98 21.4568ZM252.533 25.9143C251.473 27.8568 250.993 30.1237 250.993 32.632H254.992C254.992 30.6283 255.376 29.0552 256.044 27.8297L252.533 25.9143ZM250.993 32.632C250.993 35.1403 251.473 37.4072 252.533 39.3497L256.044 37.4343C255.376 36.2088 254.992 34.6357 254.992 32.632H250.993ZM252.555 39.3899C253.64 41.2734 255.119 42.7602 256.98 43.8072L258.941 40.3208C257.73 39.6398 256.761 38.6786 256.022 37.3941L252.555 39.3899ZM256.98 43.8072C258.842 44.8544 260.913 45.36 263.145 45.36V41.36C261.536 41.36 260.151 41.0016 258.941 40.3208L256.98 43.8072ZM263.145 45.36C265.24 45.36 267.206 44.8749 269.002 43.8896L267.079 40.3824C265.899 41.0291 264.601 41.36 263.145 41.36V45.36ZM269.021 43.8792C270.95 42.7942 272.467 41.1163 273.617 38.9802L270.096 37.0838C269.23 38.6917 268.203 39.7498 267.06 40.3928L269.021 43.8792ZM270.899 39.7878L279.611 44.5398L281.526 41.0282L272.814 36.2762L270.899 39.7878ZM278.753 41.9459C277.49 44.6826 275.548 46.795 272.88 48.3195L274.865 51.7925C278.245 49.861 280.768 47.1254 282.384 43.6221L278.753 41.9459ZM272.901 48.3077C270.224 49.7953 267.018 50.576 263.216 50.576V54.576C267.575 54.576 271.473 53.6767 274.844 51.8043L272.901 48.3077Z" fill="white" mask="url(#path-1-outside-1_916_282)"/>
</svg>
