<svg width="375" height="66" viewBox="0 0 375 66" fill="none" xmlns="http://www.w3.org/2000/svg">
<mask id="path-1-outside-1_916_588" maskUnits="userSpaceOnUse" x="-2" y="-2" width="379" height="70" fill="black">
<rect fill="white" x="-2" y="-2" width="379" height="70"/>
<path d="M28.384 54.864C24.448 54.864 20.776 54.216 17.368 52.92C14.008 51.624 11.08 49.8 8.584 47.448C6.136 45.096 4.216 42.336 2.824 39.168C1.48 36 0.808 32.544 0.808 28.8C0.808 25.056 1.48 21.6 2.824 18.432C4.216 15.264 6.16 12.504 8.656 10.152C11.152 7.8 14.08 5.976 17.44 4.68C20.8 3.384 24.448 2.736 28.384 2.736C32.368 2.736 36.016 3.384 39.328 4.68C42.688 5.976 45.592 7.8 48.04 10.152C50.536 12.456 52.48 15.192 53.872 18.36C55.264 21.528 55.96 25.008 55.96 28.8C55.96 32.544 55.264 36.024 53.872 39.24C52.48 42.408 50.536 45.168 48.04 47.52C45.592 49.824 42.688 51.624 39.328 52.92C36.016 54.216 32.368 54.864 28.384 54.864ZM44.872 65.592C42.904 65.592 41.032 65.376 39.256 64.944C37.528 64.512 35.8 63.816 34.072 62.856C32.392 61.896 30.616 60.6 28.744 58.968C26.92 57.336 24.928 55.32 22.768 52.92L35.008 49.824C36.304 51.6 37.504 53.016 38.608 54.072C39.712 55.128 40.768 55.872 41.776 56.304C42.832 56.736 43.936 56.952 45.088 56.952C48.16 56.952 50.896 55.704 53.296 53.208L58.48 59.4C55.072 63.528 50.536 65.592 44.872 65.592ZM28.384 44.928C30.64 44.928 32.704 44.544 34.576 43.776C36.496 43.008 38.176 41.904 39.616 40.464C41.056 39.024 42.16 37.32 42.928 35.352C43.744 33.336 44.152 31.152 44.152 28.8C44.152 26.4 43.744 24.216 42.928 22.248C42.16 20.28 41.056 18.576 39.616 17.136C38.176 15.696 36.496 14.592 34.576 13.824C32.704 13.056 30.64 12.672 28.384 12.672C26.128 12.672 24.04 13.056 22.12 13.824C20.2 14.592 18.52 15.696 17.08 17.136C15.688 18.576 14.584 20.28 13.768 22.248C13 24.216 12.616 26.4 12.616 28.8C12.616 31.152 13 33.336 13.768 35.352C14.584 37.32 15.688 39.024 17.08 40.464C18.52 41.904 20.2 43.008 22.12 43.776C24.04 44.544 26.128 44.928 28.384 44.928ZM80.278 54.576C77.062 54.576 74.182 53.952 71.638 52.704C69.142 51.456 67.198 49.56 65.806 47.016C64.414 44.424 63.718 41.136 63.718 37.152V15.264H74.95V35.496C74.95 38.712 75.622 41.088 76.966 42.624C78.358 44.112 80.302 44.856 82.798 44.856C84.526 44.856 86.062 44.496 87.406 43.776C88.75 43.008 89.806 41.856 90.574 40.32C91.342 38.736 91.726 36.768 91.726 34.416V15.264H102.958V54H92.302V43.344L94.246 46.44C92.95 49.128 91.03 51.168 88.486 52.56C85.99 53.904 83.254 54.576 80.278 54.576ZM132.588 54.576C128.172 54.576 124.284 53.712 120.924 51.984C117.612 50.256 115.044 47.904 113.22 44.928C111.396 41.904 110.484 38.472 110.484 34.632C110.484 30.744 111.372 27.312 113.148 24.336C114.972 21.312 117.444 18.96 120.564 17.28C123.684 15.552 127.212 14.688 131.148 14.688C134.94 14.688 138.348 15.504 141.372 17.136C144.444 18.72 146.868 21.024 148.644 24.048C150.42 27.024 151.308 30.6 151.308 34.776C151.308 35.208 151.284 35.712 151.236 36.288C151.188 36.816 151.14 37.32 151.092 37.8H119.628V31.248H145.188L140.868 33.192C140.868 31.176 140.46 29.424 139.644 27.936C138.828 26.448 137.7 25.296 136.26 24.48C134.82 23.616 133.14 23.184 131.22 23.184C129.3 23.184 127.596 23.616 126.108 24.48C124.668 25.296 123.54 26.472 122.724 28.008C121.908 29.496 121.5 31.272 121.5 33.336V35.064C121.5 37.176 121.956 39.048 122.868 40.68C123.828 42.264 125.148 43.488 126.828 44.352C128.556 45.168 130.572 45.576 132.876 45.576C134.94 45.576 136.74 45.264 138.276 44.64C139.86 44.016 141.3 43.08 142.596 41.832L148.572 48.312C146.796 50.328 144.564 51.888 141.876 52.992C139.188 54.048 136.092 54.576 132.588 54.576ZM158.786 54V15.264H169.514V26.208L168.002 23.04C169.154 20.304 171.002 18.24 173.546 16.848C176.09 15.408 179.186 14.688 182.834 14.688V25.056C182.354 25.008 181.922 24.984 181.538 24.984C181.154 24.936 180.746 24.912 180.314 24.912C177.242 24.912 174.746 25.8 172.826 27.576C170.954 29.304 170.018 32.016 170.018 35.712V54H158.786ZM208.385 54.576C203.969 54.576 200.081 53.712 196.721 51.984C193.409 50.256 190.841 47.904 189.017 44.928C187.193 41.904 186.281 38.472 186.281 34.632C186.281 30.744 187.169 27.312 188.945 24.336C190.769 21.312 193.241 18.96 196.361 17.28C199.481 15.552 203.009 14.688 206.945 14.688C210.737 14.688 214.145 15.504 217.169 17.136C220.241 18.72 222.665 21.024 224.441 24.048C226.217 27.024 227.105 30.6 227.105 34.776C227.105 35.208 227.081 35.712 227.033 36.288C226.985 36.816 226.937 37.32 226.889 37.8H195.425V31.248H220.985L216.665 33.192C216.665 31.176 216.257 29.424 215.441 27.936C214.625 26.448 213.497 25.296 212.057 24.48C210.617 23.616 208.937 23.184 207.017 23.184C205.097 23.184 203.393 23.616 201.905 24.48C200.465 25.296 199.337 26.472 198.521 28.008C197.705 29.496 197.297 31.272 197.297 33.336V35.064C197.297 37.176 197.753 39.048 198.665 40.68C199.625 42.264 200.945 43.488 202.625 44.352C204.353 45.168 206.369 45.576 208.673 45.576C210.737 45.576 212.537 45.264 214.073 44.64C215.657 44.016 217.097 43.08 218.393 41.832L224.369 48.312C222.593 50.328 220.361 51.888 217.673 52.992C214.985 54.048 211.889 54.576 208.385 54.576ZM258.126 14.688C261.198 14.688 263.934 15.312 266.334 16.56C268.782 17.76 270.702 19.632 272.094 22.176C273.486 24.672 274.182 27.888 274.182 31.824V54H262.95V33.552C262.95 30.432 262.254 28.128 260.862 26.64C259.518 25.152 257.598 24.408 255.102 24.408C253.326 24.408 251.718 24.792 250.278 25.56C248.886 26.28 247.782 27.408 246.966 28.944C246.198 30.48 245.814 32.448 245.814 34.848V54H234.582V15.264H245.31V25.992L243.294 22.752C244.686 20.16 246.678 18.168 249.27 16.776C251.862 15.384 254.814 14.688 258.126 14.688ZM301.277 54.576C297.629 54.576 294.341 53.76 291.413 52.128C288.485 50.448 286.157 48.12 284.429 45.144C282.749 42.168 281.909 38.664 281.909 34.632C281.909 30.552 282.749 27.024 284.429 24.048C286.157 21.072 288.485 18.768 291.413 17.136C294.341 15.504 297.629 14.688 301.277 14.688C304.541 14.688 307.397 15.408 309.845 16.848C312.293 18.288 314.189 20.472 315.533 23.4C316.877 26.328 317.549 30.072 317.549 34.632C317.549 39.144 316.901 42.888 315.605 45.864C314.309 48.792 312.437 50.976 309.989 52.416C307.589 53.856 304.685 54.576 301.277 54.576ZM303.221 45.36C305.045 45.36 306.701 44.928 308.189 44.064C309.677 43.2 310.853 41.976 311.717 40.392C312.629 38.76 313.085 36.84 313.085 34.632C313.085 32.376 312.629 30.456 311.717 28.872C310.853 27.288 309.677 26.064 308.189 25.2C306.701 24.336 305.045 23.904 303.221 23.904C301.349 23.904 299.669 24.336 298.181 25.2C296.693 26.064 295.493 27.288 294.581 28.872C293.717 30.456 293.285 32.376 293.285 34.632C293.285 36.84 293.717 38.76 294.581 40.392C295.493 41.976 296.693 43.2 298.181 44.064C299.669 44.928 301.349 45.36 303.221 45.36ZM313.373 54V46.08L313.589 34.56L312.869 23.112V0.575997H324.101V54H313.373ZM352.929 54.576C348.801 54.576 345.129 53.712 341.913 51.984C338.745 50.256 336.225 47.904 334.353 44.928C332.529 41.904 331.617 38.472 331.617 34.632C331.617 30.744 332.529 27.312 334.353 24.336C336.225 21.312 338.745 18.96 341.913 17.28C345.129 15.552 348.801 14.688 352.929 14.688C357.009 14.688 360.657 15.552 363.873 17.28C367.089 18.96 369.609 21.288 371.433 24.264C373.257 27.24 374.169 30.696 374.169 34.632C374.169 38.472 373.257 41.904 371.433 44.928C369.609 47.904 367.089 50.256 363.873 51.984C360.657 53.712 357.009 54.576 352.929 54.576ZM352.929 45.36C354.801 45.36 356.481 44.928 357.969 44.064C359.457 43.2 360.633 41.976 361.497 40.392C362.361 38.76 362.793 36.84 362.793 34.632C362.793 32.376 362.361 30.456 361.497 28.872C360.633 27.288 359.457 26.064 357.969 25.2C356.481 24.336 354.801 23.904 352.929 23.904C351.057 23.904 349.377 24.336 347.889 25.2C346.401 26.064 345.201 27.288 344.289 28.872C343.425 30.456 342.993 32.376 342.993 34.632C342.993 36.84 343.425 38.76 344.289 40.392C345.201 41.976 346.401 43.2 347.889 44.064C349.377 44.928 351.057 45.36 352.929 45.36Z"/>
</mask>
<path d="M17.368 52.92L16.6482 54.786L16.6571 54.7894L17.368 52.92ZM8.584 47.448L7.19835 48.8902L7.20534 48.8969L7.2124 48.9036L8.584 47.448ZM2.824 39.168L0.982836 39.9491L0.987824 39.9609L0.992961 39.9725L2.824 39.168ZM2.824 18.432L0.992961 17.6275L0.987824 17.6391L0.982837 17.6509L2.824 18.432ZM17.44 4.68L16.7203 2.81399L17.44 4.68ZM39.328 4.68L38.5992 6.5425L38.6083 6.546L39.328 4.68ZM48.04 10.152L46.6544 11.5942L46.6688 11.6081L46.6834 11.6216L48.04 10.152ZM53.872 18.36L52.041 19.1645V19.1645L53.872 18.36ZM53.872 39.24L55.7031 40.0446L55.7074 40.0344L53.872 39.24ZM48.04 47.52L49.4107 48.9764L49.4116 48.9756L48.04 47.52ZM39.328 52.92L38.6082 51.054L38.5992 51.0575L39.328 52.92ZM39.256 64.944L38.7709 66.8843L38.7833 66.8873L39.256 64.944ZM34.072 62.856L33.0797 64.5925L33.0902 64.5985L33.1007 64.6043L34.072 62.856ZM28.744 58.968L27.4104 60.4585L27.42 60.4671L27.4297 60.4755L28.744 58.968ZM22.768 52.92L22.2776 50.9811L19.0638 51.794L21.2814 54.2579L22.768 52.92ZM35.008 49.824L36.6236 48.6451L35.8272 47.5538L34.5176 47.8851L35.008 49.824ZM38.608 54.072L39.9904 52.6267L38.608 54.072ZM41.776 56.304L40.9882 58.1423L41.0034 58.1488L41.0187 58.1551L41.776 56.304ZM53.296 53.208L54.8295 51.9241L53.3989 50.2154L51.8543 51.8218L53.296 53.208ZM58.48 59.4L60.0223 60.6733L61.0809 59.3911L60.0135 58.1161L58.48 59.4ZM34.576 43.776L33.8332 41.919L33.825 41.9223L33.8169 41.9257L34.576 43.776ZM39.616 40.464L38.2018 39.0498L39.616 40.464ZM42.928 35.352L41.0741 34.6016L41.0694 34.6132L41.0648 34.6249L42.928 35.352ZM42.928 22.248L41.0648 22.9751L41.0725 22.9946L41.0805 23.014L42.928 22.248ZM39.616 17.136L38.2018 18.5502V18.5502L39.616 17.136ZM34.576 13.824L33.8169 15.6743L33.825 15.6777L33.8332 15.681L34.576 13.824ZM22.12 13.824L21.3772 11.967L22.12 13.824ZM17.08 17.136L15.6658 15.7218L15.6538 15.7338L15.642 15.746L17.08 17.136ZM13.768 22.248L11.9205 21.482L11.9125 21.5014L11.9048 21.5209L13.768 22.248ZM13.768 35.352L11.899 36.064L11.9094 36.0912L11.9205 36.118L13.768 35.352ZM17.08 40.464L15.642 41.854L15.6538 41.8662L15.6658 41.8782L17.08 40.464ZM22.12 43.776L21.3772 45.633H21.3772L22.12 43.776ZM28.384 52.864C24.6715 52.864 21.2424 52.2536 18.0789 51.0506L16.6571 54.7894C20.3096 56.1784 24.2245 56.864 28.384 56.864V52.864ZM18.0877 51.054C14.9573 49.8465 12.2536 48.1578 9.9556 45.9924L7.2124 48.9036C9.9064 51.4422 13.0587 53.4015 16.6483 54.786L18.0877 51.054ZM9.96965 46.0058C7.71411 43.8387 5.94382 41.2965 4.65504 38.3635L0.992961 39.9725C2.48818 43.3755 4.55789 46.3533 7.19835 48.8902L9.96965 46.0058ZM4.66516 38.3869C3.43489 35.487 2.808 32.2994 2.808 28.8H-1.192C-1.192 32.7886 -0.474894 36.513 0.982836 39.9491L4.66516 38.3869ZM2.808 28.8C2.808 25.3006 3.43489 22.113 4.66516 19.2131L0.982837 17.6509C-0.474894 21.087 -1.192 24.8114 -1.192 28.8H2.808ZM4.65504 19.2365C5.94011 16.3119 7.72866 13.7739 10.0276 11.6076L7.2844 8.69642C4.59134 11.2341 2.49189 14.2161 0.992961 17.6275L4.65504 19.2365ZM10.0276 11.6076C12.3256 9.44215 15.0293 7.75347 18.1597 6.546L16.7203 2.81399C13.1307 4.19852 9.9784 6.15784 7.2844 8.69642L10.0276 11.6076ZM18.1597 6.546C21.2697 5.34646 24.6712 4.736 28.384 4.736V0.736C24.2248 0.736 20.3303 1.42153 16.7203 2.81399L18.1597 6.546ZM28.384 4.736C32.1485 4.736 35.5457 5.34764 38.5992 6.54248L40.0568 2.81751C36.4863 1.42036 32.5875 0.736 28.384 0.736V4.736ZM38.6083 6.546C41.7356 7.75228 44.4094 9.43734 46.6544 11.5942L49.4257 8.70979C46.7746 6.16266 43.6404 4.19972 40.0477 2.81399L38.6083 6.546ZM46.6834 11.6216C48.9734 13.7354 50.7575 16.2437 52.041 19.1645L55.703 17.5555C54.2025 14.1403 52.0986 11.1766 49.3966 8.68239L46.6834 11.6216ZM52.041 19.1645C53.3113 22.0555 53.96 25.2582 53.96 28.8H57.96C57.96 24.7578 57.2168 21.0005 55.703 17.5555L52.041 19.1645ZM53.96 28.8C53.96 32.2897 53.3127 35.4972 52.0366 38.4456L55.7074 40.0344C57.2153 36.5508 57.96 32.7983 57.96 28.8H53.96ZM52.041 38.4355C50.7559 41.3601 48.9673 43.8981 46.6684 46.0644L49.4116 48.9756C52.1047 46.4379 54.2041 43.4559 55.703 40.0445L52.041 38.4355ZM46.6693 46.0636C44.4228 48.1779 41.7442 49.8444 38.6083 51.054L40.0477 54.786C43.6318 53.4036 46.7612 51.4701 49.4107 48.9764L46.6693 46.0636ZM38.5992 51.0575C35.5457 52.2524 32.1485 52.864 28.384 52.864V56.864C32.5875 56.864 36.4863 56.1796 40.0568 54.7825L38.5992 51.0575ZM44.872 63.592C43.0512 63.592 41.3386 63.3923 39.7287 63.0007L38.7833 66.8873C40.7254 67.3597 42.7569 67.592 44.872 67.592V63.592ZM39.7411 63.0037C38.2003 62.6185 36.6349 61.9919 35.0433 61.1077L33.1007 64.6043C34.9651 65.6401 36.8557 66.4055 38.7709 66.8843L39.7411 63.0037ZM35.0643 61.1195C33.5258 60.2404 31.8572 59.0287 30.0583 57.4605L27.4297 60.4755C29.3748 62.1713 31.2582 63.5516 33.0797 64.5925L35.0643 61.1195ZM30.0776 57.4775C28.3211 55.9059 26.3806 53.9443 24.2546 51.5821L21.2814 54.2579C23.4754 56.6957 25.5189 58.7661 27.4104 60.4585L30.0776 57.4775ZM23.2584 54.8589L35.4984 51.7629L34.5176 47.8851L22.2776 50.9811L23.2584 54.8589ZM33.3924 51.0029C34.7306 52.8367 36.008 54.3526 37.2256 55.5173L39.9904 52.6267C39 51.6794 37.8774 50.3633 36.6236 48.6451L33.3924 51.0029ZM37.2256 55.5173C38.4396 56.6786 39.6921 57.5868 40.9882 58.1423L42.5638 54.4657C41.8439 54.1572 40.9844 53.5774 39.9904 52.6267L37.2256 55.5173ZM41.0187 58.1551C42.3175 58.6864 43.6789 58.952 45.088 58.952V54.952C44.1931 54.952 43.3465 54.7856 42.5333 54.4529L41.0187 58.1551ZM45.088 58.952C48.7756 58.952 52.0132 57.4276 54.7377 54.5942L51.8543 51.8218C49.7788 53.9804 47.5444 54.952 45.088 54.952V58.952ZM51.7625 54.4919L56.9465 60.6839L60.0135 58.1161L54.8295 51.9241L51.7625 54.4919ZM56.9377 58.1267C53.9342 61.7647 49.979 63.592 44.872 63.592V67.592C51.093 67.592 56.2098 65.2913 60.0223 60.6733L56.9377 58.1267ZM28.384 46.928C30.8705 46.928 33.196 46.5039 35.3351 45.6263L33.8169 41.9257C32.212 42.5841 30.4095 42.928 28.384 42.928V46.928ZM35.3188 45.633C37.4863 44.766 39.3957 43.5127 41.0302 41.8782L38.2018 39.0498C36.9563 40.2952 35.5057 41.25 33.8332 41.919L35.3188 45.633ZM41.0302 41.8782C42.6731 40.2353 43.9265 38.2949 44.7912 36.0791L41.0648 34.6249C40.3935 36.3451 39.4389 37.8127 38.2018 39.0498L41.0302 41.8782ZM44.7819 36.1024C45.702 33.8292 46.152 31.3881 46.152 28.8H42.152C42.152 30.9159 41.786 32.8428 41.0741 34.6016L44.7819 36.1024ZM46.152 28.8C46.152 26.1703 45.7041 23.7217 44.7755 21.482L41.0805 23.014C41.7839 24.7103 42.152 26.6297 42.152 28.8H46.152ZM44.7912 21.5209C43.9265 19.3051 42.6731 17.3647 41.0302 15.7218L38.2018 18.5502C39.4389 19.7873 40.3935 21.2549 41.0648 22.9751L44.7912 21.5209ZM41.0302 15.7218C39.3957 14.0872 37.4863 12.834 35.3188 11.967L33.8332 15.681C35.5057 16.35 36.9563 17.3047 38.2018 18.5502L41.0302 15.7218ZM35.3351 11.9737C33.196 11.0961 30.8705 10.672 28.384 10.672V14.672C30.4095 14.672 32.212 15.0159 33.8169 15.6743L35.3351 11.9737ZM28.384 10.672C25.8968 10.672 23.5541 11.0963 21.3772 11.967L22.8628 15.681C24.5259 15.0157 26.3592 14.672 28.384 14.672V10.672ZM21.3772 11.967C19.2097 12.834 17.3003 14.0872 15.6658 15.7218L18.4942 18.5502C19.7397 17.3047 21.1903 16.35 22.8628 15.681L21.3772 11.967ZM15.642 15.746C14.0647 17.3777 12.8265 19.297 11.9205 21.482L15.6155 23.014C16.3415 21.263 17.3113 19.7743 18.518 18.526L15.642 15.746ZM11.9048 21.5209C11.035 23.75 10.616 26.1848 10.616 28.8H14.616C14.616 26.6152 14.965 24.682 15.6312 22.9751L11.9048 21.5209ZM10.616 28.8C10.616 31.3733 11.0369 33.8009 11.899 36.064L15.637 34.64C14.9631 32.8711 14.616 30.9307 14.616 28.8H10.616ZM11.9205 36.118C12.8265 38.303 14.0647 40.2223 15.642 41.854L18.518 39.074C17.3113 37.8257 16.3415 36.337 15.6155 34.586L11.9205 36.118ZM15.6658 41.8782C17.3003 43.5127 19.2097 44.766 21.3772 45.633L22.8628 41.919C21.1903 41.25 19.7397 40.2952 18.4942 39.0498L15.6658 41.8782ZM21.3772 45.633C23.5541 46.5037 25.8968 46.928 28.384 46.928V42.928C26.3592 42.928 24.5259 42.5843 22.8628 41.919L21.3772 45.633ZM71.638 52.704L70.7436 54.4929L70.7504 54.4962L70.7571 54.4996L71.638 52.704ZM65.806 47.016L64.044 47.9623L64.0477 47.9692L64.0515 47.976L65.806 47.016ZM63.718 15.264V13.264H61.718V15.264H63.718ZM74.95 15.264H76.95V13.264H74.95V15.264ZM76.966 42.624L75.4608 43.941L75.4827 43.966L75.5055 43.9903L76.966 42.624ZM87.406 43.776L88.3504 45.539L88.3745 45.5261L88.3983 45.5125L87.406 43.776ZM90.574 40.32L92.3629 41.2144L92.3683 41.2035L92.3736 41.1925L90.574 40.32ZM91.726 15.264V13.264H89.726V15.264H91.726ZM102.958 15.264H104.958V13.264H102.958V15.264ZM102.958 54V56H104.958V54H102.958ZM92.302 54H90.302V56H92.302V54ZM92.302 43.344L93.9958 42.2805L90.302 36.3978V43.344H92.302ZM94.246 46.44L96.0475 47.3086L96.5277 46.3127L95.9398 45.3765L94.246 46.44ZM88.486 52.56L89.4342 54.321L89.446 54.3145L88.486 52.56ZM80.278 52.576C77.326 52.576 74.7538 52.0048 72.5189 50.9084L70.7571 54.4996C73.6102 55.8992 76.798 56.576 80.278 56.576V52.576ZM72.5324 50.9151C70.4157 49.8568 68.7651 48.2574 67.5605 46.056L64.0515 47.976C65.6309 50.8626 67.8683 53.0552 70.7436 54.4929L72.5324 50.9151ZM67.568 46.0697C66.3777 43.8534 65.718 40.9176 65.718 37.152H61.718C61.718 41.3544 62.4503 44.9946 64.044 47.9623L67.568 46.0697ZM65.718 37.152V15.264H61.718V37.152H65.718ZM63.718 17.264H74.95V13.264H63.718V17.264ZM72.95 15.264V35.496H76.95V15.264H72.95ZM72.95 35.496C72.95 38.9314 73.6584 41.881 75.4608 43.941L78.4712 41.307C77.5856 40.295 76.95 38.4925 76.95 35.496H72.95ZM75.5055 43.9903C77.3583 45.9709 79.8823 46.856 82.798 46.856V42.856C80.7217 42.856 79.3577 42.2531 78.4265 41.2577L75.5055 43.9903ZM82.798 46.856C84.8111 46.856 86.6791 46.4343 88.3504 45.539L86.4616 42.013C85.4449 42.5577 84.2409 42.856 82.798 42.856V46.856ZM88.3983 45.5125C90.1221 44.5274 91.4383 43.0634 92.3629 41.2144L88.7851 39.4256C88.1737 40.6486 87.3779 41.4886 86.4137 42.0395L88.3983 45.5125ZM92.3736 41.1925C93.3101 39.2611 93.726 36.9734 93.726 34.416H89.726C89.726 36.5626 89.3739 38.2109 88.7744 39.4475L92.3736 41.1925ZM93.726 34.416V15.264H89.726V34.416H93.726ZM91.726 17.264H102.958V13.264H91.726V17.264ZM100.958 15.264V54H104.958V15.264H100.958ZM102.958 52H92.302V56H102.958V52ZM94.302 54V43.344H90.302V54H94.302ZM90.6082 44.4075L92.5522 47.5035L95.9398 45.3765L93.9958 42.2805L90.6082 44.4075ZM92.4445 45.5714C91.3241 47.8952 89.6927 49.6199 87.526 50.8055L89.446 54.3145C92.3673 52.7161 94.5759 50.3608 96.0475 47.3086L92.4445 45.5714ZM87.5378 50.7991C85.3479 51.9783 82.9401 52.576 80.278 52.576V56.576C83.5679 56.576 86.6321 55.8298 89.4342 54.3209L87.5378 50.7991ZM120.924 51.984L119.999 53.7572L120.009 53.7626L120.924 51.984ZM113.22 44.928L111.507 45.961L111.511 45.9671L111.514 45.9731L113.22 44.928ZM113.148 24.336L111.435 23.303L111.43 23.3111L113.148 24.336ZM120.564 17.28L121.512 19.0409L121.522 19.0353L121.533 19.0296L120.564 17.28ZM141.372 17.136L140.422 18.896L140.438 18.905L140.455 18.9136L141.372 17.136ZM148.644 24.048L146.919 25.0609L146.926 25.0729L148.644 24.048ZM151.236 36.288L153.227 36.4691L153.228 36.4616L153.229 36.4541L151.236 36.288ZM151.092 37.8V39.8H152.902L153.082 37.999L151.092 37.8ZM119.628 37.8H117.628V39.8H119.628V37.8ZM119.628 31.248V29.248H117.628V31.248H119.628ZM145.188 31.248L146.008 33.0718L145.188 29.248V31.248ZM140.868 33.192H138.868V36.2852L141.688 35.0158L140.868 33.192ZM139.644 27.936L137.89 28.8977V28.8977L139.644 27.936ZM136.26 24.48L135.231 26.195L135.252 26.2078L135.274 26.22L136.26 24.48ZM126.108 24.48L127.094 26.22L127.103 26.2149L127.112 26.2096L126.108 24.48ZM122.724 28.008L124.477 28.9697L124.484 28.958L124.49 28.9463L122.724 28.008ZM122.868 40.68L121.122 41.6556L121.139 41.6864L121.157 41.7166L122.868 40.68ZM126.828 44.352L125.913 46.1306L125.943 46.146L125.974 46.1605L126.828 44.352ZM138.276 44.64L137.543 42.7792L137.533 42.7831L137.523 42.7871L138.276 44.64ZM142.596 41.832L144.066 40.4761L142.68 38.9738L141.208 40.3914L142.596 41.832ZM148.572 48.312L150.072 49.6341L151.264 48.2813L150.042 46.9561L148.572 48.312ZM141.876 52.992L142.607 54.8535L142.621 54.8479L142.636 54.842L141.876 52.992ZM132.588 52.576C128.436 52.576 124.871 51.7652 121.838 50.2054L120.009 53.7626C123.696 55.6588 127.907 56.576 132.588 56.576V52.576ZM121.849 50.2108C118.835 48.6382 116.546 46.5283 114.925 43.8829L111.514 45.9731C113.541 49.2797 116.389 51.8738 119.999 53.7572L121.849 50.2108ZM114.932 43.895C113.313 41.2098 112.484 38.1408 112.484 34.632H108.484C108.484 38.8032 109.479 42.5982 111.507 45.961L114.932 43.895ZM112.484 34.632C112.484 31.0598 113.296 27.9905 114.865 25.3609L111.43 23.3111C109.448 26.6335 108.484 30.4282 108.484 34.632H112.484ZM114.86 25.369C116.499 22.6528 118.706 20.5517 121.512 19.0409L119.615 15.5191C116.181 17.3683 113.445 19.9712 111.435 23.303L114.86 25.369ZM121.533 19.0296C124.326 17.4824 127.515 16.688 131.148 16.688V12.688C126.909 12.688 123.041 13.6216 119.595 15.5304L121.533 19.0296ZM131.148 16.688C134.643 16.688 137.719 17.4374 140.422 18.896L142.322 15.376C138.976 13.5706 135.236 12.688 131.148 12.688V16.688ZM140.455 18.9136C143.186 20.3216 145.332 22.358 146.919 25.0608L150.368 23.0352C148.404 19.69 145.702 17.1184 142.288 15.3584L140.455 18.9136ZM146.926 25.0729C148.483 27.681 149.308 30.8867 149.308 34.776H153.308C153.308 30.3133 152.357 26.367 150.361 23.0231L146.926 25.0729ZM149.308 34.776C149.308 35.1377 149.287 35.584 149.243 36.1219L153.229 36.4541C153.28 35.84 153.308 35.2783 153.308 34.776H149.308ZM149.244 36.1069C149.196 36.6295 149.149 37.1275 149.102 37.601L153.082 37.999C153.13 37.5125 153.179 37.0025 153.227 36.4691L149.244 36.1069ZM151.092 35.8H119.628V39.8H151.092V35.8ZM121.628 37.8V31.248H117.628V37.8H121.628ZM119.628 33.248H145.188V29.248H119.628V33.248ZM144.367 29.4242L140.047 31.3682L141.688 35.0158L146.008 33.0718L144.367 29.4242ZM142.868 33.192C142.868 30.903 142.403 28.8079 141.397 26.9743L137.89 28.8977C138.517 30.0401 138.868 31.449 138.868 33.192H142.868ZM141.397 26.9743C140.407 25.1693 139.017 23.7439 137.246 22.74L135.274 26.22C136.382 26.8481 137.248 27.7267 137.89 28.8977L141.397 26.9743ZM137.289 22.765C135.495 21.689 133.449 21.184 131.22 21.184V25.184C132.83 25.184 134.144 25.543 135.231 26.195L137.289 22.765ZM131.22 21.184C128.989 21.184 126.931 21.6894 125.103 22.7504L127.112 26.2096C128.261 25.5426 129.611 25.184 131.22 25.184V21.184ZM125.122 22.74C123.333 23.7533 121.942 25.2156 120.957 27.0697L124.49 28.9463C125.137 27.7284 126.002 26.8387 127.094 26.22L125.122 22.74ZM120.97 27.0463C119.961 28.8865 119.5 31.008 119.5 33.336H123.5C123.5 31.536 123.854 30.1055 124.477 28.9697L120.97 27.0463ZM119.5 33.336V35.064H123.5V33.336H119.5ZM119.5 35.064C119.5 37.4725 120.022 39.6885 121.122 41.6556L124.614 39.7044C123.889 38.4075 123.5 36.8795 123.5 35.064H119.5ZM121.157 41.7166C122.313 43.6233 123.911 45.1011 125.913 46.1306L127.742 42.5734C126.384 41.8749 125.343 40.9047 124.578 39.6434L121.157 41.7166ZM125.974 46.1605C128.018 47.1259 130.336 47.576 132.876 47.576V43.576C130.807 43.576 129.093 43.2101 127.682 42.5435L125.974 46.1605ZM132.876 47.576C135.137 47.576 137.203 47.2347 139.028 46.4929L137.523 42.7871C136.277 43.2933 134.743 43.576 132.876 43.576V47.576ZM139.009 46.5008C140.85 45.7755 142.509 44.6917 143.983 43.2726L141.208 40.3914C140.09 41.4683 138.87 42.2565 137.543 42.7792L139.009 46.5008ZM141.125 43.1879L147.101 49.6679L150.042 46.9561L144.066 40.4761L141.125 43.1879ZM147.071 46.9899C145.514 48.7569 143.543 50.145 141.116 51.142L142.636 54.842C145.584 53.631 148.077 51.8991 150.072 49.6341L147.071 46.9899ZM141.144 51.1305C138.733 52.0777 135.893 52.576 132.588 52.576V56.576C136.29 56.576 139.642 56.0183 142.607 54.8535L141.144 51.1305ZM158.786 54H156.786V56H158.786V54ZM158.786 15.264V13.264H156.786V15.264H158.786ZM169.514 15.264H171.514V13.264H169.514V15.264ZM169.514 26.208L167.709 27.0695L171.514 26.208H169.514ZM168.002 23.04L166.158 22.2639L165.81 23.0913L166.197 23.9015L168.002 23.04ZM173.546 16.848L174.506 18.6025L174.518 18.5956L174.531 18.5885L173.546 16.848ZM182.834 14.688H184.834V12.688H182.834V14.688ZM182.834 25.056L182.635 27.0461L184.834 27.266V25.056H182.834ZM181.538 24.984L181.289 26.9686L181.413 26.984H181.538V24.984ZM172.826 27.576L174.182 29.0456L174.184 29.0442L172.826 27.576ZM170.018 54V56H172.018V54H170.018ZM160.786 54V15.264H156.786V54H160.786ZM158.786 17.264H169.514V13.264H158.786V17.264ZM167.514 15.264V26.208H171.514V15.264H167.514ZM171.319 25.3465L169.807 22.1785L166.197 23.9015L167.709 27.0695L171.319 25.3465ZM169.845 23.8161C170.826 21.486 172.368 19.7721 174.506 18.6025L172.586 15.0935C169.635 16.7079 167.481 19.122 166.158 22.2639L169.845 23.8161ZM174.531 18.5885C176.708 17.3559 179.446 16.688 182.834 16.688V12.688C178.925 12.688 175.471 13.4601 172.56 15.1075L174.531 18.5885ZM180.834 14.688V25.056H184.834V14.688H180.834ZM183.033 23.0659C182.502 23.0129 182.002 22.984 181.538 22.984V26.984C181.841 26.984 182.205 27.0031 182.635 27.0461L183.033 23.0659ZM181.786 22.9994C181.311 22.9401 180.819 22.912 180.314 22.912V26.912C180.672 26.912 180.997 26.9319 181.289 26.9686L181.786 22.9994ZM180.314 22.912C176.832 22.912 173.82 23.9313 171.467 26.1078L174.184 29.0442C175.671 27.6687 177.651 26.912 180.314 26.912V22.912ZM171.469 26.1064C169.031 28.3569 168.018 31.7129 168.018 35.712H172.018C172.018 32.3191 172.876 30.251 174.182 29.0456L171.469 26.1064ZM168.018 35.712V54H172.018V35.712H168.018ZM170.018 52H158.786V56H170.018V52ZM196.721 51.984L195.795 53.7572L195.806 53.7626L196.721 51.984ZM189.017 44.928L187.304 45.961L187.308 45.9671L187.311 45.9731L189.017 44.928ZM188.945 24.336L187.232 23.303L187.227 23.3111L188.945 24.336ZM196.361 17.28L197.309 19.0409L197.319 19.0353L197.33 19.0296L196.361 17.28ZM217.169 17.136L216.219 18.896L216.235 18.905L216.252 18.9136L217.169 17.136ZM224.441 24.048L222.716 25.0609L222.723 25.0729L224.441 24.048ZM227.033 36.288L229.024 36.4691L229.025 36.4616L229.026 36.4541L227.033 36.288ZM226.889 37.8V39.8H228.699L228.879 37.999L226.889 37.8ZM195.425 37.8H193.425V39.8H195.425V37.8ZM195.425 31.248V29.248H193.425V31.248H195.425ZM220.985 31.248L221.805 33.0718L220.985 29.248V31.248ZM216.665 33.192H214.665V36.2852L217.485 35.0158L216.665 33.192ZM215.441 27.936L213.687 28.8977V28.8977L215.441 27.936ZM212.057 24.48L211.028 26.195L211.049 26.2078L211.071 26.22L212.057 24.48ZM201.905 24.48L202.891 26.22L202.9 26.2149L202.909 26.2096L201.905 24.48ZM198.521 28.008L200.274 28.9697L200.281 28.958L200.287 28.9463L198.521 28.008ZM198.665 40.68L196.919 41.6556L196.936 41.6864L196.954 41.7166L198.665 40.68ZM202.625 44.352L201.71 46.1306L201.74 46.146L201.771 46.1605L202.625 44.352ZM214.073 44.64L213.34 42.7792L213.33 42.7831L213.32 42.7871L214.073 44.64ZM218.393 41.832L219.863 40.4761L218.477 38.9738L217.005 40.3914L218.393 41.832ZM224.369 48.312L225.869 49.6341L227.061 48.2813L225.839 46.9561L224.369 48.312ZM217.673 52.992L218.404 54.8535L218.418 54.8479L218.432 54.842L217.673 52.992ZM208.385 52.576C204.233 52.576 200.668 51.7652 197.635 50.2054L195.806 53.7626C199.493 55.6588 203.704 56.576 208.385 56.576V52.576ZM197.646 50.2108C194.631 48.6382 192.343 46.5283 190.722 43.8829L187.311 45.9731C189.338 49.2797 192.186 51.8738 195.795 53.7572L197.646 50.2108ZM190.729 43.895C189.109 41.2098 188.281 38.1408 188.281 34.632H184.281C184.281 38.8032 185.276 42.5982 187.304 45.961L190.729 43.895ZM188.281 34.632C188.281 31.0598 189.093 27.9905 190.662 25.3609L187.227 23.3111C185.244 26.6335 184.281 30.4282 184.281 34.632H188.281ZM190.657 25.369C192.295 22.6528 194.503 20.5517 197.309 19.0409L195.412 15.5191C191.978 17.3683 189.242 19.9712 187.232 23.303L190.657 25.369ZM197.33 19.0296C200.123 17.4824 203.312 16.688 206.945 16.688V12.688C202.705 12.688 198.838 13.6216 195.392 15.5304L197.33 19.0296ZM206.945 16.688C210.44 16.688 213.516 17.4374 216.219 18.896L218.118 15.376C214.773 13.5706 211.033 12.688 206.945 12.688V16.688ZM216.252 18.9136C218.983 20.3216 221.129 22.358 222.716 25.0608L226.165 23.0352C224.201 19.69 221.499 17.1184 218.085 15.3584L216.252 18.9136ZM222.723 25.0729C224.28 27.681 225.105 30.8867 225.105 34.776H229.105C229.105 30.3133 228.154 26.367 226.158 23.0231L222.723 25.0729ZM225.105 34.776C225.105 35.1377 225.084 35.584 225.039 36.1219L229.026 36.4541C229.077 35.84 229.105 35.2783 229.105 34.776H225.105ZM225.041 36.1069C224.993 36.6295 224.946 37.1275 224.898 37.601L228.879 37.999C228.927 37.5125 228.976 37.0025 229.024 36.4691L225.041 36.1069ZM226.889 35.8H195.425V39.8H226.889V35.8ZM197.425 37.8V31.248H193.425V37.8H197.425ZM195.425 33.248H220.985V29.248H195.425V33.248ZM220.164 29.4242L215.844 31.3682L217.485 35.0158L221.805 33.0718L220.164 29.4242ZM218.665 33.192C218.665 30.903 218.2 28.8079 217.194 26.9743L213.687 28.8977C214.313 30.0401 214.665 31.449 214.665 33.192H218.665ZM217.194 26.9743C216.204 25.1693 214.814 23.7439 213.043 22.74L211.071 26.22C212.179 26.8481 213.045 27.7267 213.687 28.8977L217.194 26.9743ZM213.086 22.765C211.292 21.689 209.246 21.184 207.017 21.184V25.184C208.627 25.184 209.941 25.543 211.028 26.195L213.086 22.765ZM207.017 21.184C204.786 21.184 202.728 21.6894 200.9 22.7504L202.909 26.2096C204.058 25.5426 205.407 25.184 207.017 25.184V21.184ZM200.919 22.74C199.13 23.7533 197.739 25.2156 196.754 27.0697L200.287 28.9463C200.934 27.7284 201.799 26.8387 202.891 26.22L200.919 22.74ZM196.767 27.0463C195.758 28.8865 195.297 31.008 195.297 33.336H199.297C199.297 31.536 199.651 30.1055 200.274 28.9697L196.767 27.0463ZM195.297 33.336V35.064H199.297V33.336H195.297ZM195.297 35.064C195.297 37.4725 195.819 39.6885 196.919 41.6556L200.41 39.7044C199.686 38.4075 199.297 36.8795 199.297 35.064H195.297ZM196.954 41.7166C198.11 43.6233 199.708 45.1011 201.71 46.1306L203.539 42.5734C202.181 41.8749 201.139 40.9047 200.375 39.6434L196.954 41.7166ZM201.771 46.1605C203.815 47.1259 206.133 47.576 208.673 47.576V43.576C206.604 43.576 204.89 43.2101 203.479 42.5435L201.771 46.1605ZM208.673 47.576C210.934 47.576 213 47.2347 214.825 46.4929L213.32 42.7871C212.074 43.2933 210.54 43.576 208.673 43.576V47.576ZM214.806 46.5008C216.647 45.7755 218.306 44.6917 219.78 43.2726L217.005 40.3914C215.887 41.4683 214.666 42.2565 213.34 42.7792L214.806 46.5008ZM216.922 43.1879L222.898 49.6679L225.839 46.9561L219.863 40.4761L216.922 43.1879ZM222.868 46.9899C221.311 48.7569 219.34 50.145 216.913 51.142L218.432 54.842C221.381 53.631 223.874 51.8991 225.869 49.6341L222.868 46.9899ZM216.941 51.1305C214.53 52.0777 211.69 52.576 208.385 52.576V56.576C212.087 56.576 215.439 56.0183 218.404 54.8535L216.941 51.1305ZM266.334 16.56L265.412 18.3344L265.433 18.3454L265.454 18.3558L266.334 16.56ZM272.094 22.176L270.34 23.136L270.344 23.1431L270.348 23.1501L272.094 22.176ZM274.182 54V56H276.182V54H274.182ZM262.95 54H260.95V56H262.95V54ZM260.862 26.64L259.378 27.9806L259.39 27.9935L259.402 28.0063L260.862 26.64ZM250.278 25.56L251.197 27.3364L251.208 27.3306L251.22 27.3247L250.278 25.56ZM246.966 28.944L245.2 28.0057L245.189 28.0275L245.178 28.0496L246.966 28.944ZM245.814 54V56H247.814V54H245.814ZM234.582 54H232.582V56H234.582V54ZM234.582 15.264V13.264H232.582V15.264H234.582ZM245.31 15.264H247.31V13.264H245.31V15.264ZM245.31 25.992L243.612 27.0486L247.31 32.992V25.992H245.31ZM243.294 22.752L241.532 21.8057L240.985 22.8257L241.596 23.8086L243.294 22.752ZM249.27 16.776L250.217 18.538L249.27 16.776ZM258.126 16.688C260.921 16.688 263.333 17.2537 265.412 18.3344L267.257 14.7856C264.536 13.3703 261.476 12.688 258.126 12.688V16.688ZM265.454 18.3558C267.507 19.3623 269.133 20.9298 270.34 23.136L273.849 21.216C272.272 18.3342 270.058 16.1577 267.215 14.7642L265.454 18.3558ZM270.348 23.1501C271.523 25.257 272.182 28.1064 272.182 31.824H276.182C276.182 27.6696 275.45 24.087 273.841 21.2019L270.348 23.1501ZM272.182 31.824V54H276.182V31.824H272.182ZM274.182 52H262.95V56H274.182V52ZM264.95 54V33.552H260.95V54H264.95ZM264.95 33.552C264.95 30.1862 264.206 27.287 262.323 25.2737L259.402 28.0063C260.302 28.969 260.95 30.6778 260.95 33.552H264.95ZM262.347 25.2994C260.534 23.2925 258.015 22.408 255.102 22.408V26.408C257.182 26.408 258.503 27.0115 259.378 27.9806L262.347 25.2994ZM255.102 22.408C253.028 22.408 251.092 22.8594 249.337 23.7953L251.22 27.3247C252.345 26.7246 253.625 26.408 255.102 26.408V22.408ZM249.36 23.7836C247.567 24.7106 246.185 26.1518 245.2 28.0057L248.733 29.8823C249.38 28.6642 250.206 27.8494 251.197 27.3364L249.36 23.7836ZM245.178 28.0496C244.227 29.9512 243.814 32.2536 243.814 34.848H247.814C247.814 32.6424 248.17 31.0088 248.755 29.8384L245.178 28.0496ZM243.814 34.848V54H247.814V34.848H243.814ZM245.814 52H234.582V56H245.814V52ZM236.582 54V15.264H232.582V54H236.582ZM234.582 17.264H245.31V13.264H234.582V17.264ZM243.31 15.264V25.992H247.31V15.264H243.31ZM247.009 24.9354L244.993 21.6954L241.596 23.8086L243.612 27.0486L247.009 24.9354ZM245.056 23.6983C246.263 21.4524 247.971 19.7441 250.217 18.538L248.324 15.014C245.386 16.5919 243.11 18.8676 241.532 21.8057L245.056 23.6983ZM250.217 18.538C252.483 17.321 255.103 16.688 258.126 16.688V12.688C254.526 12.688 251.242 13.447 248.324 15.014L250.217 18.538ZM291.413 52.128L290.418 53.8627L290.428 53.8689L290.439 53.875L291.413 52.128ZM284.429 45.144L282.687 46.1272L282.693 46.1378L282.699 46.1483L284.429 45.144ZM284.429 24.048L282.699 23.0437L282.693 23.0542L282.687 23.0648L284.429 24.048ZM291.413 17.136L290.439 15.389L291.413 17.136ZM309.845 16.848L310.859 15.1241L309.845 16.848ZM315.533 23.4L317.351 22.5657L315.533 23.4ZM315.605 45.864L317.434 46.6735L317.439 46.6625L315.605 45.864ZM309.989 52.416L308.975 50.6921L308.967 50.6965L308.96 50.701L309.989 52.416ZM308.189 44.064L307.185 42.3344L308.189 44.064ZM311.717 40.392L309.971 39.4164L309.966 39.4253L309.961 39.4343L311.717 40.392ZM311.717 28.872L309.961 29.8297L309.972 29.8499L309.984 29.8699L311.717 28.872ZM308.189 25.2L307.185 26.9296L308.189 25.2ZM298.181 25.2L299.185 26.9296L298.181 25.2ZM294.581 28.872L292.848 27.8741L292.836 27.8941L292.825 27.9143L294.581 28.872ZM294.581 40.392L292.813 41.3278L292.83 41.3592L292.848 41.3899L294.581 40.392ZM298.181 44.064L299.185 42.3344V42.3344L298.181 44.064ZM313.373 54H311.373V56H313.373V54ZM313.373 46.08L311.373 46.0425L311.373 46.0613V46.08H313.373ZM313.589 34.56L315.589 34.5975L315.59 34.5159L315.585 34.4345L313.589 34.56ZM312.869 23.112H310.869V23.1748L310.873 23.2375L312.869 23.112ZM312.869 0.575996V-1.424H310.869V0.575996H312.869ZM324.101 0.575996H326.101V-1.424H324.101V0.575996ZM324.101 54V56H326.101V54H324.101ZM301.277 52.576C297.939 52.576 294.991 51.8327 292.387 50.381L290.439 53.875C293.691 55.6873 297.319 56.576 301.277 56.576V52.576ZM292.408 50.3933C289.791 48.8916 287.714 46.8182 286.159 44.1397L282.699 46.1483C284.6 49.4218 287.179 52.0044 290.418 53.8627L292.408 50.3933ZM286.171 44.1608C284.688 41.5347 283.909 38.3817 283.909 34.632H279.909C279.909 38.9463 280.81 42.8013 282.687 46.1272L286.171 44.1608ZM283.909 34.632C283.909 30.8297 284.69 27.6539 286.171 25.0312L282.687 23.0648C280.808 26.3941 279.909 30.2743 279.909 34.632H283.909ZM286.159 25.0523C287.711 22.3786 289.781 20.335 292.387 18.883L290.439 15.389C287.188 17.201 284.603 19.7654 282.699 23.0437L286.159 25.0523ZM292.387 18.883C294.991 17.4313 297.939 16.688 301.277 16.688V12.688C297.319 12.688 293.691 13.5767 290.439 15.389L292.387 18.883ZM301.277 16.688C304.238 16.688 306.734 17.3382 308.831 18.5719L310.859 15.1241C308.06 13.4778 304.843 12.688 301.277 12.688V16.688ZM308.831 18.5719C310.88 19.7774 312.518 21.6262 313.715 24.2343L317.351 22.5657C315.86 19.3178 313.706 16.7986 310.859 15.1241L308.831 18.5719ZM313.715 24.2343C314.9 26.8154 315.549 30.2487 315.549 34.632H319.549C319.549 29.8953 318.854 25.8406 317.351 22.5657L313.715 24.2343ZM315.549 34.632C315.549 38.9693 314.924 42.4193 313.771 45.0655L317.439 46.6625C318.878 43.3567 319.549 39.3187 319.549 34.632H315.549ZM313.776 45.0545C312.627 47.6508 311.017 49.4908 308.975 50.6921L311.003 54.1399C313.857 52.4613 315.991 49.9332 317.434 46.6735L313.776 45.0545ZM308.96 50.701C306.932 51.9177 304.401 52.576 301.277 52.576V56.576C304.969 56.576 308.246 55.7943 311.018 54.131L308.96 50.701ZM303.221 47.36C305.376 47.36 307.382 46.8454 309.193 45.7936L307.185 42.3344C306.02 43.0106 304.714 43.36 303.221 43.36V47.36ZM309.193 45.7936C311.013 44.7367 312.442 43.2386 313.473 41.3497L309.961 39.4343C309.263 40.7134 308.341 41.6632 307.185 42.3344L309.193 45.7936ZM313.463 41.3676C314.569 39.3876 315.085 37.1195 315.085 34.632H311.085C311.085 36.5605 310.689 38.1324 309.971 39.4164L313.463 41.3676ZM315.085 34.632C315.085 32.1071 314.574 29.8251 313.45 27.8741L309.984 29.8699C310.684 31.0869 311.085 32.6449 311.085 34.632H315.085ZM313.473 27.9143C312.442 26.0254 311.013 24.5273 309.193 23.4704L307.185 26.9296C308.341 27.6007 309.263 28.5506 309.961 29.8297L313.473 27.9143ZM309.193 23.4704C307.382 22.4186 305.376 21.904 303.221 21.904V25.904C304.714 25.904 306.02 26.2534 307.185 26.9296L309.193 23.4704ZM303.221 21.904C301.028 21.904 298.996 22.4139 297.177 23.4704L299.185 26.9296C300.342 26.2581 301.67 25.904 303.221 25.904V21.904ZM297.177 23.4704C295.367 24.5213 293.923 26.0062 292.848 27.8741L296.314 29.8699C297.063 28.5698 298.019 27.6067 299.185 26.9296L297.177 23.4704ZM292.825 27.9143C291.766 29.8568 291.285 32.1237 291.285 34.632H295.285C295.285 32.6283 295.668 31.0552 296.337 29.8297L292.825 27.9143ZM291.285 34.632C291.285 37.1027 291.77 39.3561 292.813 41.3278L296.349 39.4562C295.664 38.1639 295.285 36.5773 295.285 34.632H291.285ZM292.848 41.3899C293.923 43.2578 295.367 44.7427 297.177 45.7936L299.185 42.3344C298.019 41.6573 297.063 40.6942 296.314 39.3941L292.848 41.3899ZM297.177 45.7936C298.996 46.8501 301.028 47.36 303.221 47.36V43.36C301.67 43.36 300.342 43.0059 299.185 42.3344L297.177 45.7936ZM315.373 54V46.08H311.373V54H315.373ZM315.373 46.1175L315.589 34.5975L311.589 34.5225L311.373 46.0425L315.373 46.1175ZM315.585 34.4345L314.865 22.9865L310.873 23.2375L311.593 34.6855L315.585 34.4345ZM314.869 23.112V0.575996H310.869V23.112H314.869ZM312.869 2.576H324.101V-1.424H312.869V2.576ZM322.101 0.575996V54H326.101V0.575996H322.101ZM324.101 52H313.373V56H324.101V52ZM341.913 51.984L340.955 53.7398L340.966 53.7458L341.913 51.984ZM334.353 44.928L332.64 45.961L332.65 45.977L332.66 45.9929L334.353 44.928ZM334.353 24.336L332.652 23.2833L332.647 23.2909L334.353 24.336ZM341.913 17.28L342.85 19.0469L342.859 19.0418L341.913 17.28ZM363.872 17.28L362.926 19.0418L362.936 19.0473L362.946 19.0527L363.872 17.28ZM371.432 44.928L373.138 45.9731L373.141 45.9671L373.145 45.961L371.432 44.928ZM363.872 51.984L362.926 50.2222L363.872 51.984ZM357.969 44.064L358.973 45.7936L357.969 44.064ZM361.496 40.392L363.252 41.3497L363.258 41.3388L363.264 41.3278L361.496 40.392ZM361.496 28.872L359.741 29.8297L361.496 28.872ZM357.969 25.2L356.964 26.9296L357.969 25.2ZM347.888 25.2L348.893 26.9296L347.888 25.2ZM344.289 28.872L342.555 27.8741L342.544 27.8941L342.533 27.9143L344.289 28.872ZM344.289 40.392L342.521 41.3278L342.538 41.3592L342.555 41.3899L344.289 40.392ZM347.888 44.064L348.893 42.3344V42.3344L347.888 44.064ZM352.928 52.576C349.087 52.576 345.748 51.7744 342.859 50.2222L340.966 53.7458C344.509 55.6496 348.514 56.576 352.928 56.576V52.576ZM342.87 50.2282C339.994 48.6594 337.73 46.5419 336.045 43.8631L332.66 45.9929C334.719 49.2661 337.495 51.8526 340.955 53.7398L342.87 50.2282ZM336.065 43.895C334.445 41.2098 333.616 38.1408 333.616 34.632H329.616C329.616 38.8032 330.612 42.5982 332.64 45.961L336.065 43.895ZM333.616 34.632C333.616 31.0697 334.448 28.0077 336.058 25.3811L332.647 23.2909C330.609 26.6163 329.616 30.4183 329.616 34.632H333.616ZM336.053 25.3887C337.737 22.6689 339.992 20.5622 342.85 19.0469L340.975 15.5131C337.497 17.3578 334.712 19.9551 332.652 23.2833L336.053 25.3887ZM342.859 19.0418C345.748 17.4896 349.087 16.688 352.928 16.688V12.688C348.514 12.688 344.509 13.6144 340.966 15.5182L342.859 19.0418ZM352.928 16.688C356.718 16.688 360.034 17.4878 362.926 19.0418L364.819 15.5182C361.279 13.6162 357.299 12.688 352.928 12.688V16.688ZM362.946 19.0527C365.855 20.5721 368.1 22.6542 369.727 25.3091L373.138 23.2189C371.117 19.9218 368.322 17.3479 364.799 15.5073L362.946 19.0527ZM369.727 25.3091C371.335 27.9318 372.168 31.0166 372.168 34.632H376.168C376.168 30.3754 375.178 26.5482 373.138 23.2189L369.727 25.3091ZM372.168 34.632C372.168 38.1408 371.34 41.2098 369.72 43.895L373.145 45.961C375.173 42.5982 376.168 38.8032 376.168 34.632H372.168ZM369.727 43.8829C368.097 46.5429 365.845 48.6537 362.926 50.2222L364.819 53.7458C368.332 51.8583 371.12 49.2651 373.138 45.9731L369.727 43.8829ZM362.926 50.2222C360.034 51.7762 356.718 52.576 352.928 52.576V56.576C357.299 56.576 361.279 55.6478 364.819 53.7458L362.926 50.2222ZM352.928 47.36C355.121 47.36 357.153 46.8501 358.973 45.7936L356.964 42.3344C355.808 43.0059 354.48 43.36 352.928 43.36V47.36ZM358.973 45.7936C360.793 44.7367 362.222 43.2386 363.252 41.3497L359.741 39.4343C359.043 40.7134 358.12 41.6632 356.964 42.3344L358.973 45.7936ZM363.264 41.3278C364.308 39.3561 364.793 37.1027 364.793 34.632H360.793C360.793 36.5773 360.413 38.1639 359.729 39.4562L363.264 41.3278ZM364.793 34.632C364.793 32.1237 364.312 29.8568 363.252 27.9143L359.741 29.8297C360.409 31.0552 360.793 32.6283 360.793 34.632H364.793ZM363.252 27.9143C362.222 26.0254 360.793 24.5273 358.973 23.4704L356.964 26.9296C358.12 27.6007 359.043 28.5506 359.741 29.8297L363.252 27.9143ZM358.973 23.4704C357.153 22.4139 355.121 21.904 352.928 21.904V25.904C354.48 25.904 355.808 26.2581 356.964 26.9296L358.973 23.4704ZM352.928 21.904C350.736 21.904 348.704 22.4139 346.884 23.4704L348.893 26.9296C350.049 26.2581 351.377 25.904 352.928 25.904V21.904ZM346.884 23.4704C345.074 24.5213 343.631 26.0062 342.555 27.8741L346.022 29.8699C346.77 28.5698 347.727 27.6067 348.893 26.9296L346.884 23.4704ZM342.533 27.9143C341.473 29.8568 340.992 32.1237 340.992 34.632H344.992C344.992 32.6283 345.376 31.0552 346.044 29.8297L342.533 27.9143ZM340.992 34.632C340.992 37.1027 341.477 39.3561 342.521 41.3278L346.056 39.4562C345.372 38.1639 344.992 36.5773 344.992 34.632H340.992ZM342.555 41.3899C343.631 43.2578 345.074 44.7427 346.884 45.7936L348.893 42.3344C347.727 41.6573 346.77 40.6942 346.022 39.3941L342.555 41.3899ZM346.884 45.7936C348.704 46.8501 350.736 47.36 352.928 47.36V43.36C351.377 43.36 350.049 43.0059 348.893 42.3344L346.884 45.7936Z" fill="white" mask="url(#path-1-outside-1_916_588)"/>
</svg>
