<svg width="20" height="20" viewBox="0 0 20 20" fill="none" xmlns="http://www.w3.org/2000/svg">
<path d="M0 10C0 4.47715 4.47715 0 10 0C15.5228 0 20 4.47715 20 10C20 15.5228 15.5228 20 10 20C4.47715 20 0 15.5228 0 10Z" fill="#B4A6F9"/>
<path fill-rule="evenodd" clip-rule="evenodd" d="M4.52672 9.89446C7.44192 8.62435 9.38585 7.78702 10.3585 7.38246C13.1356 6.22737 13.7127 6.02672 14.0888 6.02009C14.1715 6.01863 14.3565 6.03913 14.4763 6.13635C14.5775 6.21844 14.6053 6.32934 14.6186 6.40717C14.6319 6.485 14.6485 6.6623 14.6353 6.80083C14.4848 8.38207 13.8337 12.2193 13.5024 13.9903C13.3622 14.7397 13.0862 14.991 12.819 15.0155C12.2382 15.069 11.7973 14.6318 11.2348 14.2631C10.3547 13.6861 9.85747 13.327 9.00316 12.764C8.01584 12.1134 8.65588 11.7558 9.21854 11.1714C9.3658 11.0184 11.9245 8.69115 11.974 8.48002C11.9802 8.45362 11.9859 8.3552 11.9275 8.30323C11.869 8.25125 11.7827 8.26903 11.7204 8.28316C11.6321 8.3032 10.2261 9.23252 7.50234 11.0711C7.10325 11.3452 6.74176 11.4787 6.41788 11.4717C6.06083 11.464 5.37401 11.2698 4.86342 11.1039C4.23717 10.9003 3.73944 10.7927 3.78278 10.4469C3.80536 10.2669 4.05334 10.0827 4.52672 9.89446Z" fill="white"/>
</svg>
