<svg width="71" height="71" viewBox="0 0 71 71" fill="none" xmlns="http://www.w3.org/2000/svg">
<path d="M0.5 35.4985C0.5 16.1686 16.17 0.498535 35.5 0.498535C54.83 0.498535 70.5 16.1686 70.5 35.4985C70.5 54.8285 54.83 70.4985 35.5 70.4985C16.17 70.4985 0.5 54.8285 0.5 35.4985Z" fill="#B4A6F9"/>
<path fill-rule="evenodd" clip-rule="evenodd" d="M16.3435 35.1289C26.5467 30.6835 33.3504 27.7529 36.7547 26.3369C46.4746 22.2941 48.4943 21.5918 49.8107 21.5686C50.1002 21.5635 50.7476 21.6353 51.1669 21.9755C51.521 22.2628 51.6184 22.651 51.6651 22.9234C51.7117 23.1958 51.7697 23.8163 51.7236 24.3012C51.1969 29.8355 48.9177 43.2659 47.7583 49.4644C47.2676 52.0872 46.3016 52.9666 45.3663 53.0527C43.3338 53.2397 41.7904 51.7095 39.8218 50.4191C36.7414 48.3998 35.0011 47.1428 32.011 45.1723C28.5554 42.8951 30.7955 41.6436 32.7648 39.5981C33.2802 39.0628 42.2355 30.9173 42.4089 30.1784C42.4305 30.086 42.4507 29.7415 42.246 29.5596C42.0414 29.3777 41.7393 29.4399 41.5214 29.4894C41.2124 29.5595 36.2913 32.8121 26.7581 39.2473C25.3613 40.2064 24.0961 40.6738 22.9625 40.6493C21.7128 40.6223 19.309 39.9427 17.5219 39.3618C15.33 38.6493 13.588 38.2726 13.7397 37.0626C13.8187 36.4323 14.6866 35.7878 16.3435 35.1289Z" fill="white"/>
</svg>
